<?xml version="1.0" encoding="utf-8"?>
<!-- Generator: Adobe Illustrator 18.1.1, SVG Export Plug-In . SVG Version: 6.00 Build 0)  -->
<svg version="1.1" id="Layer_1" xmlns="http://www.w3.org/2000/svg" xmlns:xlink="http://www.w3.org/1999/xlink" x="0px" y="0px"
	 viewBox="0 0 150 150" enable-background="new 0 0 150 150" xml:space="preserve">
<g>
	<path fill="#336699" d="M65.5,131.2c1.7,4.6-1.8,5.2-3.7,5.2c-5.7-0.1-7.9,3.2-8.8,8.3c-0.4-0.2-0.7-0.4-1.1-0.6
		c0.5-1.6,0.6-3.4,1.5-4.8c1.5-2.4,1.4-4.4,0.4-7c-0.8-2.2-3.7-5.1,0.4-7.3c-2.2-5.5,2.4-9.3,3.6-14c1-4.1,3-8,4.9-11.8
		c0.6-1.2,2.1-2,3.5-3.3c0.1,0.1-0.7-0.6-1.6-1.4c5.5-11.3,11-22.6,16.6-34.1c0.9,0.3,1.7,0.5,2.5,0.8c0-0.2,0.1-0.4,0-0.5
		c-0.2-1.2-1-2.7-0.6-3.5c3.3-6.9,6.8-13.7,10.4-20.8c1.4,0.5,2.6,0.9,4.9,1.7c-5.8-5.9-0.4-9.2,2-12.5c4.1-5.6,9.5-9.4,17.5-6.7
		c0.4-1.3,0.7-2.6,1.2-3.8c0.4-0.9,1.1-1.6,1.7-2.3c0.5,0.8,1.1,1.6,1.6,2.3c0.9-0.1,2.1-0.6,3.2-0.3c0.4,0.1,0.4,1.8,0.5,2.2
		c1.5,0.3,3.1,0.5,5.8,1c-2.4,2.6-3.9,4.2-5.5,6c7.4,5.3,6.4,12.2,2.9,18.5c-7.5,13.3-15.6,26.3-23.7,39.3c-0.7,1.1-3.3,0.9-5,1.2
		c0.4,0.3,1.5,1.2,2.9,2.4c-3.1,4.7-6.2,9.8-9.6,14.7c-7.4,10.3-14.9,20.5-22.5,30.6C70.1,132.1,68.5,134.7,65.5,131.2z"/>
	<path fill="#336699" d="M42.5,121.7c2.4,3.3-0.2,4.6-1.7,5c-4.6,1.3-5.5,4.4-5.1,8.6c-0.3-0.1-0.7-0.1-1-0.2c0-1.4-0.3-2.9,0.1-4.1
		c0.7-2.3,0.1-3.9-1.3-5.7c-1.1-1.6-4.2-3.2-1.4-5.9c-3-3.9-0.3-8-0.4-12c-0.1-3.5,0.6-7,1.1-10.5c0.2-1.1,1.2-2.1,2-3.5
		c0.1,0-0.7-0.3-1.6-0.8c1.8-10.3,3.5-20.5,5.3-31c0.8,0,1.4,0,2.2,0.1c0-0.1,0-0.3-0.1-0.4c-0.5-0.9-1.4-1.9-1.3-2.7
		c1-6.3,2.2-12.5,3.5-18.9c1.2,0.1,2.3,0.1,4.3,0.2c-6-3.3-2.4-7.2-1.3-10.4c1.9-5.4,5.4-9.7,12.4-9.4c0-1.1-0.1-2.2,0.1-3.3
		c0.1-0.8,0.5-1.5,0.8-2.2c0.6,0.5,1.2,1,1.8,1.4c0.7-0.3,1.6-1,2.4-1c0.4,0,0.8,1.4,0.9,1.6c1.3-0.2,2.6-0.3,4.8-0.6
		c-1.3,2.6-2.1,4.2-3,6c7.1,2.5,7.9,8.2,6.6,14.1c-2.9,12.3-6.3,24.6-9.8,36.7c-0.3,1-2.4,1.5-3.7,2.1c0.4,0.2,1.4,0.6,2.9,1.2
		c-1.4,4.5-2.6,9.3-4.2,13.9c-3.5,9.9-7.1,19.8-10.8,29.6C46.4,121.4,45.7,123.8,42.5,121.7z"/>
</g>
</svg>
