<?xml version="1.0" encoding="utf-8"?>
<!-- Generator: Adobe Illustrator 18.1.1, SVG Export Plug-In . SVG Version: 6.00 Build 0)  -->
<svg version="1.1" id="Layer_1" xmlns="http://www.w3.org/2000/svg" xmlns:xlink="http://www.w3.org/1999/xlink" x="0px" y="0px"
	 viewBox="0 0 150 150" enable-background="new 0 0 150 150" xml:space="preserve">
<g>
	<path fill="#336699" d="M49.8,59.2c0,0,2.5,2.3,3,6.9s1.6,2.1,1.6,2.1s3.9,4.8,6.9,3.7s4.4,1.6,3,3.4c-1.4,1.8-2.5,2.8-2.5,2.8
		s1.8,2.3-0.5,3c0,0-1.4,9.2-5.5,5.3c0,0-3.9,8.5-6,4.4S47.5,93,47,94.2c-0.5,1.1-3,4.1-3.7,0.9c0,0-1.8,7.1-8.3-1.4
		c0,0-4.8,1.4-4.6-5.5c0,0-8.5,9.2-9.9,0.2s0-1.4,0-1.4s-3.9,2.8-3.7-3c0,0-8.3,4.9-5.3-5.5c0,0-9.4-9,0.7-13.1c0,0,0.5-5.7,4.8-6.2
		c0,0-1.8-4.6,0.9-4.4c0,0-3.2-7.1,7.8-3.2c0,0-2.8-7.1,2.5-9c0,0-5.7-5.5-0.9-10.1c0,0,0.5-11.5,8.7-7.8c0,0,2.8-7.1,7.1-4.6
		c0,0,0.5-5.3,4.8-4.4c0,0-3.7-7.1,3-6.9c0,0,4.8-5.1,9.6,0c0,0,5.7-12.8,13.6-2.2c0,0,4.8-3,5.7,2.7c0,0,1.4-3.9,3.9-2.3
		c2.5,1.6,10.6-10.3,13.1,4.1c0,0,4.4-5.5,5.3,5.3c0,0,5.5-3.7,9.9,1.1c0,0,4.1-8.7,8.3-2.8c0,0,7.4,0.7,6.7,6.9c0,0,11-7.6,11,4.1
		c0,0,11.5,5.5,5.1,16.3c0,0-1.6,14.5-8.7,9.9c0,0,1.6,9.6-3,7.6c0,0,10.6,20.2-12.2,11.9c0,0-7.6,10.1-11.7-0.5
		c0,0-6.7,1.8-6.2-2.3c0,0-9.9-1.1-7.4-5.5c2.5-4.4,4.4-8.7,7.6-8c3.2,0.7,5.1-2.7,4.4-5.1c0,0,2.8-1.8,2.5-5.9s6.7,4.8,6.7-3.4
		c0,0,3.2,0.7,3.2-4.4c0,0-4.8,3.2-5.1-1.1c0,0-3.9,9.4-5.5,3.4c0,0-0.7,6.9-4.8,8s1.8,9.2-3.9,4.6c0,0-4.4,7.1-7.6,4.4
		c0,0,1.4,4.4-1.1,3.4c0,0,0.9,11.9-4.8,4.8c0,0-4.6,5.1-6.4,2.5c0,0-7.4,6.7-12.4-0.2c0,0-7.8,6.9-9.2-0.2
		C57.6,66.1,56.7,63.6,49.8,59.2z"/>
	<path fill="#336699" d="M62.7,94c0,0,17.5,10.4,20.5,19.2c2.9,8.8,6.5,7.5,7.1,13s2.9,15.6,13.6,11.7c10.7-3.9,3.2-4.9,0-12.3
		c-3.2-7.5-6.8-16.2-6.8-18.2c0-1.9,3.9,5.8,5.5,9.1c1.6,3.3,6.8,18.6,10.4,18.2s9.1,0,8.8-3.6c-0.3-3.6-1.9-7.6-3.9-14.7
		c-1.9-7.1-8.4-21.4-1.6-32.4s2.6-6.5,2.6-6.5s-2.3-0.3-4.9,2.3c-2.6,2.6-6.2,1.7-7.8-3.2s-4.2,3.3-5.8,0c-1.6-3.3-1.9-5.9-3.2-5.6
		s-1.6,5.8-1,10.7c0.6,4.9,0.3,12,0.3,12S88.3,78.7,88,75.1s0-6.2-1.6-6.2c-1.6,0-4.9,4.5-5.8,4.7c-1,0.2-1,2.4,2.6,6.7
		s5.2,13.3,5.2,13.3s-2.3,3.6-7.5-4.2c-5.2-7.8-10.7-14.3-12-15.8c-1.3-1.5-0.3,1.5-1.6,5.7c-1.3,4.2-1.3,5.8-2.6,6.2
		C63.3,85.8,66.9,92.7,62.7,94z"/>
</g>
</svg>
