<?xml version="1.0" encoding="utf-8"?>
<!-- Generator: Adobe Illustrator 18.1.1, SVG Export Plug-In . SVG Version: 6.00 Build 0)  -->
<svg version="1.1" id="Layer_1" xmlns="http://www.w3.org/2000/svg" xmlns:xlink="http://www.w3.org/1999/xlink" x="0px" y="0px"
	 viewBox="0 0 150 150" enable-background="new 0 0 150 150" xml:space="preserve">
<g>
	<path fill="#336699" d="M90.4,88.9c0.5,0.3,1,0.6,1.5,0.9c3.2,1.6,6,3.8,7.9,6.8c0.9,1.5,1.8,1.9,3.6,1.8
		c10.5-0.9,19.9,5.8,22.4,16c2,7.9-0.1,14.9-5.8,20.7c-0.4,0.4-0.9,0.8-1.6,1.5c6.1,1.6,12,2.9,18.5,2.7c-0.5,0.3-0.7,0.5-1,0.6
		c-13.7,3.9-27.6,5.9-41.9,4.2C74.5,141.8,59,132.5,48.3,116C34.6,94.6,24.2,71.8,19.2,46.7c-1.2-6.1-1.8-12.4-1.5-18.6
		c0.1-1.6,0.5-3.1,0.9-5.1c0.4,0.7,0.6,1,0.7,1.3c1.5,5.9,4.6,11,7.9,16.1c8.2,12.4,17.1,24.3,26.4,35.9c0.2,0.2,0.4,0.4,0.5,0.6
		c2.1-1.1,4.1-2.1,6.3-3.3c-16.6-10-25.5-26.4-35.5-42.1c3.5,3,7,6,10.5,8.9c17.4,14.1,35,28,54.4,39.5c5.8,3.5,11.9,6.5,18,9.5
		c6.1,3,12,6.1,17.2,10.4c9.1,7.7,12.3,17.5,10.4,29.1c-0.4,2.1-0.9,4.3-1.7,6.3c-0.8,2.1-2,2.4-4.1,1.6c-0.9-0.3-1.7-0.7-2.5-1
		c-0.4-0.2-0.7-0.4-1.1-0.6c2.3-4.6,2.4-9.5,2.4-14.3c0-2.5-0.3-5.1-0.8-7.6c-1.4-6.6-5-11.6-11.3-14.2c-8.1-4.3-37.5-18-41.9-20.1
		c4.7,5.1,3.7,7.6,3.9,9.1c2.8,0,5.5-0.1,8.1,0C87.7,88.3,89.1,88.7,90.4,88.9z M121,125.4c0.1-10.4-5.5-17.8-13.5-20.1
		c-8.1-2.3-16.8,1.1-21.1,8.2c-0.6,1-0.6,1.6,0.2,2.5c1.9,2.2,3.7,4.5,5.6,6.7c5.9,7.1,13.1,12,22.4,13.2c0.7,0.1,1.7-0.3,2.1-0.8
		C119.5,131.9,121,127.9,121,125.4z M94.5,101c-4.3-7.3-17.9-9.6-23.5-3.9c4.4,5.4,8.9,10.9,13.5,16.6C86.4,108,89.7,103.9,94.5,101
		z M56,79.4c4.2,4.9,8.3,9.8,12.4,14.7c1.6-1.2,2.7-2.4,4.2-3.1c1.7-0.8,1.9-1.9,1.5-3.6C72.3,79.5,62.7,75.1,56,79.4z"/>
	<path fill="#336699" d="M23.7,2.6c-0.1,0.3-0.2,0.6-0.2,0.8c1.6,0.6,3.2,0.9,4.6,1.7c1.8,0.9,2.4,2.7,2,4.3c-0.5,1.7-2.4,3-4.3,3
		c-1.8,0-3.2-1-3.7-2.9c-0.3-0.9-0.3-1.9-0.5-2.8c-1.8,1-2.3,3.2-1.9,5.1c0.6,2.7,0.6,5.5,0.8,8.3c0.1,0.7,0,1.5,0,2.8
		c-0.7-1.4-1.1-2.2-1.8-3.5c-0.4,1.4-0.6,2.4-0.9,3.5c-0.1,0-0.2,0-0.3,0c-0.2-1-0.3-1.9-0.6-3.4c-0.7,1.3-1.2,2.2-1.7,3.1
		c-0.1,0-0.2-0.1-0.3-0.1c0.3-3.4,0.6-6.8,1.1-10.2c0.2-1.2,0.6-2.4,1.2-3.5c0.7-1.3,1.6-2.6,2.6-3.5C21,4.3,22.4,3.5,23.7,2.6z
		 M22.8,5.8c-0.4,2.7,0.3,4.5,2,5.3c1.2,0.6,2.3,0.2,3.1-0.7c0.9-0.9,1.3-2.1,0.6-3.3C27.7,5.6,25.8,5.1,22.8,5.8z"/>
</g>
</svg>
