<?xml version="1.0" encoding="utf-8"?>
<!-- Generator: Adobe Illustrator 18.1.1, SVG Export Plug-In . SVG Version: 6.00 Build 0)  -->
<svg version="1.1" id="Layer_1" xmlns="http://www.w3.org/2000/svg" xmlns:xlink="http://www.w3.org/1999/xlink" x="0px" y="0px"
	 viewBox="0 0 150 150" enable-background="new 0 0 150 150" xml:space="preserve">
<g>
	<path fill="#336699" d="M71.4,20.4c2.1-4.4,4.2-8.7,6.6-13.8c-5.4,0.4-5.4,5.6-8.6,7.5c0.2-1.4,0.5-2.6,0.5-3.9
		c0-0.5-0.5-1.1-0.7-1.7c-0.5,0.3-1.2,0.6-1.4,1c-0.7,1-1.1,2.2-1.7,3.3c-0.1-0.1-0.3-0.2-0.4-0.2c0.4-2.8,0.8-5.6,1.2-8.7
		c-1.5-0.3-2.8-0.6-4.4-0.9c-0.4,2.1-0.8,3.9-1.1,5.8c-2.3-1.6,0.3-6.4-4.6-6.2c0.6,5,1.2,9.8,1.8,14.6c-8.6,0.8-12.5,3.8-14.3,12.1
		c-5.3,24.1-17.7,87.4-15.1,95c1.4,4.3,1.2,8.6-1,13C26,141.8,27.8,141,26,148c1.3-1,3-3.2,2.9-5.1c-0.4-5.5,2.3-8.3,6.7-11.4
		c8.8-6,26.3-50.7,31.1-63.9c3.5-9.6,7.2-19.1,10.4-28.7C79.6,31.6,78.6,25,71.4,20.4z M40.5,75.2c2.7,1.4,4,1.1,6,1.6
		C44.2,78.1,42.1,77.6,40.5,75.2z M47.2,38.6c4.7,2.6,14.4,4.3,18.7,5.4C60,46,50.2,43,47.2,38.6z M55.3,55.2
		c5.3,2.8,7.9,2.1,11.7,3.1C62.6,60.7,58.4,59.8,55.3,55.2z"/>
	<path fill="#336699" d="M117.1,51.8c3.2-3.2,6.4-6.2,10.1-9.9c-4.8-1.3-6.4,3.1-9.8,3.8c0.6-1.2,1.3-2.1,1.7-3.2
		c0.2-0.5,0-1.1-0.1-1.7c-0.5,0.1-1.2,0.1-1.6,0.4c-0.9,0.7-1.7,1.5-2.5,2.3c-0.1-0.1-0.2-0.2-0.3-0.3c1.2-2.3,2.4-4.6,3.7-7.1
		c-1.2-0.7-2.3-1.4-3.5-2.1c-1,1.7-1.9,3.1-2.8,4.6c-1.5-2.1,2.3-5.4-2-6.8c-1,4.5-2,8.8-3,13.2c-7.7-2-12-0.6-16.2,5.9
		c-12.2,19.1-42.8,70.1-43,77.5c-0.1,4.2-1.7,7.8-5,10.9c-3.3,3.1-1.6,8.5-1.1,6.8c1.4-4.9,4.5-8.3,9.3-9.5
		c9.4-2.4,38.7-35.6,47.1-45.5c6-7.2,12.3-14.2,18.1-21.6C120.6,64.1,121.8,58,117.1,51.8z M73.1,103.4c1.9,2.1,3.2,2.2,4.7,3.2
		C75.5,107.1,73.8,106,73.1,103.4z M75.7,82.1c4.4,3.8,6.7,4.6,9.9,6.8C81.8,88.2,78.2,85.9,75.7,82.1z M90.3,59.9
		c3.3,3.7,11.1,8.2,14.5,10.5C99.1,70.3,91.6,64.7,90.3,59.9z M86.9,70.9c3.7,4.1,6.2,4.3,9.2,6.3C91.5,78,88.2,75.9,86.9,70.9z"/>
</g>
</svg>
