<?xml version="1.0" encoding="utf-8"?>
<!-- Generator: Adobe Illustrator 18.1.1, SVG Export Plug-In . SVG Version: 6.00 Build 0)  -->
<svg version="1.1" id="Layer_1" xmlns="http://www.w3.org/2000/svg" xmlns:xlink="http://www.w3.org/1999/xlink" x="0px" y="0px"
	 viewBox="0 0 150 150" enable-background="new 0 0 150 150" xml:space="preserve">
<g>
	<path fill="#336699" d="M24.1,139.9c0.2-0.3,0.6-1,1-1.9c-4.5-3.5-4-7.9-2.1-12.4c3.4-8.2,7.1-16.3,10.1-24.7
		c2.4-6.6,4.4-13.3,5.8-20.2c1.7-8.5,4.3-16,10.4-22.6c9.2-10,17.9-20.5,29.3-28.1c5.2-3.5,10.7-6.5,16-9.9c1.4-0.8,2.3-0.8,3.5,0.4
		c2.8,3.1,5.7,6,8.4,8.9c-8.1,5.3-16.3,10.2-23.9,15.8c-20,14.6-33.2,33.9-38.2,58.4c-2,9.8-4.2,19.6-6.2,29.5c-0.6,2.9-2,5-4.7,6.2
		c-0.7,0.3-1.4,1.1-1.6,1.8c-0.6,1.6-1.1,1.5-2.9,1.1C27.1,142.1,25.5,141.7,24.1,139.9z M42.1,77.8c0.3,0.1,0.5,0.1,0.8,0.2
		c-3.9,11.3-7.7,22.7-11.7,34c-2.1,5.8-4.7,11.4-6.6,17.2c-1.3,4,0.9,7.6,4.3,8.4c3.6,0.9,5.8-0.6,7-5.2c1.5-5.9,2.3-11.9,3.9-17.8
		c2.9-10.7,6.1-21.3,9.1-31.9c0.4-1.5,0.7-3,1.2-5.3c-1.8,0.9-2.7,1.3-3.7,1.8c-0.4-0.7-0.9-1.5-1.2-2C44,77.4,43.1,77.6,42.1,77.8z
		"/>
	<path fill="#336699" d="M23.1,11.3c5-2.5,9.5-4.7,14-6.9c8.4,8.9,14.7,18.6,18,30.2c0.3,1.2,0.6,2.5,1.2,3.5
		c2.5,4.1,1.4,7.4-1.8,10.7c-3.3,3.4-6.3,7.3-10,11.7C41.2,42.2,35.6,25.5,23.1,11.3z"/>
	<path fill="#336699" d="M60.6,41.8c-6-12-7.9-24.9-10.4-38c4,0.3,7.8,0.4,11.6,0.9c0.7,0.1,1.6,1.2,1.8,2
		c1.8,8.4,3.5,16.7,5.1,25.2c0.2,1.1-0.4,2.6-1.1,3.5C65.4,37.6,63,39.6,60.6,41.8z"/>
	<path fill="#336699" d="M70.9,31.7c-0.8-4.6-1.6-8.5-2.2-12.5c-0.1-1,0.3-2.2,0.9-3.1c1.1-1.5,2.4-2.9,3.6-4.3
		c3.7-4.2,3.8-4.2,8.8-1.4c1.5,0.9,3.1,1.7,5.1,2.9C81.8,19.4,76.6,25.3,70.9,31.7z"/>
</g>
<path fill="#336699" d="M45.4,142.2c0.2-0.2,0.7-0.8,1.2-1.5c-3.5-3.9-2.3-7.7,0.1-11.5c4.3-6.8,8.9-13.6,13-20.6
	c3.2-5.5,6.1-11.3,8.3-17.2c2.8-7.4,6.3-13.7,12.9-18.7c9.8-7.6,19.3-15.6,30.8-20.7c5.2-2.3,10.6-4.2,16-6.3
	c1.4-0.5,2.2-0.4,3.1,0.9c2,3.2,4.2,6.3,6.1,9.3c-8.1,3.5-16.2,6.7-24,10.5c-20.3,10-35.1,25.3-43.5,46.5c-3.4,8.5-6.9,17-10.2,25.5
	c-1,2.5-2.5,4.2-5.2,4.9c-0.7,0.2-1.4,0.8-1.7,1.4c-0.7,1.3-1.3,1.2-2.8,0.6C47.8,144.6,46.3,143.9,45.4,142.2z M71.3,89.1
	c0.2,0.1,0.5,0.2,0.7,0.3c-5.3,9.6-10.5,19.2-15.9,28.7c-2.8,4.9-6,9.5-8.7,14.5c-1.8,3.4-0.4,6.9,2.6,8.3c3.1,1.4,5.3,0.4,7.1-3.6
	c2.2-5.1,4-10.3,6.3-15.4c4.3-9.2,8.8-18.2,13.2-27.3c0.6-1.3,1.1-2.6,1.9-4.6c-1.8,0.5-2.7,0.7-3.6,1c-0.3-0.7-0.6-1.5-0.8-2
	C73,89.1,72.2,89.1,71.3,89.1z"/>
<path fill="#336699" d="M80.9,71.6c0,0,25-24.2,40.9-25l-10.3-5.1C111.5,41.5,81.1,68.9,80.9,71.6z"/>
</svg>
