<?xml version="1.0" encoding="utf-8"?>
<!-- Generator: Adobe Illustrator 18.1.1, SVG Export Plug-In . SVG Version: 6.00 Build 0)  -->
<svg version="1.1" id="Layer_1" xmlns="http://www.w3.org/2000/svg" xmlns:xlink="http://www.w3.org/1999/xlink" x="0px" y="0px"
	 viewBox="0 0 150 150" enable-background="new 0 0 150 150" xml:space="preserve">
<g>
	<path fill="#336699" d="M107.5,32.8c-2-3.9-2.6-7.6-0.8-12c0.3,1.2,0.4,2,0.6,2.7c0.9,3.2,3,5.4,6.2,6.3c3.3,1,6.4,0.3,8.4-2.5
		c2.5-3.4,4.5-7.1,6.7-10.8c1.1-1.9,2-3.9,3-5.9c2.7,2.1,3,3.7,1.5,6.6c-1.4,2.8-3,5.6-4.2,8.6c-3.5,8.4-0.4,16.3,8,20.8
		c-2.3,0.3-4.5,0.7-7,1.1c-2.5,11.9-6.7,23.8-11.2,35.6c-5.1,13.1-11.4,25.5-21,35.9c-14.8,16-33.2,21.1-54.2,17.4
		c-18.8-3.4-29.1-18.9-26.1-37.8c2.7-16.8,13-26.8,30-29c11-1.4,20.7-5.4,28.9-13c5.7-5.3,11.6-10.4,17.5-15.6
		C97.9,37.7,102.1,34.5,107.5,32.8z M112.2,36.2c-1.9,0.1-3.1,0.1-4.2,0.2c-4.5,0.6-8.3,2.8-11.5,5.9c-7.3,7-14.5,14-21.5,21.2
		c-3.8,4-8.1,7-13.4,8.5c-2.3,0.6-4.5,1.2-6.8,1.9c-5.5,1.6-11,3-15.7,6.4c-9.8,6.9-10,19.6-0.4,26.7c5.3,3.9,11.4,5.6,18,5.3
		c7.5-0.3,13.6-3.8,19.4-8c18.3-13.1,30.2-31,38.9-51.3c1-2.4,1.7-5,2.2-7.6c0.4-1.9,0.3-3.9,0.5-5.8c-3.3,0.9-6.1,1.7-9.1,2.6
		C109.9,40.1,110.9,38.5,112.2,36.2z"/>
</g>
</svg>
