<?xml version="1.0" encoding="utf-8"?>
<!-- Generator: Adobe Illustrator 18.1.1, SVG Export Plug-In . SVG Version: 6.00 Build 0)  -->
<svg version="1.1" id="Layer_1" xmlns="http://www.w3.org/2000/svg" xmlns:xlink="http://www.w3.org/1999/xlink" x="0px" y="0px"
	 viewBox="0 0 150 150" enable-background="new 0 0 150 150" xml:space="preserve">
<path fill="#336699" d="M27.5,7.3c1.4,1,2.9,1.8,4.1,2.9c8.3,8.1,13.6,18.1,16.5,29.1c3.9,14.7,7.3,29.7,10.6,44.6
	c4.4,19.8,12.1,37.9,25.3,53.5c1.8,2.1,3.7,4.2,6.1,7.1c-6.5-0.8-11.8-1.7-16.5-5C61.2,131,53,119.2,48.6,105.1
	c-2.9-9.5-4.8-19.3-6.3-29.1c-2.5-16.1-5.4-32-10.2-47.5c-1-3.2-1-6.7-0.9-10.1c0.1-2.7-0.1-4.8-2.4-6.6c-1-0.8-1.5-2.3-2.3-3.4
	C26.9,7.9,27.2,7.6,27.5,7.3z"/>
<path fill="#336699" d="M74.1,3.3c-0.4,1.2-1,2.2-1.1,3.5c-1.3,8.8,0.3,18.3,3.9,28c4.8,13.1,10,26.1,15.3,39.2
	c7,17.3,11.1,34.1,10.4,50.3c-0.1,2.2-0.2,4.4-0.4,7.4c3.7-2.4,6.6-4.5,8.1-8.4c3.7-10.2,3.1-22-1.1-34.7c-2.8-8.5-6.5-17-10.4-25.4
	c-6.4-13.8-12.4-27.5-17-41.5c-0.9-2.8-2.7-5.7-4.4-8.5c-1.4-2.2-2.3-4-1.8-6c0.2-0.9-0.2-2.3-0.3-3.4C74.8,3.6,74.5,3.4,74.1,3.3z"
	/>
<path fill="#336699" d="M48.3,6.7c1.3,0.9,2.7,1.7,3.8,2.7c7.7,7.5,12.5,16.7,15.2,26.8c3.6,13.6,6.7,27.3,9.8,41.1
	c4,18.2,21.1,56.7,23.4,59.3c-6-0.8-9.2-7.9-13.6-10.9c-11.5-7.9-13.2-21.7-17.2-34.8C67,82.2,63.3,79,61.9,70
	c-2.3-14.8-5-29.5-9.4-43.8c-0.9-2.9-0.9-6.2-0.8-9.3c0.1-2.5-0.1-4.4-2.2-6.1c-0.9-0.8-1.4-2.1-2.1-3.2C47.7,7.2,48,7,48.3,6.7z"/>
</svg>
