<?xml version="1.0" encoding="utf-8"?>
<!-- Generator: Adobe Illustrator 18.1.1, SVG Export Plug-In . SVG Version: 6.00 Build 0)  -->
<svg version="1.1" id="Layer_1" xmlns="http://www.w3.org/2000/svg" xmlns:xlink="http://www.w3.org/1999/xlink" x="0px" y="0px"
	 viewBox="0 0 150 150" enable-background="new 0 0 150 150" xml:space="preserve">
<path fill="#336699" d="M115.7,61.4c-2.1-7.8-4.5-16.1-9-22.6c-7.3-10.6-8-22.9-12.3-35.6c-2.2,3.2-4.8,5.5-5.8,8.4
	c-2.1,5.8-3.6,11.9-5.1,18c-0.4,1.5-0.2,3.4,0.4,4.8c4.5,9.9,8.4,20.1,10.3,30.9C96,76.5,96,87.7,89.5,97.2
	c-4.4,6.4-5.2,12.5-3.9,19.6c0.1,0.4,0,0.9,0.1,1.4c1.3,7.2,2.6,14.5,4.1,21.6c0.4,1.9,1.9,3.5,2.9,5.3c0.4-0.1,0.8-0.2,1.1-0.3
	c0.2-1.3,0.4-2.5,0.5-3.8c0.4-6.2,2-11.9,5.5-17.2c4.8-7.2,9.7-14.3,13.5-22C119.8,88.8,119.2,74.9,115.7,61.4z M103.5,90
	c1.1-0.2,2.1-0.3,3.1-0.5s2-0.3,2.9-0.7c1.4-0.6,2.5,0.2,3.6,0.7C109.9,88.8,106.9,90.6,103.5,90z"/>
<path fill="#336699" d="M90.9,65.6c-2.1-9.3-6-18.3-9.3-27.3c-3.2-8.6-6.4-17.2-10-25.6c-1.2-2.7-3.7-4.8-5.7-7.2
	c-0.2-0.2-0.9,0.1-1.6,0.2c2.8,2.7,2.4,4.1-0.5,6.4c-1.6,1.3-2.7,3.5-3.3,5.5c-0.8,2.7-0.5,5.7-1.2,8.4
	c-3.5,12.9-7.1,25.8-10.7,38.7c-3,10.9-4.4,21.8-0.4,32.8c1,2.9,1.5,5.9,2.8,8.7c4.7,10.7,1.8,20.4-3.9,29.7
	c-1.1,1.9-2.1,3.8-3.2,5.7c0.3,0.2,0.5,0.4,0.8,0.7c5.1-2.1,9.5-5.4,13.5-9.1c9.6-9,17.2-19.6,24.2-30.6
	C89.4,91.2,93.9,79,90.9,65.6z M59.8,78c-1.3-0.2-2.7-0.5-4-0.4c-2.1,0.2-3.1-1.3-4.4-2.4c4,2.4,8.7,1.4,12.7,3.5
	C62.7,78.4,61.3,78.2,59.8,78z M65.6,91.9c3.2,0,6.3-0.1,9.5-0.1c-0.4,0.3-1,0.7-1.5,1.1c0,0.1,0,0.3,0,0.4c2.8-0.7,5.6-1.4,8.4-2.2
	C76.1,95.1,70.7,94.2,65.6,91.9z M74.4,56c1.7-0.5,3.3-1,4.9-1.6c-0.2,0.2-0.4,0.6-0.6,0.9c0,0.1,0,0.2,0.1,0.2
	c1.3-0.9,2.7-1.7,4-2.6C80.4,56.2,77.5,56.6,74.4,56z"/>
</svg>
