<?xml version="1.0" encoding="utf-8"?>
<!-- Generator: Adobe Illustrator 18.1.1, SVG Export Plug-In . SVG Version: 6.00 Build 0)  -->
<svg version="1.1" id="Layer_1" xmlns="http://www.w3.org/2000/svg" xmlns:xlink="http://www.w3.org/1999/xlink" x="0px" y="0px"
	 viewBox="0 0 150 150" enable-background="new 0 0 150 150" xml:space="preserve">
<g>
	<g>
		<path fill="#336699" d="M73.5,121.9c2.7,0.3,5.5,0.6,8.2,1c10.9,1.5,20.7-0.2,29.3-8.2c7.8-7.2,13.9-15.5,18.2-25.1
			c5.3-11.8,5-24.3,3.2-36.8c-0.1-0.7-0.5-1.3-0.6-2c-1.5-10.9-6.3-14.4-16.1-9.6C102.1,48,88,54.8,76.1,64
			c-12.5,9.7-17.9,24.5-15.2,40.6c0.8,4.7,4.9,8.9,7.8,13.2c1,1.5,2.8,2.6,4.2,3.9c0.8-2.5,1-5.3,2.3-7.3c6.3-9.3,5.9-16.3-2.1-24.7
			c-0.8-0.9-1.3-2-2-3c7.9,2.7,9.4,9.6,11.2,16.4C92.9,92.8,94.2,80.4,91.5,67c3.5,1.8,3.5,1.8,3.4,19.5c1.6-1.6,3.1-3,4.5-4.5
			c4.3-4.4,7.4-9,5.3-15.9c-0.8-2.5,0.7-5.7,1.2-8.5c0.5,0.1,0.9,0.1,1.4,0.2c0,4.7-0.1,9.4-0.1,14c0.6,0.2,1.2,0.3,1.8,0.5
			c4.8-7.3,9.6-14.7,14.4-22c0.5,0.3,0.9,0.6,1.4,0.8c-3.8,6.7-7.6,13.4-11.5,20c4.4,0.6,8,1,11.6,1.5c0.1,0.7,0.2,1.5,0.3,2.2
			c-13.1-3.7-20.9,3.1-27.3,13c7.5-0.3,15.1-2.1,22.3,0.7c-6.6,1-13.3,0.6-19.7,1.6c-7.1,1.1-10.9,6.7-13.8,12.6
			c7.3,0.5,14.3,1,21.3,1.5c-0.1,0.7-0.1,1.4-0.2,2.1c-4.3-0.3-8.6-0.4-12.9-0.8c-5.7-0.6-10.5,0.9-14,5.5
			C78.5,114.6,76.1,118.3,73.5,121.9z"/>
		<path fill="#336699" d="M57.1,104.6C55,91.6,58.1,79.4,66,70.1c0.1-2.6,0.1-5.3,0-7.9c-0.2-16.5-6.3-30.2-20.8-39.3
			c-5.1-3.2-13-3.6-16.4-0.5c-8.4,7.5-12.3,17.2-11.6,28.2c1,16.3,4.4,31.9,16.3,44.3c1.1,1.2,1.9,2.7,2.8,4
			c5,6.9,11.3,12.2,16.3,14c-3.3-10.5-8.6-20.1-17.3-27.6c0.4-0.3,0.9-0.6,1.3-0.9c1.9,1.8,3.7,3.5,6.4,6.1
			c-1.3-3.2-2.3-5.3-3.1-7.4c-1.6-4.1-3.4-7.7-8.3-9.1c-1.7-0.5-2.7-3.5-4-5.3c0.4-0.3,0.8-0.6,1.2-0.9c1.9,2.3,2.7,6,7.3,5.2
			c-2.9-6.8-3.6-14.3-9-19.8c-2.9-3-4.7-6.9-4.2-11.4c2.2,4.2,4.4,8.3,6.6,12.5c0.7-5.3-1.2-10.4,0.7-15.2c0.4,0,0.8,0,1.1,0
			c0.2,4.3,0.4,8.5,0.5,12.8c2.5-10.8,3.8-13.7,7.7-14.8c-6.1,11.5-8.3,23.1-1.6,35.1c0.6-6.6,0.2-13.3,4.5-20.1
			c-0.8,7.7-1.2,14.5-2.3,21.1c-1.2,7.5,3.5,12.7,6.5,18.8c1.6-7.1,3.1-14.3,4.7-21.4c0.4,0,0.7,0.1,1.1,0.1c0,1.2,0.2,2.5,0,3.6
			c-1.1,5.6-2.7,11-3.5,16.6c-0.5,3.1-0.8,6.8,0.5,9.4c2,4,3.9,8,5.2,12.3c0.3,0.9,1,1.7,1.4,2.5c0.5,0,1,0.1,1.4,0.1
			c0.5-1.8,1-3.6,1.6-5.4C58.1,107.9,57.4,106.3,57.1,104.6z"/>
		<g>
			<path fill="#336699" d="M108.4,15c-1.1-8.4-8.3-12.5-16.2-9.5c-1.6,0.6-3.3,1.3-4.9,1.8C75.6,11,67.4,18.7,61.7,29.2
				c-0.4,0.7-0.7,1.4-1,2c2.7,4.4,6.2,14.3,6.5,14.3c2.7,6,3.9,12.4,4.6,19.2c1.9-2.4,4.2-4.5,6.7-6.5c0.1,0,0.1-0.1,0.2-0.1
				c3.4-9.1,4.5-18.4,2.5-28.4c1.4,3.1,1.9,6.1,2.5,9.2c0.2,1.1,0.8,2.1,1.2,3.1c0.9-0.9,1.9-1.6,2.5-2.6c2.3-3.6,2.5-7.3,1-11.5
				c-1-2.9-0.9-6.1-1.2-9.2c0.4-0.1,0.9-0.1,1.3-0.2c0.7,3.5,1.3,7,2,10.5c0.3,0,0.6,0,0.8,0c1.2-4.8,2.4-9.7,3.7-14.5
				c0.5,0.1,1,0.3,1.5,0.4C95.3,20,94.1,25,93,30.1c0.2,0.1,0.5,0.3,0.7,0.4c1.9-2.3,3.8-4.6,5.7-7c0.4,0.3,0.8,0.6,1.2,0.9
				c-1.9,2.4-3.7,4.8-5.6,7.1c-1.4,1.6-3.2,2.9-4.2,4.7c-2.3,4.2-4.3,8.7-6.3,13c-0.5,1.1-0.8,2.3-1.2,3.5c0.3,0.2,0.5,0.3,0.8,0.5
				c6.6-3.9,23.3-12.6,24.8-13.3C109.9,31.8,109.5,23.4,108.4,15z"/>
		</g>
	</g>
	<path fill="#336699" d="M69.9,121.1c0,0,1.7,2.5,2.7,2.3c1-0.2-13.8,22.1-13.8,22.1l-4.6-2.5C54.1,143,66.1,130.9,69.9,121.1z"/>
	<path fill="#336699" d="M52.8,116.1c0,0,2.6,1.6,3.4,1s-3.6,25.8-3.6,25.8l-5.2-0.4C47.4,142.5,53.3,126.6,52.8,116.1z"/>
</g>
</svg>
