<?xml version="1.0" encoding="utf-8"?>
<!-- Generator: Adobe Illustrator 18.1.1, SVG Export Plug-In . SVG Version: 6.00 Build 0)  -->
<svg version="1.1" id="Layer_1" xmlns="http://www.w3.org/2000/svg" xmlns:xlink="http://www.w3.org/1999/xlink" x="0px" y="0px"
	 viewBox="0 0 150 150" enable-background="new 0 0 150 150" xml:space="preserve">
<g>
	<path fill="#336699" d="M79.6,35.7c2.1,0.4,5.5,1,9,1.6c1.7,0.3,2.1,1.6,2.2,3.2c1.2,13.5,2.8,27,3.6,40.5
		c0.8,12.8,0.9,25.6,1,38.5c0.1,6.5-0.6,7.1-6.9,9.1c-6.1,1.9-12.1,1.9-18-0.7c-0.9-0.4-2-1.6-2.2-2.6c-4.3-21.8-7-43.7-4.3-65.9
		c0.8-6.5,1.5-13.1,2.1-19.7c0.2-1.7,0.9-2.4,2.4-2.6C71.7,36.6,74.9,36.2,79.6,35.7z"/>
	<path fill="#336699" d="M65.1,124.8c-11.1,5.4-20.9,3.7-30.2-3.2c-0.7-0.5-1.1-1.6-1.2-2.5c-0.4-12.3-1.4-24.6-1-36.9
		c0.5-15,4.1-29.4,9.6-43.4c1.4-3.5,4.4-5.2,8-5.3c4.6-0.2,9,0.8,12.9,3.5c0.5,0.4,1,1.4,0.9,2c-3.5,18.8-3.4,37.8-2.9,56.8
		C61.5,105.6,62.2,115.3,65.1,124.8z"/>
	<path fill="#336699" d="M111.4,37.4c6.9-4.9,15.2-2.1,20.4,2.4c6.2,5.3,9.1,12.4,10.6,20.2c3.3,16.5,3.5,32.9-0.2,49.3
		c-1.5,6.7-4.8,12.1-12.1,13.8c-3.6,0.8-6.8,0.1-10.1-1.3C123.2,93,119.1,65,111.4,37.4z"/>
	<path fill="#336699" d="M40.1,37.2c-3.8,4.9-5,10.5-6.2,16.2c-3.3,15.9-4.8,31.9-5,48.1c-0.1,5.9,0.8,11.9,1.2,17.9
		c-6.8,1.4-15.9-3.5-19.5-10.5c-4.2-8.1-5.2-17-5.5-25.9c-0.3-11.2,1-22.2,5.3-32.7c4-9.6,10.8-15,21.3-15.5
		C34.8,34.6,37.6,35,40.1,37.2z"/>
	<path fill="#336699" d="M97.8,104c0.8-16.9-1.4-33.6-3.4-50.4c-0.6-4.8-1.2-9.6-1.6-14.4c-0.1-0.9,0.5-2.1,1.2-2.6
		c3.5-2.9,7.4-2.3,11.4-1.1c3,1,5,2.6,5.6,6c1.4,8.8,3.3,17.5,4.5,26.3c1.5,10.9,2.7,21.9,3.5,32.9c0.5,6.9,0,13.9-0.2,20.8
		c0,1-0.8,2.2-1.7,2.8c-5.8,3.8-12,3.3-18.2,1c-0.6-0.2-1-1.6-1-2.4C97.8,116.7,97.8,110.4,97.8,104z"/>
	<path fill="#336699" d="M70.6,34.2c1.2-4.5,3.4-8.3,6.8-11.5c3-2.7,6.1-5.5,9-8.4c1.2-1.2,2.1-1.3,3.5-0.4c1.4,0.9,2.9,1.7,4.4,2.5
		c-9.2,9.8-9.8,11-9.1,17.7C80.4,34.2,75.6,34.2,70.6,34.2z"/>
</g>
</svg>
