<?xml version="1.0" encoding="utf-8"?>
<!-- Generator: Adobe Illustrator 18.1.1, SVG Export Plug-In . SVG Version: 6.00 Build 0)  -->
<svg version="1.1" id="Layer_1" xmlns="http://www.w3.org/2000/svg" xmlns:xlink="http://www.w3.org/1999/xlink" x="0px" y="0px"
	 viewBox="0 0 150 150" enable-background="new 0 0 150 150" xml:space="preserve">
<g>
	<g>
		<path fill="#336699" d="M48.9,95.3c3.2-2.8,6.4-5.4,10.2-7.4c9.1-4.7,15.6-11.8,20-21c2.8-5.9,5.8-11.7,9.4-17.1
			c4.7-7.4,11.6-11.6,20.7-11.4c4.8,0.1,9.3,1.7,13.5,4c4.6,2.5,8.8,5.5,11.9,9.9c3.9,5.5,4.8,11.7,4.3,18.2
			c-0.7,10.3-4.4,19.5-9.7,28.2c-6,9.8-12.8,19-21.4,26.6c-7.5,6.7-15.5,12.7-25.1,16c-10.5,3.7-21.1,3.3-31-1.9
			c-8.8-4.8-13.2-13-14-22.9c-0.3-4.1,1.5-7.8,3.8-11.1C43.6,101.9,46.3,98.6,48.9,95.3z M69.5,85.7c-0.9,1-2,2.1-3,3.4
			c-0.3,0.5-0.5,1.5-0.2,1.9c0.4,0.5,1.3,0.7,2,0.6c1-0.2,2-0.6,2.9-1.1c7.8-4.1,11.5-11.5,14.9-19.1c0.4-0.9,0.3-2-0.7-2.6
			c-1-0.6-2-0.4-2.7,0.3c-1.6,1.8-3.3,3.6-4.6,5.6C75.6,78.6,73.6,82.7,69.5,85.7z"/>
	</g>
	<g>
		<path fill="#336699" d="M18.8,59.6c1.6-2.8,3.3-5.5,5.5-7.8c5.4-5.6,8.3-12.4,9.2-20.1c0.6-4.9,1.3-9.9,2.5-14.7
			c1.6-6.5,5.5-11.3,12.1-13.4c3.5-1.1,7.1-1.1,10.7-0.4c3.9,0.7,7.7,1.8,11,4.2c4.2,3,6.4,7.2,7.7,12.1c2.1,7.6,1.7,15.2,0,22.7
			C75.6,50.6,73,59,68.7,66.6c-3.7,6.7-8,13-14.1,17.8c-6.7,5.3-14.4,7.7-22.8,6.3c-7.6-1.2-12.7-6.1-15.8-13c-1.3-2.9-0.8-6-0.1-9
			C16.7,65.6,17.8,62.6,18.8,59.6z M31.4,47.5c-0.4,0.9-0.9,2-1.3,3.2c-0.1,0.4,0,1.2,0.3,1.4c0.4,0.2,1.1,0.2,1.6,0
			c0.7-0.4,1.3-0.9,1.8-1.5c4.6-4.9,5.4-11.1,6-17.4c0.1-0.8-0.3-1.5-1.1-1.7c-0.9-0.2-1.6,0.2-1.9,0.9c-0.7,1.7-1.5,3.4-1.9,5.2
			C34,40.8,33.6,44.3,31.4,47.5z"/>
	</g>
</g>
</svg>
