<?xml version="1.0" encoding="utf-8"?>
<!-- Generator: Adobe Illustrator 18.1.1, SVG Export Plug-In . SVG Version: 6.00 Build 0)  -->
<svg version="1.1" id="Layer_1" xmlns="http://www.w3.org/2000/svg" xmlns:xlink="http://www.w3.org/1999/xlink" x="0px" y="0px"
	 viewBox="0 0 150 150" enable-background="new 0 0 150 150" xml:space="preserve">
<g>
	<path fill="#336699" d="M89.4,146.2c-5.8,0-11.5,0-17.3,0c0.1-0.7,0.1-1.4,0.2-2.1c-3.6,3.9-6.3,1.6-9.3-0.7
		c-0.6,0.8-1.4,1.7-1.3,1.7c-2.3,0.1-3.8,0.2-5.3,0.3c0,0-0.2-0.4-0.1-0.6c3.9-7.4,3.7-7-3.7-10c-6.6-2.6-13.3-5.6-19-9.7
		C20.4,115.6,16,101.8,18,86c3.2-24.8,15-43.8,38.6-54c7.2-3.1,11.5-7.5,12-16c0.2-3.6,3.7-7,5.7-10.6c5.4,4.8,6.1,4.6,10.8-2
		c0.7,1.9,1.4,4,2.2,6.1c0.3-0.1,0.7-0.3,1-0.4c-0.9,2.9-2.5,5.7-2.5,8.6c0,4.5,1.4,8.7,6,11.2c7,3.8,14.4,7.1,20.5,12.1
		c18.9,15.5,26.1,36.1,23.2,60c-1.5,12.7-9.4,22-20.5,27.8c-7.1,3.7-14.9,6.3-22.7,8.6c-5.9,1.8-6.1,1.3-3.5,7.1
		C89.3,145.5,89.5,146.5,89.4,146.2z M87.6,136.2c24.1-2,39.7-17,41.9-39c2.4-24.6-12-51.4-33.8-62.9c-5-2.6-9.7-5-12.1-10.8
		c-0.6-1.5-4.7-2.3-7.2-2.3c-1.8,0-3.7,1.7-5.2,3.1c-3,2.7-5.3,6.1-8.5,8.4c-5,3.7-10.9,6.1-15.5,10.2C33.3,55,27.6,71.3,26.1,89.1
		c-2.1,26,15.8,46.2,40.8,46.9c-11.2-9.8-14.2-14.4-15.2-28.2c-0.6-7.8,0.1-16,1.5-23.7C56.5,65.6,63.3,48.3,74,31.4
		c-1.9,9.3-4.2,17.4-5.3,25.7c-2.3,17.3-4.6,34.7-5.8,52.1c-0.6,8.6,1.8,17.2,7.1,24.3c-1.3-5.5-3.1-11-3.7-16.5
		c-0.6-5.8-0.6-11.8,0.1-17.6c2.5-18.6,5.5-37.2,8.2-55.8c0.3-2.3,0.7-4.6,1.1-6.9c1.4,32.4,6.5,64.5,1.3,96.8
		c10.7-33.1,4.1-66.8,2.2-100.2c3.5,13.3,6.9,26.5,9.9,39.8c1.5,6.7,2.5,13.5,3.3,20.2c1.7,13.5-0.9,26.2-8,38.5
		c1-0.4,1.4-0.4,1.5-0.6c0.5-0.6,1-1.2,1.5-1.9c6.9-10.2,10.2-21.6,8.7-33.6c-1.7-14.2-5-28.1-8-42.1c-1.3-6.1-3.6-12-5.7-18.8
		c1,0.8,1.4,1,1.5,1.2C95.9,56,103.1,77.4,104,100.6C104.6,114.4,101.5,127.3,87.6,136.2z"/>
	<path fill="#336699" d="M104.8,129.6c17.8-17.6,15.3-38.2,8.9-59.2c-4.3-14.3-8.5-20.9-21.1-34.8c10.2,5.2,17.6,11.9,22.5,21.1
		c7.5,14.1,12.4,29,9.9,45.3C123,114.6,115.7,123.4,104.8,129.6z"/>
	<path fill="#336699" d="M49.6,128.8c-9.4-5.1-15.7-12.6-18.5-22.9c-6.1-22.7,6.7-55.1,26.6-67.6c1-0.6,2.1-1.1,3.5-1.4
		c-7.5,7.4-13,16-16.7,25.7c-5.1,13.2-8.9,26.6-7,40.9C38.7,113.3,42.7,121.7,49.6,128.8z"/>
	<path fill="#336699" d="M68.2,34.7c-4,8.2-8.7,16.5-12.3,25.2c-5.8,14.3-9,29.2-8,44.8c0.7,10.1,3.7,19.2,10.6,26.9
		c-11.1-6.4-17.1-16.4-17.4-28.7c-0.8-26.3,7.4-49.5,26.8-68C68,34.6,68.4,34.7,68.2,34.7z"/>
	<path fill="#336699" d="M88.2,34.3c4.8,6.5,10.6,12.6,14.4,19.7c8.2,15.5,13.2,32.1,11.6,50c-1.1,11.9-6.7,21.2-17,27.5
		c14.6-18.6,11.6-39,6.2-59.6c-3.3-12.5-8.4-24.4-15.9-35.1c-0.3-0.5-0.5-1-0.7-1.5C87.3,34.9,87.8,34.6,88.2,34.3z"/>
</g>
</svg>
