<?xml version="1.0" encoding="utf-8"?>
<!-- Generator: Adobe Illustrator 15.0.0, SVG Export Plug-In . SVG Version: 6.00 Build 0)  -->
<!DOCTYPE svg PUBLIC "-//W3C//DTD SVG 1.1//EN" "http://www.w3.org/Graphics/SVG/1.1/DTD/svg11.dtd">
<svg version="1.1" id="Layer_1" xmlns="http://www.w3.org/2000/svg" xmlns:xlink="http://www.w3.org/1999/xlink" x="0px" y="0px"
	 width="80px" height="80px" viewBox="0 0 80 80" enable-background="new 0 0 80 80" xml:space="preserve">
<g>
	<g>
		<g>
			<path fill="#669A41" d="M47.712,52.353c0.106,3.271-1.495,6.546-2.964,8.921c5.337,0.925,8.253-2.379,8.693-6.206
				c0.875-7.584-5.291-12.345-9.681-14.93c0.519,2.418,1.482,4.522,1.187,6.979c-0.439,3.619-3.945,4.785-4.743,6.98
				c-0.989,2.721,0.556,5.133,2.568,6.4C45.562,58.902,46.691,55.682,47.712,52.353z"/>
			<path fill="#669A41" d="M33.883,60.107c1.552,0.256,4.139,2.102,6.717,1.358c0.326-2.513-0.43-4.177-2.371-4.652
				c-1.104-0.271-2.426,0.233-3.753,0c-2.789-0.492-3.857-2.813-4.94-4.849c-3.925,7.42,5.52,18.346,10.473,10.666
				C37.365,62.378,35.706,61.16,33.883,60.107z"/>
			<path fill="#669A41" d="M42.972,61.66c-0.229,3.929-1.156,7.627-3.359,10.277c-0.587,0.708-3.057,2.561-2.766,3.102
				c0.997,1.861,3.925-1.333,4.347-1.938C43.274,70.129,43.408,66.259,42.972,61.66z"/>
		</g>
		<rect x="20.483" y="72.09" fill="#669A41" width="39.032" height="5.91"/>
	</g>
	<g>
		<path fill="#669A41" d="M20.483,11.825c0.007-0.656,0.018-1.315,0.026-1.97c3.155-2.16,6.856-3.77,9.756-6.187
			c0.133,0,0.271,0.002,0.402,0.005c2.833,8.095,15.488,9.235,21.163,15.641c1.798,2.028,3.256,5.938,4.727,8.735
			c1.313,2.504,4.52,6.428,1.496,8.692c-7.157-1.733-6.025-13.8-14.32-14.768c-3.179-0.372-7.069,0.551-7.714,4.24
			c-0.96,5.473,7.36,10.064,1.022,14.205C31.848,30.58,22.567,24.631,20.483,11.825z"/>
		<path fill="#669A41" d="M55.62,37.895c-0.417,0.912-1.404,1.252-2.835,1.146c-3.11-4.174-4.826-9.676-7.068-14.674
			C50.393,27.565,50.852,34.785,55.62,37.895z"/>
		<path fill="#669A41" d="M48.787,36.231c-4.955-1.896-4.602-8.848-7.493-12.71c2.927-0.047,3.478,3.291,4.367,5.18
			c1.061,2.252,1.82,4.608,3.142,6.347C48.797,35.441,48.794,35.835,48.787,36.231z"/>
		<path fill="#669A41" d="M43.986,33.41c-3.297,0.51-5.939-6.562-4.72-9.125C41.54,26.659,42.256,30.519,43.986,33.41z"/>
		<path fill="#669A41" d="M30.266,3.669c-2.899,2.417-6.601,4.027-9.756,6.187c0.025-2.105,0.054-1.052,0.082-3.154
			C23.816,6.742,27.039,3.629,30.266,3.669z"/>
	</g>
</g>
</svg>
