<?xml version="1.0" encoding="utf-8"?>
<!-- Generator: Adobe Illustrator 18.1.1, SVG Export Plug-In . SVG Version: 6.00 Build 0)  -->
<svg version="1.1" id="Layer_1" xmlns="http://www.w3.org/2000/svg" xmlns:xlink="http://www.w3.org/1999/xlink" x="0px" y="0px"
	 viewBox="0 0 150 150" enable-background="new 0 0 150 150" xml:space="preserve">
<g>
	<g>
		<path fill="#221000" d="M107,142.5c-8.9,0.8-16.6-0.9-24-4.5c-14.2-6.8-24-18.4-32.1-31.4C39.8,88.6,31.7,69,25,48.9
			c-1.2-3.6-1.4-7.8-1.3-11.7c0.1-3.5,2.3-5.7,6.2-5.7c3.3,0.1,6-0.9,8.4-3.6c3.1-3.6,7.6-3.2,9.7,1.2c4.2,8.8,7.9,17.8,11.4,26.9
			C67.1,76,73,96.6,83,115.4c5.1,9.6,11.2,18.2,21,23.6c0.7,0.4,1.3,1,1.8,1.5C106.1,140.9,106.3,141.4,107,142.5z"/>
		<path fill="#221000" d="M29.6,29.9c-1-6.3-1.9-11.9-2.7-17.6c-0.2-1.7-0.5-3.5-0.1-5.1c0.2-0.9,1.6-2,2.4-2c0.8,0,2.1,1.3,2.2,2.1
			c0.2,2.7,0,5.5,0,8.3c-0.1,5.3,1.4,7.6,7,10C35,27.4,32.3,28.7,29.6,29.9z"/>
	</g>
	<g>
		<path fill="#221000" d="M102.1,35.6c5.1,1.7,6,6,6.4,9.9c1.4,11.6,3,23.1,3.4,34.8c0.3,8.4-0.3,17-2,25.2
			c-1.1,5.4-4.7,10.3-7.5,15.2c-0.7,1.2-3.1,1.3-4.6,2c-0.5-1.5-1.6-3-1.5-4.5c2-23.9-4-46.2-13.7-67.8c-2.8-6.3-0.3-9.7,6.4-9.2
			C94.5,41.7,99.4,41.3,102.1,35.6z"/>
		<path fill="#221000" d="M89.7,39.3c-0.8-5.3-1.6-9.3-1.8-13.4c-0.1-1.4,1-2.8,1.6-4.3c1.2,1.1,2.9,2,3.4,3.3
			c1.4,3.8,0.3,8.9,6.5,10c-0.1,0.5-0.2,1-0.3,1.5C95.7,37.4,92.5,38.4,89.7,39.3z"/>
	</g>
</g>
</svg>
