<?xml version="1.0" encoding="utf-8"?>
<!-- Generator: Adobe Illustrator 18.1.1, SVG Export Plug-In . SVG Version: 6.00 Build 0)  -->
<svg version="1.1" id="Layer_1" xmlns="http://www.w3.org/2000/svg" xmlns:xlink="http://www.w3.org/1999/xlink" x="0px" y="0px"
	 viewBox="0 0 150 150" enable-background="new 0 0 150 150" xml:space="preserve">
<g>
	<path fill="#221000" d="M128.3,82.1c-1.8-2.9-3-4.9-4.2-7c4.8,13.1,2.4,25.7-1.3,39c-2.9-10-5.6-19.4-8.4-28.8
		c-0.5,0.1-1.1,0.3-1.6,0.4c1.3,6.1,2.8,12.1,3.9,18.2c0.9,5.2,1.9,10.5,2,15.8c0.2,7.1-3.5,12.1-10.5,16c1-8.1,1.1-15.4-3.7-23.4
		c0.6,5.5,0.9,9.5,1.5,13.6c1.9,13.8-9.9,18-19.8,16.8c-4.2-0.5-8.1-2.9-12.2-4.4c-0.3-0.1-0.8-0.2-0.9-0.4
		c-2.9-6.1-5.8-12.3-8.6-18.4c-0.1-0.3,0.2-1.1,0.5-1.3c5.5-3.8,5.4-9.3,5.2-15.1c-0.1-3.3,1.8-5.6,5.1-6.5c4.1-1.1,6-3.4,4.1-7.7
		c-1.3-3.1-0.1-5.5,2.9-6.3c6.7-1.8,6.1-8.1,8.2-12.8c0.3-0.7-0.2-2.1-0.7-2.7c-3.8-4.3-0.1-5,2.9-5.7c6.1-1.4,6.5-1.9,5.4-8
		c0-0.2-0.1-0.3-0.1-0.5c-2-10.5-0.2-12.3,10.4-10.4c6.7,1.2,6,1,7.6-5.2c0.9-3.3,4.3-6.4,7.3-8.6c2.3-1.7,4.7-2.6,5.2-5.9
		c0.2-1.4,2.1-3.1,3.5-3.4c1.1-0.2,3.1,1.2,3.9,2.4c4,5.8,3.7,12.4,2.1,18.8c-3.2,12.9-2.6,25.7-1.3,38.7
		c1.6,15.9,1.4,31.7-8.4,45.6c-0.6,0.8-1.1,1.6-2.1,2.9c3.8-11,7.3-21.2,10.9-31.4c-0.5-0.2-1.1-0.4-1.6-0.6c-1.1,2.5-2.2,5-3.4,7.4
		c-0.3-0.1-0.6-0.2-0.9-0.3c1.6-8,3.1-16,4.7-24c-0.3-0.1-0.7-0.1-1-0.2c-0.6,2.1-1.2,4.3-1.7,6.4c-0.2,0-0.5,0-0.7-0.1
		c-0.4-6-0.8-12-1.2-18.1c-0.2,0-0.5-0.1-0.7-0.1C129.8,71.6,129.1,76.3,128.3,82.1z"/>
	<path fill="#221000" d="M72.3,141.5c-7.5,1.9-14.7,3.2-19.7-6.8c-0.4,3.1-0.6,4.4-0.8,6c-13.8-7.7-7-20.5-7.8-31.3
		c-0.4-0.1-0.9-0.1-1.3-0.2c-1.8,6.9-3.7,13.8-5.6,20.9c-2.8-1.5-5-4.4-4.8-8.2c0.3-4.6,1.1-9.2,2.3-13.6c1.8-7.2,4.1-14.3,6.2-21.4
		c-0.7-0.2-1.4-0.5-2-0.7c-4.2,10.8-8.4,21.6-12.9,33.4c-0.9-4.5-2.5-8.7-2.3-12.7c0.5-8.6,2.2-17.1,3.2-25.7
		c0.6-5.4,0.7-10.9,0.2-16.4c-2.4,9.7-4.7,19.3-7.1,29c-0.8-0.1-1.6-0.2-2.4-0.3c0.6-7.4,1.2-14.7,1.9-22.1
		c0.7-7.3,1.4-14.6,2.1-21.9c-0.5,0-1-0.1-1.4-0.1c-2.3,12.4-4.6,24.7-6.9,37.1c-0.2,0.1-0.4,0.1-0.5,0.2
		c-0.5-5.1-0.9-10.1-1.4-15.2c-3,9.4-3.1,18.6,1.3,27.5c2.5,5,4.6,10.2,6,16c-1.3-1-2.6-2-4.7-3.6c2.6,7.3,6,13,11.5,17
		c5.1,3.9,10.6,7.3,15.6,11.3c-15.8-4.4-25.7-14.7-30.9-30.1C4.8,93.5,6.4,77.4,9.5,61c1.5-8.2,1.1-16.8,1-25.2
		c-0.1-6.2-0.4-12.4,3.3-17.8c0.8-1.1,2.2-2.3,3.4-2.4c0.7-0.1,1.5,2.2,2.5,3c4.7,3.6,7.3,8.6,9.6,13.9c0.5,1.1,2.8,1.5,4.4,1.9
		c5.4,1.5,7.2,4.4,6.1,9.9c-1.1,5.3,2.2,9.2,8.3,10c8.2,1.1,7.8,1.1,7.8,9.1c0,2.4,2.8,4.7,5.1,8.2c-0.6,4.3,0.1,5.3,6.5,5.6
		c4.8,0.2,5.3,2,3.6,5.9c-1.7,4-4.4,8.3,1.9,11.9c-5.6,2.7-5.5,7.2-5.6,12c-0.1,2.9-1.2,6.2-2.8,8.6c-2.4,3.5-2.7,6.4-0.8,10.2
		c1.6,3.1,2.1,6.6,3.7,9.7C68.4,137.6,70.5,139.3,72.3,141.5z"/>
	<path fill="#221000" d="M58.8,62.2c0.3-7.8-4.8-9.1-9.7-10c-5.1-1-7.1-3.1-5.9-8.5c1.1-5.4-1.2-8.4-6.5-10.1
		c-1.8-0.6-3.7-1.2-6.6-2.1c7.1-5.5,14.3-6.9,21.7-5.6c3.8,0.6,7.3,3.3,10.9,5.1c2.3,1.2,4.4,3.1,6.8,4.1c5.1,2,8.6,5.5,10.3,10.2
		C72.9,50.6,66.3,56,58.8,62.2z"/>
	<path fill="#221000" d="M75.9,93.5c-3.7-2-4.4-4.5-3.2-8c0.8-2.3,1.5-5,1-7.2c-0.3-1.3-2.7-2.6-4.4-3.2c-1.8-0.7-3.9-0.5-6.3-0.8
		c2.8-5.4-1.5-6.9-4.4-8.7c4.7-4.4,9.3-8.6,13.9-12.8c4.3-3.9,9.5-5.2,15.2-5.4c4.1-0.2,6.4,1,7.2,5.4c0.9,4.3-1,6-4.6,7.4
		c-6,2.4-5.3,2.3-3.6,8.3c0.8,2.8-0.5,8.1-2.6,9.5c-4.9,3.1-8,6.2-7.2,12.3C77.2,91.2,76.4,92.3,75.9,93.5z"/>
	<path fill="#221000" d="M72,15.5c16.8,2.4,29.3,5.4,40.8,15.8c1.2,1,0.5,4.4,0.1,6.7c-0.1,0.9-1.7,2.1-2.7,2.2
		c-3.4,0.4-7.5-1.3-10.9-1.1c-2,0.1-3.4,2.6-5.2,2c-6.3-2-12.5-6-17.4-10.7C73.6,27.4,74.3,21.3,72,15.5z"/>
	<path fill="#221000" d="M110.6,25.1C77.4,10.7,73.7,10.4,47,18.5c0.8-2.6,1.2-5.6,2.7-8c1.1-1.8,4.3-4.2,5.3-3.7
		c4.5,2.1,6.3-0.3,8.2-3.4c0.3-0.5,1-0.8,1.5-1.1c5.5,4.4,5.5,4.4,11.7,0c1-0.7,2-1.3,3-1.8c0.4-0.2,1,0,1.8,0
		c0.1,4.3,1.3,7.9,6.8,7c0.3,0,0.9,0.1,0.9,0.3c2.2,8.2,11.3,4.2,15.6,8.7c2.4,2.5,4.9,4.9,7.4,7.3C111.4,24.3,111,24.7,110.6,25.1z
		"/>
	<path fill="#221000" d="M45.5,23.1c6.5-5,15.8-5.6,23.3-7.6c1.3,4.8,2.2,8.3,3.2,12.1c-3.5,1.7-6.5,3-10.7,0.1
		C57.2,25,53,23.2,45.5,23.1z"/>
	<path fill="#221000" d="M94,42.9c-8.2,2.1-9.9,3.3-14.1-1.8c-3.1-3.7-7.4-6.4-11.3-9.8c2.6-1.5,4.6-1.8,7.6,1.3
		C79.8,36.7,92,41.9,94,42.9z"/>
</g>
</svg>
