<?xml version="1.0" encoding="utf-8"?>
<!-- Generator: Adobe Illustrator 18.1.1, SVG Export Plug-In . SVG Version: 6.00 Build 0)  -->
<svg version="1.1" id="Layer_1" xmlns="http://www.w3.org/2000/svg" xmlns:xlink="http://www.w3.org/1999/xlink" x="0px" y="0px"
	 viewBox="0 0 150 150" enable-background="new 0 0 150 150" xml:space="preserve">
<g>
	<path fill="#221000" d="M32.4,117.8c0-0.1,0.9-2.4,1-2.8c2.8-7.1,7.7-12.6,13.7-17.3c3-2.3,6-4.7,9.1-6.9c0-0.5-0.1-0.8,0-0.8
		c0.3-2.9,0-3.2,0.1-3.9c1-11.6,5.7-21.9,12.4-31.4c4.5-6.4,9.1-12.8,13.8-19C81,29.4,79.5,23.3,77,17.5c-1.9-4.3-4.8-7.5-9-9.6
		c-6.3-3.1-12.9-3.6-19.7-2.4C37,7.7,29.8,14.8,25.9,25.3c-3.1,8.5-5.9,17.1-8.6,25.6c-3.8,11.9-5.4,24.1-3.2,36.5
		c0.1,0.8,0.7,1.7,1.4,2.2c2,1.4,4.1,2.6,6.2,3.8c0,0.1-0.1,0.3-0.1,0.4c-2.1-0.7-4.2-1.5-6.4-2.3c0,0.4-0.1,0.6,0,0.8
		c2.8,8.7,6.5,17,11.9,24.4c1.2,1.7,2.8,3.3,4.6,4.4C31.9,120.1,32.2,118.9,32.4,117.8z M49.5,38.1c-0.4,0.5-1,1.1-1.5,1.8
		c0,0.2,0.1,0.3,0.1,0.5c3.2-1.6,6.4-3.2,9.7-4.9c-6.1,6.3-12.9,6.7-19.8,5.3C41.8,39.9,45.7,39,49.5,38.1z"/>
	<g>
		<path fill="#221000" d="M139.4,41.6c-0.7-4.3-2.7-8-6.2-10.9c-5.2-4.4-11.5-6.8-18.3-7.5c-11.5-1.3-20.2,3-26.6,11.3c-5.1,6.6-10,13.5-14.8,20.3
			c-6.7,9.5-11.3,19.8-12.4,31.4c0,0.3,0,0.6,0.1,1c5.3-3.4,11.2-4.1,17.7-1.4c4.1,1.8,7.6,4.4,10,8.2c1.6,2.5,2.2,5.2,1.8,8
			c-0.7,5.3-2.7,10.2-4.4,15.2c-0.9,2.8-1.9,5.5-3,8.2c-0.2,0.5-1.2,3-1.4,3.6c11.2,4.8,24.1,4.9,35.4-3.3
			c12.1-8.8,18.6-20.7,20.4-35.1c0.3-2.7,0.6-5.3,1-8.4c-4,0.6-7.5,1.1-11.5,1.7c3-1.3,5.7-2.4,8.4-3.5c0.1,0.2,0.2,0.4,0.3,0.7
			c0.5,0.1,1.4,0.5,1.5,0.3c0.6-0.6,1.3-1.4,1.4-2.2c0.3-4.4,0.6-8.9,0.7-13.4C139.9,57.7,140.7,49.7,139.4,41.6z M95.9,51.4
			c3.9,0.3,7.9,0.5,11.8,0.8c-0.5,0.3-1.2,0.7-1.9,1.2c0,0.2,0,0.3,0,0.5c3.5-0.5,7-1.1,10.5-1.6C108.8,58.9,100.6,56.7,95.9,51.4z
			 M99,114.7c1.9-0.2,3.8-0.4,5.6-0.6c1.8-0.2,3.6-0.3,5.2-0.9c2.6-0.9,4.4,0.6,6.4,1.6C110.4,113.1,104.9,116,99,114.7z"/>
	</g>
	<g>
		<path fill="#221000" d="M78.7,123.3c-1.6,0.2-3.3,0.3-5.1,0.5c2.2,0.3,4.2,0.6,6.5,0.9c-0.7,1.6-1.3,3-1.9,4.4c-3.3,7.4-8.7,12.8-16.7,15.6
			c-10,3.5-19.2-1.6-24.5-9.4c-0.8-1.2-1.3-2.8-1.5-4.3c-0.5-4.9,0.1-9.6,1.2-14.2c0-0.1,0.1-0.2,0.2-0.4c0.8,1,1.6,2,2.4,2.9
			c0.1,0,0.1-0.1,0.2-0.1c-0.6-1.2-1.3-2.3-1.9-3.6c-0.2-0.4-0.2-1,0-1.4c2.5-6.1,6.6-10.9,11.8-14.9c3.7-2.9,7.4-5.8,11.3-8.5
			c4.8-3.4,10.2-4.3,16.1-1.8c3.6,1.5,6.5,3.8,8.6,7c1.4,2.2,1.9,4.5,1.6,6.9c-0.6,4.6-2.3,8.8-3.8,13.1c-0.8,2.4-1.7,4.7-2.6,7.1
			c-0.2,0.4-0.7,0.7-1.1,0.9c-0.1,0.1-0.5-0.3-0.8-0.4C78.7,123.6,78.7,123.5,78.7,123.3z M61.9,101.3c2.9,2.7,6.2,4.6,10.8,3.8
			c-2-0.3-4-0.6-5.9-0.8c0-0.1,0.1-0.2,0.1-0.2c0.4-0.1,0.9-0.2,1.2-0.3C66.1,102.9,64,102.1,61.9,101.3z M53.3,135.9
			c2.9,1.7,6.4,1,9.3,2.8c-0.9-0.9-1.6-2-3.2-1.9c-1,0-2-0.2-3-0.4C55.4,136.3,54.4,136.1,53.3,135.9z"/>
	</g>
</g>
</svg>
