<?xml version="1.0" encoding="utf-8"?>
<!-- Generator: Adobe Illustrator 18.1.1, SVG Export Plug-In . SVG Version: 6.00 Build 0)  -->
<svg version="1.1" id="Layer_1" xmlns="http://www.w3.org/2000/svg" xmlns:xlink="http://www.w3.org/1999/xlink" x="0px" y="0px"
	 viewBox="0 0 150 150" enable-background="new 0 0 150 150" xml:space="preserve">
<path fill="#221000" d="M124.8,32.8c0.6,0,0.9,0,1.3,0c-0.2-3.5-2.5-5.4-5.4-6.6c-2-0.8-3.6,0.3-5,1.4c-0.3-1-0.4-2.2-0.9-3
	c-0.9-1.3-2.4-1.5-3.8-1c-2.2,0.6-4.2,0.4-6.1-0.9c-1.5-1-3.2-0.8-4.8-0.1c-1.4,0.6-2.2,1.7-2,3.6c-1.4-0.7-2.6-1.3-3.8-2
	c1.4-1.9,1.6-3.9,0.5-5.4c-0.9-1.4-2.3-1.5-4-0.8c0.5-0.9,1-1.5,1.3-2.2c1.2-2.3,1-4.4-1.3-5.3c-2.4-1-4.1-2.7-6.1-4.3
	C84,6,83.4,5.9,82.7,5.7c-2.2,1-4.3,1.9-6.8,1.8c-1.7-0.1-2.7,1.4-2.5,3.3c0.1,0.9,0.4,1.8,0.6,2.9c-2.4,0-4.1,0.9-4.7,3.4
	c0,0.2-0.3,0.4-0.5,0.4c-2.3,0.2-3.3,1.8-4,3.9c-1.9-2.2-4.1-2.2-6.4-0.9c-0.4,0.2-0.9,0.1-1.3,0.1c0-0.4-0.1-0.9,0-1.3
	c0.4-1.3,0.4-2.6-0.8-3.5c-1-0.8-3.5-1.1-4.3-0.4c-0.6,0.5-0.9,1.2-1.4,1.9c-0.9-0.4-1.1-1.1-0.9-2.1c0.2-0.8,0.4-1.5,0.6-2.3
	c0.3-1.4-0.2-2.2-1.6-2.7c-2.2-0.8-6.7,1.4-6.4,4.5c0.1,1.5-0.2,2.5-1.8,2.9c-0.7,0.2-1.2,1-1.7,1.5c-0.1,0.5-0.2,1-0.3,1.5
	c0.5,0.8,0.9,1.7,1.6,2.4c1.2,1.2,1.2,2.4,0.3,3.8c-0.9,1.4-1.8,2.9-2.3,4.4c-0.9,2.4,0.4,4.4,2.9,4.6c1.5,0.1,3.1-0.3,4.5-0.5
	c-0.8,2.1-0.6,3.7,0.8,4.9c1.7,1.5,3.8,1.7,6.2,0.5c-0.7,2.7-0.7,5.3,1.7,7.2c2.1,1.6,4,0.4,6-0.6c-0.2,3.2,0.2,3.3,5.4,2.4
	c-0.5,2.5-0.9,5-1.6,7.4c-1.6,5.4-1.8,10.7,0.6,15.9c0.4,1,1,1.8,1.7,2.9c-0.6-0.1-1-0.2-1.4-0.3c-8.3-1.6-17,1.1-21.5,9.9
	c-2,3.9-3.2,8.1-3.3,12.5c-0.2,8.4,2.3,15.8,8.4,21.7c1.6,1.6,3.3,3.1,5,4.6c3.7,3.3,5,7.4,4.4,12.3c-0.3,2.5-0.5,5-0.7,7.5
	c0.7-1,1.2-1.9,1.6-2.9c2-5.3,5.3-9.4,10.4-12.1c1.8-0.9,3.6-1.8,5.4-2.9c3.9-2.3,8.2-4.3,11.7-7.3c5.8-5,8.8-11.7,9.5-19.4
	c0.9-9.4-4.2-17-12.9-19.5c0.8-1.1,1.9-2.1,2.4-3.4c2.2-4.7,4.3-9.5,6.2-14.3c1.1-2.8,0.9-2.9,3.8-3.1c0.6,0,1.1-0.2,1.7-0.2
	c0.5,0,1,0.1,1.4,0.3c1.3,0.7,1.6,1.7,1.1,3.2c-0.7,2.1-0.2,3.1,1.6,3.5c2.2,0.6,2.4,0.8,2.6,3.1c0.2,2.6,2,3.7,4.6,3
	c0.8-0.2,1.7,0.2,2.6,0.3c0.8,0.1,1.7,0.4,2.3,0.1c2.1-1,2.8-2.9,2.1-5.2c1.4,0.1,2.4-0.4,3-1.8c0.5-1.3,0.3-2.5-0.6-3.6
	c-1.8-2.1-1.8-2.1,0.2-3.8c0.8-0.7,0.9-1.5,0.2-2.3c-0.4-0.5-1-0.8-1.5-1.2c0.1-0.8,0.5-1.7,0.2-2.3c-0.8-1.4-1.8-2.8-3-3.8
	c-1-0.9-2.5-1.2-3.9-1.8c-0.4-2.7-2.5-4.1-5-5.2c2.2,0,3.8-0.8,3.9-3.4c0.7,1.4,1.1,2.6,1.8,3.6c1.1,1.7,2.7,2,4.3,0.8
	c0.9-0.6,1.5-1.6,2.2-2.5c0.3,0.1,0.7,0.4,1.1,0.6c3,1.6,4.1,1,5-2.3c0.3-1.1,1-2.1,1.8-3C125.1,34.5,125.9,33.9,124.8,32.8z
	 M77.3,57.2c0.3,5.3-2.3,12.9-5.9,17.6C72.1,68.2,74.7,62.8,77.3,57.2z M67.4,54.5c0.9-1.8,3.4-2.3,4.9-1c0.6,0.5,1.2,0.9,1.9,1.5
	c-3.1,5.3-5.7,10.7-6.5,17.2C65.1,66.1,64.5,60.3,67.4,54.5z M61.4,127.9c-3.9-3.8-30.8-21.9-9.4-47.9c0.5-0.6,9.8-4.9,16.5,3.6
	s-0.7,11-2.6,12.8c-4.7,4.4-7.6,12.5-5.4,20S65.3,131.8,61.4,127.9z M78.9,74.8C82.4,68.7,85.7,62.8,89,57c0.2,0.1,0.3,0.2,0.5,0.3
	C86,63,84.4,69.8,78.9,74.8z M85.3,59.3c-1.6,2-3.1,4-4.7,6c0.1-3.2,0.2-6.1,0.3-9c0-1,0.7-1.2,1.5-1.1c1.4,0.1,2.5-0.3,3.3-1.5
	c0.2-0.2,0.5-0.4,0.9-0.5c1.1-0.2,2.1-0.4,3.4-0.6c0.1,0.1,0.3,0.5,0.4,0.8C88.6,55.4,87,57.3,85.3,59.3z"/>
</svg>
