<?xml version="1.0" encoding="utf-8"?>
<!-- Generator: Adobe Illustrator 18.1.1, SVG Export Plug-In . SVG Version: 6.00 Build 0)  -->
<svg version="1.1" id="Layer_1" xmlns="http://www.w3.org/2000/svg" xmlns:xlink="http://www.w3.org/1999/xlink" x="0px" y="0px"
	 viewBox="0 0 150 150" enable-background="new 0 0 150 150" xml:space="preserve">
<g>
	<path fill="#221000" d="M75.7,48.3c1.9-2,3.4-3.9,5.1-5.4c4.1-3.7,7.4-4.9,13.1-0.7c7.2,5.2,16.3,7.8,24.7,11.4
		c24.3,10.3,31.8,44.8,13.1,62.1c-3,2.8-8.3,3.9-12.6,4.1c-5.2,0.2-8.1-2.5-7.6-8.9c1.2-14.1,0.2-28.2-6.1-41.3c-2-4.2-5-8-8.4-11.3
		c3,11.9,6.1,23.8,8.8,35.8c1.1,5,1.1,10.2,1.5,15.4c0.5,6-0.6,11.1-6.9,13.9c-7.1,3.2-14.3,5.9-21.3,1c-2.3-1.6-4.1-5.7-4.2-8.7
		c-0.4-17.1-0.2-34.2-0.2-51.3c-0.9-0.1-1.9-0.2-2.8-0.2c-1,5.7-2.6,11.3-2.7,17c-0.3,12.2,0.3,24.4,0.4,36.5c0,1.6-0.3,4.1-1.4,4.7
		c-5.7,3.5-11.9,6.3-18.6,3.4c-6.6-2.8-11-6.6-12.2-15.2C34.9,90,37.5,71.7,54.8,56.1c-18.1,6.5-24.5,25.2-21.4,58.5
		c-6.3,2-10.7-1.1-14.5-5.4C5,93.3,7.5,71.4,25.2,58c5.5-4.2,12.1-6.8,18.4-10c3.3-1.7,7-2.8,10.3-4.5C66,37.3,66.4,37.3,75.7,48.3z
		"/>
	<path fill="#221000" d="M69.5,144c-0.2-3-0.3-5.9-0.5-8.9c-0.3-0.1-0.6-0.3-0.8-0.4c-1.6,2.6-3.1,5.2-5.4,8.9
		c0.6-3.7,0.9-6.1,1.3-8.5c-0.3-0.1-0.6-0.2-0.9-0.4c-1.3,1.7-2.5,3.4-4,5.5c-0.5-10.2,7.3-15.4,16.4-12.1c4.4,1.6,9.5,1.4,15.5,2.2
		c0.5,2.6,1.3,6.6,2.2,10.7c-0.6,0.3-1.2,0.5-1.8,0.8c-1.4-2.6-2.8-5.1-4.7-8.5c0,4.3,0,7.8,0,11.2c-0.5,0.1-1,0.3-1.4,0.4
		c-1-3.2-2.1-6.5-3.1-9.7c-0.4,0-0.7,0-1.1,0c-0.4,3.2-0.8,6.3-1.4,11c-1.8-4.5-3.1-7.9-4.4-11.4c-1.5,3.3-3,6.5-4.5,9.7
		C70.4,144.2,69.9,144.1,69.5,144z"/>
	<path fill="#221000" d="M75,3.3c7.2,0.5,9.6,3.1,9.5,9.3c-0.1,6.1,0.5,12.1,1.1,18.2c0.6,6.2-4.9,8.5-8.2,8.4c-3.6-0.2-9.5-4-10-7
		c-1.3-7.2-0.5-15,0.6-22.4C68.4,7.3,72.5,5.5,75,3.3z"/>
</g>
</svg>
