<?xml version="1.0" encoding="utf-8"?>
<!-- Generator: Adobe Illustrator 18.1.1, SVG Export Plug-In . SVG Version: 6.00 Build 0)  -->
<svg version="1.1" id="Layer_1" xmlns="http://www.w3.org/2000/svg" xmlns:xlink="http://www.w3.org/1999/xlink" x="0px" y="0px"
	 viewBox="0 0 150 150" enable-background="new 0 0 150 150" xml:space="preserve">
<g>
	<path fill="#221000" d="M61.1,140.6c-6.6,3.5-11.9,2.2-14.6-4c-2-4.5-3.8-9.4-4.3-14.3c-1.5-15.1-7.8-28.9-11.7-43.3
		c-1.9-6.7-2.9-13.8-3.3-20.7c-0.4-7,2.9-13,7.8-18c5.3-5.3,14.4-4.9,21.6,0.1c4.2,2.9,8.8,5.4,13.5,7.1c9.7,3.6,18.1,0.9,24.9-6.9
		c4.5-5.1,13.3-7.9,19.2-5.7c7.1,2.7,12.1,7.8,12.2,15.7c0.1,7.3-1.1,14.6-1.9,21.9c-1.8,17.1-3.4,34.2-5.8,51.3
		c-1.6,12-8.9,17.8-19.2,16.5c2.1-11,4.2-21.9,6.2-32.8c-0.4-0.1-0.8-0.2-1.2-0.3c-1.6,5.7-3.3,11.3-4.6,17
		c-1.6,6.9-4.3,13.1-10,17.5c-8.9,7-18.1,6-24.1-3.4c-4.1-6.4-6.6-13.7-9.7-20.7c-0.9-2.1-1.5-4.3-2.6-6.3
		C53.9,121.7,52.9,132.3,61.1,140.6z"/>
	<path fill="#221000" d="M62.4,39c7.7-6.9,9.9-15.4,9.9-25.1c0-2.9,1.4-6.2,3.1-8.6c1.1-1.6,4.1-2.8,6.1-2.6
		c1.1,0.1,2.2,3.4,2.5,5.5c0.3,1.6-0.5,3.3-0.9,5c-2.9,12.4-0.8,17.4,9.9,23.7C87.4,45.3,71.6,46.7,62.4,39z"/>
</g>
</svg>
