<?xml version="1.0" encoding="utf-8"?>
<!-- Generator: Adobe Illustrator 18.1.1, SVG Export Plug-In . SVG Version: 6.00 Build 0)  -->
<svg version="1.1" id="Layer_1" xmlns="http://www.w3.org/2000/svg" xmlns:xlink="http://www.w3.org/1999/xlink" x="0px" y="0px"
	 viewBox="0 0 150 150" enable-background="new 0 0 150 150" xml:space="preserve">
<g>
	<path fill="#221000" d="M40.5,83.8c-0.2-1.5-2.3-2.3-0.7-4.6c2.1-3.1,4.3-2.2,2.7-5.9c-1.7-3.9-3.8-7.6-5.6-11.5c-2.5-5.4-4-11-2.6-17
		c0.9-4,3.7-5.5,7.5-3.7c1.8,0.8,3.3,2.2,5,3.3c2.3,1.7,4.4,1.4,4.9-1.5c0.5-2.6,0-5.3-0.2-8c-0.1-1.6-1-3.3-0.8-4.9
		c0.3-3,1.1-5.9,2.3-8.9c2.3-1.9,7.4-1.8,7.9-1c1.7-2.1,3.1-4.1,4.9-5.9c3.6-3.6,7.2-7.3,11-10.6c1.7-1.5,3.9-2,5.9-0.3
		c1.5,1.4,1.1,4.8,0.5,7c-1.2,4.5-5,6.8-7.3,10.3c-1,1.4-1.9,2.9-2.5,4.5c-1.1,2.9,0.1,5.8,2.8,7.4c0.7,0.4,1.4,0.7,2.1,1
		c3.2,1.5,3.7,3.2,1.4,5.8c-2.1,2.5-4.6,4.7-7,7c-2.3,2.2-4.2,4.6-4.6,7.9c-0.3,2.4,0.5,4.1,2.9,4.9c0.1,0,0.2,0.1,0.2,0.1
		c8.4,2.8,7.1,7.1,2.1,11.6c-2.9,2.7-6.3,5-9.4,7.6c-2.3,2-4.5,4-6.6,6.3c-3,3.3-4.5,7.2-3.9,11.7c0.4,3.5-1.3,6.5-3.3,9.2
		c-6.1,8.4-10.9,17.4-14.2,27.2c0,0.1-0.3,0.2-0.9,0.6c1.8-4.7,3.5-9,4.9-13.3c1.6-5,2.9-10,4.5-15c2.2-7,4.3-14,6.8-20.8
		c0.6-1.6,2.3-3.1,3.9-4c2.7-1.7,5.3-3.2,7.2-6c1.5-2.1,3.5-3.8,5.1-6c-4.7,4.1-9.3,8.1-14,12.2c-0.2-0.2-0.5-0.3-0.7-0.5
		c0.5-1.8,1.1-3.6,1.6-5.4c2.4-7.6,4.9-15.2,7.3-22.9c1.6-5.3,5.2-9,9.8-11.7c0.8-0.5,1.6-0.9,2.2-1.6c-4.3,1.1-7.6,3.7-10.5,7.9
		c0.6-3.5,1.1-6.3,1.6-9.1c-0.1,0-0.3-0.1-0.4-0.1c-0.3,0.5-0.5,1-1,2c-1.9-3.7-3.7-7.1-5.6-10.8c0.1,1,0,1.9,0.4,2.7
		c1.1,2.4,2.3,4.7,3.6,7c1.1,2.1,1.6,4,0.8,6.4c-3.3,10-6.5,20-10.1,30c-0.5-7.1-4.9-12.2-8.3-17.9c0.4,1,0.7,1.9,1.1,2.9
		c0.4,1,0.9,1.9,1.4,2.8c0.5,1,1.1,2,1.7,3c2.4,4.3,3.7,8.9,2.4,13.8c-1,3.8-2.6,7.4-3.9,11.1c-0.4,1.1-9.4,33.3-9.9,34.9
		c-1.8-3.6,5.2-37.9,3.6-41C40.5,83.9,40.5,83.9,40.5,83.8z"/>
	<g>
		<path fill="#221000" d="M114.8,44C114.8,44,114.8,44,114.8,44C114.8,44,114.8,44,114.8,44L114.8,44z"/>
		<path fill="#221000" d="M120.4,68.4c2.9-1.6,5.9-3,8.5-5c1.1-0.9,2.2-3.1,1.8-4.3c-0.4-1.4-2.3-2.6-3.8-3.3c-1.3-0.7-3-0.7-4.5-1.1
			c-1.9-0.5-2.6-1.8-1.3-3.3c2-2.2,4.2-4.4,6.6-6.1c3.4-2.5,7.3-4.4,10.7-7c1.4-1.1,2.6-2.9,3.2-4.6c0.8-2.1-0.5-3.1-2.7-2.4
			c-1.1,0.3-2.1,0.8-3.2,1.2c-4,1.3-6.4-0.4-6.2-4.6c0.1-2.6,0.5-5.2,1-7.7c0.6-3.1,0.5-6.1-0.9-8.9c-2-4.4-5.5-5.4-9.6-2.8
			c-4.6,2.9-6.7,7.5-8.2,12.6c-1.7,5.4-3.5,10.7-5.8,15.9c-1.7,4-4.3,4.7-8.4,3.3c-0.6-0.2-1.1-0.4-1.7-0.6
			c-3.7-1.3-5.3-0.3-4.5,3.4c0.7,3.2,2.6,6.2,3.8,9.3c0.8,1.9,1.8,3.8,2.2,5.8c0.9,5.5-4.3,10.6-9.6,9.7c-4.1-0.7-6.7,1.6-6.1,5.7
			c0.4,2.8,1.4,5.6,2,8.4c0.9,4.5-1.3,7.6-5.8,8.1c-2.3,0.2-4.7-0.2-7-0.6c-4.5-0.9-6.4-0.2-8,4.1c-1.2,3.3-2.1,6.8-2.7,10.3
			c-1.3,7.1-4.3,13-10,17.8c-7,5.9-13.6,12.2-20.3,18.4c-0.7,0.7-1.3,1.6-1.9,2.4c1.4-0.3,2.4-1,3.3-1.8
			C45.2,129,58.8,117.4,72.4,106c6-5,12.4-9.7,16.2-16.8c0.7-1.2,1.3-2.8,1.1-4.1c-0.2-2.5-1-4.9-1.6-7.4c0.3-0.1,0.5-0.2,0.8-0.2
			c0.9,2.4,1.8,4.7,2.6,6.9c2.6-5.2,5.5-10.9,8.2-16.7c1.8-3.9,2.8-6.5,4.5-10.5c-2.3-2.5-5.9-9.2-5.8-9.3c1.7,1.7,6,7,6.4,7.9
			c0.7-0.4,1.6-0.7,2-1.3c4.1-7,8.2-14,11.8-20.4c-0.9,2.3-1.8,5.2-3.1,8.1l0,0c5-1.9,8.8-3.8,14.8-4.9c0.3,0,1.9-0.1,2,0.1
			c-4.9,1.8-12.3,4.6-17.3,6.5l0,0l0,0c-0.1,0-0.2,0.1-0.3,0.1c0,0,0,0,0,0c-0.1,0.1-0.1,0.2-0.1,0.3c-4.8,8.7-9.9,17.3-15,26
			c1.2,0.4,3.4-1.3,4.2-1.6c4.3-1.7,13.3-4.2,13.4-3.9c-2.4,0.8-4.9,1.4-7.2,2.4c-2.8,1.2-5.4,2.6-8.1,3.9c-1.1,1.1-2.6,2.1-3.3,3.4
			c-1.8,3.1-3.1,6.5-4.8,9.6c-4.1,7.5-8.5,14.8-15.7,19.9c-1.7,1.2-3.3,2.6-5.2,4.2c6.5-0.8,12.5-1.5,18.5-2.2
			c0,0.2,0.1,0.5,0.1,0.7c-3,0.4-6,1-9,1.2c-6.7,0.3-12.9,1.6-17.8,6.9c-1.1,1.2-2.5,2.1-3.8,3.2c-4.1,3.4-8.2,6.9-12.9,10.9
			c3.5-0.1,6.2-0.1,9-0.2c0,0.2,0,0.5,0,0.7c-2,0.1-4.1,0.3-6.1,0.2c-2.6-0.1-4.6,0.5-6.6,2.3c-4.1,3.7-8.5,7.2-12.8,10.8
			c-1.2,1-2.3,2-3.4,3c0.1,0.2,0.3,0.3,0.4,0.5c1-0.7,2-1.3,2.9-2c3.2-2.5,6-5.9,9.6-7.4c6.1-2.6,12.8-4,19.2-5.8
			c2.4-0.7,5-0.9,7.3-1.8c2.5-1,2.7-3.1,0.6-4.9c-1-0.8-2.2-1.5-3.2-2.2c-1.9-1.4-2-2.6,0-3.8c2.3-1.5,4.8-2.9,7.5-3.6
			c5.8-1.8,11.8-3.1,17.7-4.7c4.9-1.3,9.7-2.9,13.6-6.3c3.3-2.9,3.3-6.3-0.1-9.1c-0.9-0.8-2-1.4-2.9-2.2c-2.1-1.6-2.7-3.7-1.4-6
			c1.1-1.9,2.3-3.7,3.7-5.3C107.8,75.6,114.1,72,120.4,68.4z"/>
	</g>
</g>
</svg>
