<?xml version="1.0" encoding="utf-8"?>
<!-- Generator: Adobe Illustrator 18.1.1, SVG Export Plug-In . SVG Version: 6.00 Build 0)  -->
<svg version="1.1" id="Layer_1" xmlns="http://www.w3.org/2000/svg" xmlns:xlink="http://www.w3.org/1999/xlink" x="0px" y="0px"
	 viewBox="0 0 150 150" enable-background="new 0 0 150 150" xml:space="preserve">
<g>
	<path fill="#221000" d="M35.1,42.5c-0.8,1.9,0.2,2.2,0.9,2.2c-0.1,0.1-0.1,0.1-0.2,0.2c2.2,0.9,3.2,2.8,3.2,6
		c0.1,4.3,3.7,6.9,9.1,6.4c7.2-0.6,6.9-0.6,8.4,5.7c0.4,1.9,3.4,3.2,6,5.5c0.2,2,0.5,3.1,1.8,3.5c0.5-0.3,3.1,0.1,4.9-0.2
		c4.1-0.7,6.5,2.9,6.5,2.9c0.4,0.8,3,0.8,4.1,0.8c1.8-0.1,3.1-0.6,4.1-1.4c0-0.5-0.1-0.8-0.1-0.8c0.3,0.1,0.5,0.2,0.7,0.3
		c2-1.9,0.5-5.2,2.2-7.3c0.4-0.5,2.6-1.2,2.2-1.8c-2.4-4.1,0.8-4,3.5-4c5.5-0.1,5.9-0.4,6.1-5.4c0-0.1,0-0.3,0-0.4
		c0.3-8.7,2.1-9.8,10.8-6.5c4.1,1.5,4.8,1.8,6-0.1c-0.1-0.3-0.2-0.5-0.2-0.5c3.5-4.7-1.9-3.6-1.9-3.6c0.8-1.9-0.2-2.2-0.9-2.2
		c4.6-4.3-0.4-8.6-0.4-8.6c2.1-5.9-5.3-3.9-5.3-3.9c1.5-3-2.4-4.6-2.4-4.6c-1.2-3.7-5,0-5,0c-1.5-3.2-5.2-2.2-5.2-2.2
		c1.4-5.6-1.9-3.5-1.9-3.5c1.2-7.7-5.3-3-6.4-4.2c-1.1-1.2-2.6,0.5-2.6,0.5c0.5-3.1-2.7-2.3-2.7-2.3c-2.4-6.6-7.8-1.1-7.8-1.1
		c-1.7-3.3-5.3-1.6-5.3-1.6c-3.6-1.2-2.9,3-2.9,3c-2.2-1.2-3.4,1.4-3.4,1.4c-1.9-2-4.7,1.2-4.7,1.2c-3.9-3.2-6.2,2.5-6.2,2.5
		c-3.5,1.5-1.3,5.3-1.3,5.3c-3.2,0.1-3,4.1-3,4.1c-5.3-3.8-4.9,0.3-4.9,0.3c-1.5-0.6-1.3,2.1-1.3,2.1c-2.5-0.5-3.8,2.3-3.8,2.3
		c-6.3,0.4-2.7,6.5-2.7,6.5C29.7,43.6,35.1,42.5,35.1,42.5z"/>
	<path fill="#221000" d="M142.9,40.2c-0.5-1.3-2-3-3.1-3.1c-1.4,0-3.5,1.1-4.1,2.3c-1.3,3-3.7,3.3-6.2,4.3c-3.3,1.4-7.2,3.4-8.8,6.4
		c-3,5.4-2.3,5.8-8.3,3.1c-9.4-4.2-11.5-3-12.1,7.3c0,0.2,0,0.3,0,0.5c-0.4,6-0.8,6.3-6.9,6.2c-2.9,0-6.5-0.3-4,4.6
		c0.4,0.7,0.5,2.2,0.1,2.7c-3,3.8-3.9,9.8-10.5,10c-3,0.1-4.6,2-4.1,5.2c0.4,2.3,0,3.8-1,4.8c-4-2.4-2.6-6.3-1.8-9.8
		c0.9-4,0-5.6-4.5-4.9c-6.1,0.9-6.9,0.1-7.1-4.1c-2.8-2.9-5.9-4.6-6.3-6.8c-1.4-7.5-1-7.6-9-7.1c-5.9,0.4-9.7-2.8-9.7-7.9
		c0.1-5.4-2.2-7.8-7.5-8.2c-1.5-0.1-3.8-0.1-4.5-1C20.3,40.2,17,36,11.9,33.4c-1.1-0.6-2.2-2.5-2.9-2.3c-1.1,0.3-2.3,1.7-2.8,2.9
		c-2.4,5.8-1,11.5,0.2,17.4c1.6,7.9,3.6,15.9,3.7,23.9c0.2,16,1.6,31.5,9.7,45.8c7.7,13.5,19,21.4,34.6,22.6
		c-5.5-2.8-11.2-5-16.8-7.7c-5.9-2.8-10.1-7.5-13.9-13.9c2.3,1.1,3.7,1.8,5.1,2.5c-2.5-5.2-5.4-9.7-8.6-14
		c-5.8-7.6-7.4-16.2-6.3-25.6c1.4,4.7,2.7,9.4,4.1,14.1c0.2-0.1,0.3-0.2,0.5-0.3c-0.1-12.1-0.2-24.1-0.3-36.2c0.5,0,0.9-0.1,1.4-0.1
		c0.7,7,1.3,14,2,21c0.7,7,1.5,14.1,2.3,21.1c0.8,0,1.5-0.1,2.3-0.1c0.4-9.5,0.9-19.1,1.3-28.6c1.4,5.1,2.4,10.3,2.8,15.5
		c0.7,8.2,0.7,16.6,1.8,24.7c0.5,3.8,2.8,7.4,4.5,11.5c2.1-12,4.1-22.9,6-33.8c0.7,0.1,1.4,0.2,2,0.3c-0.6,7.1-1.5,14.1-1.9,21.2
		c-0.2,4.4-0.2,8.9,0.4,13.2c0.5,3.6,3.2,6,6,6.9c0.5-6.9,0.9-13.8,1.4-20.6c0.4,0,0.9,0,1.3-0.1c2.7,10-1.4,23.3,13.1,28
		c-0.1-1-0.1-2-0.2-3.4c1.4,0.9,2.7,1.8,4.2,2.3c9,3.4,20.9,2.3,22.3-11.1c0.4-3.9,1-7.7,1.8-13c2.6,8.5,0.8,15.3-2,22.6
		c7.4-2,12-5.9,13.5-12.5c1.1-4.9,1.4-10.1,1.7-15.2c0.4-5.9,0.4-11.9,0.6-17.9c0.5,0,1.1,0,1.6,0c0.4,9.4,0.8,18.8,1.2,28.8
		c6.6-11.5,11.7-22.7,10.2-36c0.7,2.2,1.4,4.3,2.3,7.5c2.1-5.3,3.8-9.5,5.5-13.7c0.2,0.1,0.4,0.2,0.6,0.2c-1,5.7-2,11.4-3,17.1
		c0.2,0.1,0.4,0.1,0.6,0.2c1-1.8,2.1-3.7,3.1-5.5c0.3,0.1,0.6,0.3,0.9,0.4c-3.3,7.1-6.6,14.2-9.8,21.2c0.3,0.1,0.5,0.3,0.8,0.4
		c1.6-2,3.2-4.1,4.8-6.1c0.4,0.3,0.9,0.6,1.3,1c-5.6,8.7-11.3,17.4-17.3,26.8c1.2-1,2-1.6,2.7-2.2c12.3-10.7,16.2-25.3,18.3-40.5
		c1.7-12.4,4.1-24.5,10.1-35.7C143.5,52.6,145.3,46.6,142.9,40.2z"/>
</g>
</svg>
