<?xml version="1.0" encoding="utf-8"?>
<!-- Generator: Adobe Illustrator 18.1.1, SVG Export Plug-In . SVG Version: 6.00 Build 0)  -->
<svg version="1.1" id="Layer_1" xmlns="http://www.w3.org/2000/svg" xmlns:xlink="http://www.w3.org/1999/xlink" x="0px" y="0px"
	 viewBox="0 0 150 150" enable-background="new 0 0 150 150" xml:space="preserve">
<g>
	<g>
		<path d="M61.7,10.1c2.5-0.7,3.8,5.5,5.2,7c1.4,1.6,4.2,6.1,4.2,7.5c-0.1,1.5,0.2,2.9-1.8,3.2c-2.1,0.3-10.6,2.7-13.5-1
			C52.7,23.2,45.3,14.6,61.7,10.1z"/>
		<path d="M83,4.5c-0.2,1.1-0.5,2.7-1,3.6c-0.9,1.5-4.4,5.6-5.3,6.7c-0.9,1.1-1.6,6.2-1.6,6.2s-0.3-0.3,0-4s3.3-6.7,4.4-8.2
			c0.8-1.1,1.8-3.8,2.2-5C77.4,1.2,74.2,5,70.6,8.3c-3.8,3.5,1.5,18.2,1.5,18.2c6.7,0.9,10.2-3,10.4-4.9c0.2-1.8,5.7-5.4,7.2-9.7
			C91.3,7.5,85,5.1,83,4.5z"/>
		<path d="M80.6,32.3c-0.5-0.2-4.2-2.3-5.5-3.4s-2.6-0.3-2.8-0.5c-0.5-0.7-1.1-0.4-2.1-0.2c-1,0.3-6.3,5.7-6.3,5.7s-1.8,1.2,0,5.5
			c1.5,3.6,6.5,1.9,8,1.2c0.2-0.6,0.4-1.6,0.5-3.1c0.4-4.8,0.7,2.2,0.7,2.2s0,0.7,0.1,1.4c4,2.3,7.7-1.1,9.3-3.9
			C84.4,34.2,81.1,32.4,80.6,32.3z"/>
	</g>
	<path d="M68.3,43.7c0,0-4.4,21.8-10,32.9s-26.3,62.5-26.6,68c-0.4,5.5,5.2,0,5.2,0s5.9-24.8,9.2-30.7c3.3-5.9,13.3-28.5,16.6-35.5
		c4.3-9.1,9.8-31.2,10.5-34.6C74,40.6,68.3,43.7,68.3,43.7z"/>
	<path d="M45.3,110c0,0,13.6-14.7,16.2-19.3c2.7-4.6,9.8-21.8,13.8-25.5c4-3.7,17.4-11.9,19.3-11.6c1.8,0.3,3.6,2.2,0.3,3.3
		C91.7,58,80.8,60,74.2,75.1s-9.5,16.7-12.4,21.3c-2.9,4.6-14.3,17.8-16.1,18.2C44,115,44.1,111.2,45.3,110z"/>
	<g>
		<path d="M97.8,43.6c-1.3-3.1-5.4-4.7-5.9-6.1c-0.5-1.5-0.5-3.7-1.6-4.4s-7,1.5-7,5.3c0,3.8,1.1,4.1,1.1,4.1s-1.2,1.5-0.4,3.4
			s0.6,6.1,4.5,7.3S102,53.5,97.8,43.6z"/>
		<path d="M121.5,23.2c-0.6-1.1-1.4-1.2-2-1c-0.7,2.2-2.9,4.5-2.9,4.5s-1.8,0.8,0-0.9c1-1,1.3-2.9,1.5-4.3c-0.6-1-1.6-2.3-2.8-3.3
			c-2-1.7-10.9,2-15.5,8c-4.5,6,0.5,19.3,1.7,20.2c4.5,3.2,15.7-5,20-7.7C125.8,35.8,122.8,25.5,121.5,23.2z"/>
		<path d="M103.4,50.2c0,0,4.5,4.4,8.9,7.8c2.7,2.1,5.1,3.1,6.4,3.6c8.9-1.1,6.7-9.7,3.1-12.1c-3.6-2.5-20.8-1.4-20.8-1.4
			c-3.4,2.4-0.2,14.9,2.6,18.3c2,2.4,9.2-0.7,12.3-1.2c1.9-0.3,2.4-1.5,2.6-2.5C109.7,59.3,103.4,50.2,103.4,50.2z"/>
	</g>
</g>
</svg>
