<?xml version="1.0" encoding="utf-8"?>
<!-- Generator: Adobe Illustrator 18.1.1, SVG Export Plug-In . SVG Version: 6.00 Build 0)  -->
<svg version="1.1" id="Layer_1" xmlns="http://www.w3.org/2000/svg" xmlns:xlink="http://www.w3.org/1999/xlink" x="0px" y="0px"
	 viewBox="0 0 150 150" enable-background="new 0 0 150 150" xml:space="preserve">
<g>
	<path fill="#221000" d="M107.3,103.3c-0.9-12,0.7-23.4,7.8-33.7c1.6-2.2,3.2-4.4,4.4-6.9c-14.6,7.9-14.3,22.9-18.4,36.2
		c-0.6-3.4-1.4-6.8-1.8-10.2c-0.4-3.4-0.5-6.8-1.1-10.1c-2.8,7.1-2.6,17.4,0,25.2c4.1,12.1,1.3,23.4-5.3,33.8
		c-5,8-10.3,9.5-20.7,7.3c2-6.2,4-12.4,6.1-18.5c2.5-7.2,3.8-14-1.8-20.6c-1.1-1.4-0.1-5,0.7-7.3c0.7-2.1,2.6-3.7,3.8-5.6
		c2.9-4.8,2.1-7.1-2.7-10.2c-1.9-1.2-4.9-3.9-4.5-5c0.9-2.7,3-5.7,5.5-7.1c6.7-3.8,7.6-4.7,6.7-12.1c-0.7-6.1,0.7-8.5,6.8-9.5
		c6.8-1.1,13.9-1.1,18.2-7.9c0.5-0.8,2.9-0.4,4.4-0.4c3.5-0.1,6.9-0.3,10.4-0.3c3,0,8.2-0.8,8.6,0.3c1.4,3.4,1.7,7.6,1.1,11.3
		c-0.4,2.4-2.7,5-4.8,6.7c-12.3,9.8-19.3,22-19.5,37.8c0,1.5-0.9,2.9-1.4,4.4C108.9,101.6,108.1,102.5,107.3,103.3z"/>
	<path fill="#221000" d="M67.8,142.7c-16.3-18-11.6-40.5-15.6-60.9c-0.4,0.1-0.9,0.2-1.3,0.3c-0.1,1.4-0.3,2.9-0.5,5.5
		C45.5,75.7,38.9,66.8,26.7,61c1.2,1.7,1.6,2.7,2.3,3.2c12.5,9.1,16.3,22.7,19.6,36.6c1.8,7.6,2.9,15.4,5.4,22.8
		c2.4,7,6.1,13.5,9.3,20.4c-5,0.2-7.6-3.6-9-7.9c-2.2-7.1-3.5-14.5-5.4-21.7c-2.3-8.9-4.1-18-7.5-26.6c-2.1-5.2-6.6-9.7-10.4-14.1
		c-4.6-5.3-10.2-9.8-14.3-15.4c-4.6-6.4-3.3-12.8,2.4-17.7c4.6-4,9-4,12,1.2c2.5,4.3,5.2,4.3,9.1,2.6c4.4-1.9,8.4-2.7,11.4,2.6
		c0.7,1.2,3.4,1.7,5.2,1.8c6.3,0.6,7.4,1.5,7.4,7.6c0,2.9-0.4,5.8-0.6,9.1c2,0.4,3.7,0.4,5.3,1c3,1.2,5.5,2.5,3,6.5
		c-2.3,3.6-1.2,6.9,2.1,9.7c4.3,3.7,4.2,6.4,0.2,10.2c-1.1,1.1-2.1,2.3-3.2,3.4c-3.3,3.1-2.9,6.2,0,9.1c3.1,3.1,3.4,6.4,2.6,10.5
		c-0.7,3.7-1.3,7.8-0.1,11.2C75.6,133.9,72.3,137.9,67.8,142.7z"/>
	<path fill="#221000" d="M69.8,27.8c1.2,5.2,3.5,8.9,10.1,8.4c3.6-0.3,6.6,5.6,4.7,9.9c-1.7,3.9-2.4,7.2-1.2,11.4
		c1.4,5.1-1,9.1-6.7,10.6c-0.3-0.3-0.5-0.8-1-1.1c-6.7-3.5-9.7-8.5-8.8-16.2c0.1-1.2-4.1-2.9-6.4-4.2c-2.8-1.5-5.8-2.7-8.6-4.1
		c-0.9-0.5-1.7-1.7-2.6-1.8c-6.2-0.5-6.9-5.4-8.3-9.8c-1-3.2-2.3-7.4,1.5-8.7c3.2-1.1,8.7-0.7,10.7,1.3c3.4,3.4,6.4,4,10.7,3.3
		c1.9-0.3,4.1,0.7,6.1,1.1L69.8,27.8z"/>
	<path fill="#221000" d="M109.5,38.2c-5.1,7.8-14.5,7.6-22.6,9.9c-0.7-3.4-0.5-7.5-2.3-10.4c-1.6-2.7-5.4-4.2-8.9-6.7
		c1.3-4.5,1.3-11.1,9.9-12.4c1.4-0.2,2.8-2.8,3.5-4.6c1.3-3.2,2.5-6.3,6.8-6.1c4.1,0.2,4.2,3.4,5.1,6.2c0.7,2,2,4.4,3.7,5.4
		c4.4,2.6,5.1,6.3,4.8,10.7C109.4,32.7,109.5,35.2,109.5,38.2z"/>
	<path fill="#221000" d="M70,27.9c-2.3-1.3-4.5-2.8-6.9-4c-1.5-0.7-4.6-1.2-4.5-1.5c0.3-2.5,0.5-6.5,2-7.1c5.8-2.4,9.4-5.8,8.6-12.2
		C77,2.6,83.7,9.1,84,17.3c-7.4,0.2-8.6,6.5-11.3,11.6c-1-0.4-2-0.8-3-1.2C69.8,27.8,70,27.9,70,27.9z"/>
</g>
</svg>
