<?xml version="1.0" encoding="utf-8"?>
<!-- Generator: Adobe Illustrator 18.1.1, SVG Export Plug-In . SVG Version: 6.00 Build 0)  -->
<svg version="1.1" id="Layer_1" xmlns="http://www.w3.org/2000/svg" xmlns:xlink="http://www.w3.org/1999/xlink" x="0px" y="0px"
	 viewBox="0 0 150 150" enable-background="new 0 0 150 150" xml:space="preserve">
<g>
	<path fill="#221000" d="M107.4,32.4c0.3,7.7,1.5,15.1,0.7,22.2c-2,17.8-4.8,35.5-7.4,53.2c-0.8,5.3-1.7,10.6-3.1,15.8c-3.5,12.5-7.1,15-21.3,15.2
		C88.5,103.9,90.9,66.7,107.4,32.4z M99.5,98.2c-0.5-0.1-1-0.2-1.4-0.3c-1.5,7.6-3.1,15.3-4.6,22.9c0.5,0.1,1.1,0.2,1.6,0.3
		C96.5,113.5,98,105.8,99.5,98.2z"/>
	<path fill="#221000" d="M72.1,138.8c-10.7-0.4-16.8-5-19.1-16.8c-3.4-17.7-5.6-35.7-9.1-53.4c-2.6-13.1-1.1-25.5,2.9-39.1c0.7,2.5,1.2,3.8,1.5,5.2
		c5.1,26.5,9.8,53,15.3,79.4C65.3,122.6,69.2,130.6,72.1,138.8z M53,97.3c1.4,11.6,1.9,23.4,9.3,34.7C59,119.6,56,108.4,53,97.3z"/>
	<path fill="#221000" d="M94.9,56.7c-2.1-9.8-4.7-19.4,2.5-29.5C97.9,37.6,102,47.3,94.9,56.7z"/>
	<path fill="#221000" d="M64.1,140.1c7.6,0,15,0,22.4,0C82.2,146.2,68.7,146.1,64.1,140.1z"/>
	<path fill="#221000" d="M53.9,40.9c7,6,2.2,13.9,3.3,20.9c-0.6,0.1-1.1,0.2-1.7,0.3c-1.2-7-2.3-13.9-3.5-20.9C52.7,41.1,53.3,41,53.9,40.9z"/>
	<path fill="#221000" d="M95.5,23.8l-1.4-2.3c-0.7-1.1-1.6-1.6-2.1-1.1c0-0.7-0.3-1.5-0.9-2.2l-1.6-2.1c-0.8-1-1.7-1.3-2.1-0.8c0,0-0.1-0.1-0.1-0.1
		l0.1-0.2c0.2-0.7-0.4-1.9-1.4-2.7l-2-1.5c-0.9-0.7-1.9-0.8-2.2-0.2c-0.2-0.1-0.5-0.3-0.7-0.4l0-0.4c0-0.8-1-1.7-2.2-2L76.4,7
		c-1.1-0.3-1.9,0-2.1,0.6c-0.7-0.1-1.5-0.2-2.2-0.2c-0.7,0-1.4,0.1-2,0.2l0,0c-0.2-0.8-1.3-1-2.5-0.4l-2.5,1.1
		c-1.2,0.5-2.1,1.6-2,2.4l0.1,0.3c-0.2,0.2-0.5,0.4-0.7,0.6C62,11,61,11.2,60.1,12.1L58.2,14c-1,0.9-1.4,2.3-1,2.9l0.1,0.2
		c0,0-0.1,0.1-0.1,0.1c-0.6-0.4-1.5,0.1-2.2,1.2l-1.4,2.3c-0.5,0.8-0.7,1.7-0.5,2.4c-0.6-0.4-1.5,0.3-2,1.5L50,27.1
		c-0.5,1.1-0.4,2.4,0.1,2.9c-0.5,1.2-0.8,1.9-0.8,1.9s5.2,5.4,8,10.1c2.8,4.7,3.9,7.9,2.1,13.6c-1.3,4.3-2.1,11.6-2.1,11.6
		l14.8,66.8l3.2,1.8l6.6-27l10.4-46.6c0,0-1.1-17.1-1.8-20.7c-0.6-2.8,3-10.8,4.3-13.8c0.2,0,0.4,0,0.6-0.2l0.5-0.5
		C96.4,26.4,96.2,25,95.5,23.8z M76,13.3l1-0.3c1-0.3,2.1,0.2,2.4,1.2l0.7,2c0.3,1-0.2,2.1-1.2,2.4l-1,0.3c-1,0.3-2.1-0.2-2.4-1.2
		l-0.7-2C74.5,14.7,75,13.6,76,13.3z M70.5,11.7c0-0.7,0.7-1.3,1.4-1.3l0.5,0c0.7,0,1.3,0.7,1.3,1.4l-0.1,1.3c0,0.7-0.7,1.3-1.4,1.3
		l-0.5,0c-0.7,0-1.3-0.7-1.3-1.4L70.5,11.7z M70.5,17.1c0-0.7,0.7-1.3,1.4-1.3l0.5,0c0.7,0,1.3,0.7,1.3,1.4l-0.1,1.3
		c0,0.7-0.7,1.3-1.4,1.3l-0.5,0c-0.7,0-1.3-0.7-1.3-1.4L70.5,17.1z M59.7,23.2l0.4-2c0.2-1,1.2-1.7,2.2-1.5l1,0.2
		c1,0.2,1.7,1.2,1.5,2.2l-0.4,2c-0.2,1-1.2,1.7-2.2,1.5l-1-0.2C60.2,25.2,59.5,24.3,59.7,23.2z M69.1,15.3l-0.3,2
		c-0.2,1-1.1,1.7-2.2,1.6l-1-0.2c-1-0.2-1.7-1.1-1.6-2.2l0.3-2c0.2-1,1.1-1.7,2.2-1.6l1,0.2C68.6,13.3,69.3,14.2,69.1,15.3z
		 M62.3,29c0.1-1.2,1.1-2,2.3-1.9l1.1,0.1c1.2,0.1,2,1.1,1.9,2.3l-0.2,2.3c-0.1,1.2-1.1,2-2.3,1.9L64,33.6c-1.2-0.1-2-1.1-1.9-2.3
		L62.3,29z M66.6,24.8l0.2-2.1c0.1-1,1-1.8,2.1-1.7l1,0.1c1,0.1,1.8,1,1.7,2.1l-0.2,2.1c-0.1,1-1,1.8-2.1,1.7l-1-0.1
		C67.3,26.7,66.5,25.8,66.6,24.8z M56.5,32.1l-1.1-0.2c-1.1-0.3-1.9-1.4-1.6-2.5l0.5-2.3c0.3-1.1,1.4-1.9,2.5-1.6l1.1,0.2
		c1.1,0.3,1.9,1.4,1.6,2.5l-0.5,2.3C58.8,31.7,57.7,32.4,56.5,32.1z M57.8,38.1l0.2-1.4c0.1-1.2,1.1-2,2.3-1.9l1.1,0.1
		c1.2,0.1,2,1.1,1.9,2.3l-0.2,2.3c-0.1,1.2-1.1,2-2.3,1.9C60.9,41.4,57.7,39.3,57.8,38.1z M64,68.5c0,1.2,0,1.5-1.2,1.5h-1.1
		c-1.2,0-1.8-0.8-1.8-1.9L59.5,66c0-1.2,1-2,2.1-2h1.1c1.2,0,1.2,0.9,1.2,2.1V68.5z M68,47.6c0,1.2-1.3,2.4-2.5,2.4h-1.1
		c-1.2,0-1.8-1.2-1.8-2.4l-0.3-2.3c0-1.2,1-2.3,2.1-2.3h1.1c1.2,0,2.5,1,2.5,2.2V47.6z M72,39.8c0,1.2-1.3,2.2-2.5,2.2h-1.1
		c-1.2,0-1.3-1-1.3-2.2v-2.3c0-1.2,0.2-1.5,1.3-1.5h1.1c1.2,0,2.5,0.3,2.5,1.5V39.8z M75,32.6c0,1.2-0.5,3.4-1.7,3.4h-1.1
		C71,36,70,33.8,70,32.6v-2.3c0-1.2,1-3.3,2.2-3.3h1.1c1.2,0,1.7,2.1,1.7,3.3V32.6z M75.6,26.9c-1,0.1-1.9-0.7-2-1.8l-0.1-2.1
		c-0.1-1,0.7-1.9,1.8-2l1-0.1c1-0.1,1.9,0.7,2,1.8l0.1,2.1c0.1,1-0.7,1.9-1.8,2L75.6,26.9z M81.5,33.9L80.4,34
		c-1.2,0.1-2.2-0.8-2.3-1.9l-0.2-2.3c-0.1-1.2,0.8-2.2,1.9-2.3l1.1-0.1c1.2-0.1,2.2,0.8,2.3,1.9l0.2,2.3
		C83.5,32.7,82.7,33.8,81.5,33.9z M83.6,25l-1,0.1c-1,0.1-2-0.6-2.1-1.6l-0.3-2.1c-0.1-1,0.6-2,1.6-2.1l1-0.1c1-0.1,2,0.6,2.1,1.6
		l0.3,2.1C85.4,23.9,84.6,24.9,83.6,25z"/>
</g>
</svg>
