<?xml version="1.0" encoding="utf-8"?>
<!-- Generator: Adobe Illustrator 18.1.1, SVG Export Plug-In . SVG Version: 6.00 Build 0)  -->
<svg version="1.1" id="Layer_1" xmlns="http://www.w3.org/2000/svg" xmlns:xlink="http://www.w3.org/1999/xlink" x="0px" y="0px"
	 viewBox="0 0 150 150" enable-background="new 0 0 150 150" xml:space="preserve">
<g>
	<path fill="#336699" d="M84.1,57.8c3.7-3.3,5.9-7.9,10.9-10c-0.6,1.9-0.9,3.6-1.7,5c-5.8,9.7-8.7,20.7-12.7,31.1
		c-7.2,18.6-15.6,36.8-24.4,54.7c-1.2,2.5-2.5,5-3.7,7.6c-3.9-1.7-7.5-3.2-11.2-4.9c0.3-0.8,0.6-1.4,0.9-2.1
		c6.6-15.2,13-30.5,19.7-45.6c5-11.3,10.7-22.4,15.6-33.8c1.9-4.4,2.6-9.3,3.8-14c0.2-0.6,0.6-1.1,0.9-1.7c0.3,0.5,0.9,1.1,1,1.7
		c0.4,3,0.6,6,0.9,9C84.1,55.7,84,56.6,84.1,57.8z"/>
	<path fill="#336699" d="M74.2,23.3c3,4.4,1,9.2,0.8,14.4c3.7-3,5.8-7.4,10.4-9.6c-0.4,1.2-0.5,2.1-1,2.7
		c-5.1,6.7-7.4,14.4-9.8,22.4c-2,6.7-5.1,13.1-7.9,19.5c-3.2,7.4-6.7,14.7-10,22c-4.4,9.8-8.8,19.7-13.2,29.5
		c-0.2,0.4-0.4,0.8-0.7,1.3c-3.2-1.4-6.4-2.8-9.9-4.3c0.9-2.4,1.8-4.9,2.9-7.4c4.9-11.5,9.6-23.1,14.7-34.4
		C56.1,66.8,62,54.5,67.9,42.1c1.7-3.6,3-7.2,3.5-11.2c0.4-2.6,1.3-5.1,2-7.7C73.7,23.2,74,23.2,74.2,23.3z"/>
	<path fill="#336699" d="M71.9,138.1c-2.9-1.3-5.7-2.5-8.5-3.7c2.2-5.1,4.2-10.1,6.5-15.1c8.3-17.9,15.8-36.2,22.2-55
		c0.6-1.9,1.9-3.6,3-5.3c3.6-5.9,5.3-12.4,6-19.2c0.1-0.7,0.2-1.4,0.3-2.4c2.2,4.3,2.4,8.5,1.9,13c4.2-3.3,5.5-9.2,11.1-11.8
		c-0.1,0.9-0.1,1.5-0.3,2c-1.2,3-2.5,5.9-3.7,8.8c-2.1,5-4,10.1-6.1,15.1c-5.6,13.9-11,27.8-17,41.6c-4.5,10.4-9.8,20.5-14.7,30.7
		C72.4,137.3,72.2,137.6,71.9,138.1z"/>
	<path fill="#336699" d="M86.3,52c-0.9-3.5-1.8-6.9-2.5-10.3c-0.2-0.9,0.3-2.1,0.7-2.9c0.8-1.6,1.8-3,2.7-4.5
		C91.5,38.9,93,47.4,86.3,52z"/>
	<path fill="#336699" d="M80.4,10.9c1.6,5.1,2.8,9.8,1.8,14.5c-0.4,1.8-2.1,3.2-3.5,4.7c-0.1-3.9-0.7-7.6-2.4-11
		c-0.2-0.4-0.1-1,0.1-1.3C77.5,15.7,78.8,13.5,80.4,10.9z"/>
	<path fill="#336699" d="M106.7,25.2c4.3,6.4,3.6,13.9-0.7,17.5c-0.9-3.4-1.9-6.7-2.6-10.1c-0.2-0.9,0.4-2,0.9-2.9
		C105,28.2,105.8,26.8,106.7,25.2z"/>
	<path fill="#336699" d="M91.5,36.7c-0.2-0.2-0.3-0.2-0.3-0.2c-2.7-4-2.7-4,0.7-7.5c0.9-0.9,1.8-1.9,2.7-2.8
		c0.9-0.8,1.5-0.8,1.6,0.5c0.2,1.9,0.5,3.9,0.6,5.8c0,0.5-0.4,1.1-0.7,1.4C94.6,34.9,93.1,35.8,91.5,36.7z"/>
	<path fill="#336699" d="M114.8,15.3c0.2,1,0.3,1.6,0.4,2.2c1.1,5.7,1.1,5.7-4.1,8.6c-2-1.7-2.4-3.8-1-5.8c0.3-0.5,0.7-0.9,1.1-1.3
		C112.4,17.8,113.4,16.7,114.8,15.3z"/>
	<path fill="#336699" d="M88,2.9c2.2,5.5,1.4,7.8-3.5,9.7C82,7.8,82.4,6.6,88,2.9z"/>
	<path fill="#336699" d="M111.9,36.6c-1.7-6.6-0.9-8.5,4.1-10.3c-0.1,2.7-0.1,5.3-0.2,7.9c0,0.4-0.6,0.9-1,1.2
		C113.8,35.8,112.9,36.1,111.9,36.6z"/>
	<path fill="#336699" d="M92.8,46.1c-0.2-2-0.4-4-0.5-6c-0.1-1.3,2.4-3.9,3.7-3.9c0.3,0,0.8,0.6,0.8,0.9c-0.2,2.4-0.4,4.9-0.9,7.2
		c-0.2,0.9-1.6,1.5-2.4,2.2C93.2,46.3,93,46.2,92.8,46.1z"/>
	<path fill="#336699" d="M88.4,14.5c-0.4,2.7-0.7,5.3-1.1,8c-0.2,1.5-1.3,2-2.7,1.9C83.6,17.1,83.5,15.9,88.4,14.5z"/>
</g>
</svg>
