<?xml version="1.0" encoding="utf-8"?>
<!-- Generator: Adobe Illustrator 18.1.1, SVG Export Plug-In . SVG Version: 6.00 Build 0)  -->
<svg version="1.1" id="Layer_1" xmlns="http://www.w3.org/2000/svg" xmlns:xlink="http://www.w3.org/1999/xlink" x="0px" y="0px"
	 viewBox="0 0 150 150" enable-background="new 0 0 150 150" xml:space="preserve">
<g>
	<path fill="#336699" d="M12.6,47.1C18.9,34.3,28,26.5,42,23.3c0.3,4.3,3.2,6.4,6.8,8.1c-4.1,7.3-11.4,10-18.4,13.2
		c1.5,4.9,5.1,7.7,9.3,9.6c9,4.1,18,3.5,26.7-1.5c0.7,2.1,1.3,4,2,5.8C70.9,65.2,75,70.3,81.8,73c2.6,1.1,4.7,0.5,5.7-1.7
		c1.6-3.5,2.9-7.2,3.8-10.9c0.7-3.1,0.7-6.4,1-9.8c9.6,7.8,25.5,5.7,28.2-9.8c-5.9,0.4-9.9-3.5-14.7-6.1c4.3-1.7,8.5-3.1,10-8
		c0.4,0,0.7,0,0.9,0c11.3,3.9,19.1,11.5,22.5,23.1c7,23.7-2.4,51.6-7.6,60.1c-7.5,12.3-17.8,21.2-31.4,26.1
		c-5.1,1.8-10.4,3.1-15.6,4.6c-6.6,0-13.2,0-19.9,0c-0.5-0.2-1-0.6-1.5-0.7c-12.1-2.4-23-7.4-32.4-15.5
		C20.3,115.3,13.1,104,9.4,90.5C8.9,88.7,3.9,64.8,12.6,47.1z"/>
	<path fill="#336699" d="M88.8,6.8c0.6,0.5,1.2,0.9,1.9,1.5c-5.5,5.5-8.8,11.8-9.9,19.7c1.4-1,2.4-1.7,3.5-2.4
		c4-2.2,8.2-3.2,12.8-2.4c5,0.9,10,1.7,15.2-1.3c-3.5,7.8-7.3,13.8-16.8,12.5c6.9,3,10,10.9,17.8,12.2c-4,4.2-12.4,4.5-17.6,2.1
		c-5.1-2.4-9.5-5.7-13.2-10c-0.6-0.7-1.2-1.3-2-1.9c4.5,9.8,5.8,19.8,2,30.4c-10.1-6.3-13.1-15.5-11.5-26.8
		c-4.2,6.1-9.6,10.1-16.9,10.6c-4.9,0.4-9.5-0.8-14.6-3.2c6-1.4,9.4-5.2,12.6-9.4c3.3-4.3,7.6-7.2,13.3-8c-3.4-0.6-6.8-1.1-10.1-1.9
		c-7.9-2-12.1-8-11.3-16.4c0.4,0.7,0.7,1.2,1,1.7c1.8,3.2,4.6,4.6,8.1,4.6c1.8,0,3.6,0.1,5.5,0.3c4.7,0.4,8.6,2.5,11.7,6.1
		c0.3,0.4,0.7,0.8,1,1.2c0.2,0.2,0.4,0.3,0.9,0.7c2.9-7.5,7.3-13.9,12.3-20C86.1,6.8,87.4,6.8,88.8,6.8z"/>
</g>
</svg>
