<?xml version="1.0" encoding="utf-8"?>
<!-- Generator: Adobe Illustrator 18.1.1, SVG Export Plug-In . SVG Version: 6.00 Build 0)  -->
<svg version="1.1" id="Layer_1" xmlns="http://www.w3.org/2000/svg" xmlns:xlink="http://www.w3.org/1999/xlink" x="0px" y="0px"
	 viewBox="0 0 150 150" enable-background="new 0 0 150 150" xml:space="preserve">
<g>
	<path fill="#336699" d="M75.5,133.5c-2.1-7.4-2.4-29.3-2.3-34c0.1-4.7-3.7-36.8-3.7-36.8S67,62.4,65.2,63c-1.8,0.6-6.2-1.2-6.2-1.2
		c-2.2-1.3,3.5,19.8,4.3,31.5s2.2,43.2,2.7,45.4c0.5,2.2-2.4,7.5-0.9,7.5c1.4,0,12.4-0.3,12.4-0.3S77.5,140.9,75.5,133.5z
		 M69.2,129.4c0.1-5.6,0.8-29.5,0.3-33.6c-0.5-4.1-0.6-34.7,0-24.2c0,0,1.3,21.7,1.1,23.8c-0.1,2.1-0.8,30.1-0.3,34.2
		C70.7,133.6,69.1,135,69.2,129.4z"/>
	<path fill="#336699" d="M70.6,38.9c0.4-3.2,1.8-6,3.7-8.5c-0.4-0.4-0.8-0.8-1.2-1.1c-0.1-0.1-0.5-0.3-1.5-0.4
		c-0.6-0.1-1.3-0.1-2-0.1c-0.4,0-2.7,0-3,0c-4.1-0.5-4.1-4-4-6.3c0,0,0,0,0,0c-0.1-0.2-0.2-0.5-0.4-0.7c-1.2-2.6-0.7-4.5,0-5.6
		c0.6-1.1,1.9-2.4,4.7-2.7c1.4-2.6,2.4-4.9,3.3-7.1c-2-1.4-4.1-2.4-6.6-0.5c-0.8-0.7-1.3-1.5-2-1.6c-1.4-0.2-3.6-0.5-4.1,0.2
		c-1.7,2.5-3.3,1.8-5.3,0.7c-1.8-1-3.7-1.7-5.1,0.7c-0.2,0.3-0.9,0.5-1.4,0.5c-1.9,0-2.8,0.9-3.3,2.7c-0.8,3-1.9,5.9-3,8.8
		c-0.2,0.5-1.1,1-1.8,1.1c-2.4,0.5-3.1,2-1.8,4.1c0.3,0.5,0.8,1.1,0.9,1.6c0.1,3.6,0.3,3.6,4.1,3c1.9-0.3,4.5-0.4,5.9,0.6
		c4.7,3.5,8.9,7.7,10,13.7c1,5.2,1.4,10.5,1.9,15.8c0.2,2.6,1.2,4.1,3.7,4.2c2.3,0.1,4.5-0.1,7-0.1c0.1-1.6,0.1-2.4,0.1-3.2
		C69.7,52.1,69.7,45.4,70.6,38.9z M56.5,31.1c-2.1-2.4-4.6-4.2-5.3-7.7C57.5,25.9,58.2,26.8,56.5,31.1z"/>
	<path fill="#336699" d="M93.9,62.8c-2.4-0.2-4.7-0.3-6.9-0.7c-2.5-0.4-3.3-2-3.2-4.6c0.1-5.3,0.3-10.6-0.1-15.9
		c-0.4-6.1-4.1-10.8-8.4-14.7c-1.3-1.2-3.8-1.4-5.8-1.3c-3.8,0.2-4,0.2-3.7-3.4c0-0.5-0.4-1.1-0.7-1.7c-1-2.3-0.2-3.7,2.3-3.9
		c0.7-0.1,1.6-0.4,1.9-0.9c1.4-2.8,2.8-5.6,4-8.4c0.7-1.7,1.7-2.6,3.6-2.3c0.5,0.1,1.2,0,1.4-0.4c1.7-2.2,3.4-1.4,5.1-0.2
		c1.8,1.3,3.4,2.2,5.3-0.1c0.6-0.6,2.7-0.1,4,0.3c0.6,0.2,1.1,1.1,1.8,1.8c3.6-2.1,5.8,0.7,8.1,2.8c1.5-1.5,6.2-2,7.6-0.8
		c0.6,0.6,1,1.7,1.1,2.6c0,1.8-0.3,3.6-0.4,5.6c0.7-0.2,1.3-0.2,1.7-0.4c1.6-0.7,2.7,0.1,2.8,1.5c0.3,2.9,0.8,5.9,0.2,8.7
		c-0.3,1.4-2.8,2.5-4.3,3.5c-0.1,0.1-1-0.6-1.3-1.1c-0.4-0.6-0.7-1.4-1.2-2.5c-4.9,3.9-9.5,7.8-11,13.7c-1.6,6.4-2.3,13.1-3.4,19.6
		C94.2,60.4,94.1,61.2,93.9,62.8z M80.3,22.5c0.3,3.5,2.6,5.6,4.4,8.2C86.8,26.7,86.2,25.7,80.3,22.5z M96.1,24.5
		c-0.1,1.3-0.2,2.1-0.3,3c0,0.8,0,1.7,0,2.9c1-0.6,1.9-0.8,2.2-1.4c0.8-1.3,1.3-2.7,1.9-4.1C98.7,24.7,97.4,24.6,96.1,24.5z"/>
	<path fill="#336699" d="M91.9,134.6c-1.2-7.6,0.9-29.4,1.6-34c0.6-4.7,0.5-36.9,0.5-36.9s-2.4-0.6-4.2-0.3
		c-1.9,0.4-6.1-1.9-6.1-1.9c-2-1.5,1.2,20.1,0.7,31.8c-0.5,11.7-4.6,50.8-3.5,51.6c1.6,1,11.6,2.2,11.6,2.2S93.2,142.2,91.9,134.6z
		 M87.1,129.9c0.5-5.6,3.1-29.4,3-33.5c-0.1-4.1,2.2-34.6,1.9-24.1c0,0-0.5,21.7-0.8,23.8c-0.3,2.1-3.2,29.9-3.1,34
		C88.3,134.2,86.5,135.5,87.1,129.9z"/>
</g>
</svg>
