<?xml version="1.0" encoding="utf-8"?>
<!-- Generator: Adobe Illustrator 18.1.1, SVG Export Plug-In . SVG Version: 6.00 Build 0)  -->
<svg version="1.1" id="Layer_1" xmlns="http://www.w3.org/2000/svg" xmlns:xlink="http://www.w3.org/1999/xlink" x="0px" y="0px"
	 viewBox="0 0 150 150" enable-background="new 0 0 150 150" xml:space="preserve">
<g>
	<path fill="#336699" d="M130.5,29c-10.5-5.9-21.3-3.8-28.7,5.7c-15.5,19.9-34,35.9-57,46.9c-8.2,3.9-16,9.2-23.1,14.8
		c-8.8,7-11.3,19-7.4,29.3c4.1,10.8,13.5,17.1,25.3,17.2c11.7,0,21.8-4.5,31.2-10.9c20.4-14.2,37.3-32,51.9-52
		c7.2-9.8,12.4-20.4,14.5-32.5C138.7,38.5,136.8,32.6,130.5,29z M23.5,132.1c3.8-2.1,1.6-4.7,0.3-6.7c-0.8-1.2-3-1.4-4.6-2.1
		c-0.2,0.2-0.5,0.4-0.7,0.7c-0.6-2.8,1.2-3.3,3.3-2.9c3.3,0.6,6.9,5.2,6.7,8.6C28.4,132.5,27,133.3,23.5,132.1z M43.2,125.7
		c0,0,58.3-38.1,80-76.2C123.1,49.5,106.5,89.1,43.2,125.7z"/>
	<path fill="#336699" d="M133.4,6.5c-0.1-0.7-1.2-1.7-1.8-1.8c-2.5,0-5,0.3-7,0.5c-2,6.2-3.8,11.9-5.8,18.1c1.1,0.2,2.1,0.4,3.1,0.5
		l3.8-12.3l-1.8,12.6c1.5,0.3,3,0.6,4.4,0.9c2,0.5,2.9-0.4,3.6-2C134.1,17.8,134.2,12.2,133.4,6.5z"/>
</g>
</svg>
