<?xml version="1.0" encoding="utf-8"?>
<!-- Generator: Adobe Illustrator 15.0.0, SVG Export Plug-In . SVG Version: 6.00 Build 0)  -->
<!DOCTYPE svg PUBLIC "-//W3C//DTD SVG 1.1//EN" "http://www.w3.org/Graphics/SVG/1.1/DTD/svg11.dtd">
<svg version="1.1" id="svg-all-circle" xmlns="http://www.w3.org/2000/svg" xmlns:xlink="http://www.w3.org/1999/xlink" x="0px"
	 y="0px" width="221px" height="87.5px" viewBox="-94.5 97.5 221 87.5" enable-background="new -94.5 97.5 221 87.5"
	 xml:space="preserve">
<g>
	<path fill="#1E5061" d="M-52.133,123.879l15.674,15.675v34.387h-31.349v-34.387L-52.133,123.879 M-52.133,116.547l-20.859,20.859
		v41.719h41.718v-41.719L-52.133,116.547L-52.133,116.547z"/>
	<g>
		<path fill-rule="evenodd" clip-rule="evenodd" fill="#1E5061" d="M-58.812,152.729c-0.099,3.125,1.402,6.252,2.778,8.518
			c-5,0.884-7.734-2.271-8.147-5.926c-0.82-7.241,4.96-11.787,9.073-14.257c-0.486,2.309-1.39,4.318-1.111,6.667
			c0.411,3.456,3.696,4.569,4.443,6.664c0.928,2.599-0.52,4.902-2.407,6.111C-56.795,158.984-57.856,155.909-58.812,152.729z"/>
		<path fill-rule="evenodd" clip-rule="evenodd" fill="#1E5061" d="M-45.851,160.137c-1.455,0.243-3.878,2.005-6.296,1.296
			c-0.303-2.398,0.405-3.988,2.223-4.444c1.035-0.258,2.275,0.225,3.519,0c2.613-0.471,3.613-2.686,4.628-4.629
			c3.68,7.085-5.172,17.519-9.813,10.185C-49.115,162.303-47.561,161.142-45.851,160.137z"/>
		<path fill-rule="evenodd" clip-rule="evenodd" fill="#1E5061" d="M-54.369,161.619c0.215,3.752,1.084,7.281,3.148,9.812
			c0.552,0.677,2.865,2.445,2.593,2.963c-0.935,1.775-3.678-1.273-4.074-1.852C-54.652,169.703-54.778,166.01-54.369,161.619z"/>
	</g>
</g>
<g>
	<g>
		<path fill-rule="evenodd" clip-rule="evenodd" fill="#1E8683" d="M12.702,150.715c-0.107,3.396,1.523,6.793,3.019,9.257
			c-5.433,0.96-8.404-2.468-8.854-6.439c-0.891-7.87,5.391-12.81,9.86-15.493c-0.528,2.509-1.51,4.692-1.207,7.244
			c0.446,3.756,4.017,4.966,4.829,7.243c1.008,2.823-0.565,5.327-2.615,6.641C14.894,157.512,13.742,154.17,12.702,150.715z"/>
		<path fill-rule="evenodd" clip-rule="evenodd" fill="#1E8683" d="M26.787,158.764c-1.581,0.265-4.215,2.18-6.841,1.408
			c-0.33-2.606,0.438-4.333,2.414-4.828c1.125-0.281,2.473,0.243,3.824,0c2.84-0.512,3.927-2.919,5.029-5.03
			c3.998,7.698-5.62,19.036-10.664,11.067C23.24,161.117,24.93,159.855,26.787,158.764z"/>
		<path fill-rule="evenodd" clip-rule="evenodd" fill="#1E8683" d="M17.531,160.374c0.233,4.078,1.178,7.915,3.421,10.664
			c0.6,0.735,3.113,2.657,2.817,3.22c-1.016,1.931-3.996-1.384-4.428-2.013C17.224,169.16,17.086,165.146,17.531,160.374z"/>
	</g>
	<rect x="1.218" y="172.235" fill="#1E8683" width="37.649" height="5.094"/>
	<g>
		<circle fill="#1E8683" cx="30.179" cy="127.711" r="8.506"/>
		<path fill="#1E8683" d="M40.604,127.622c-0.002-1.115,0.336-2.151,0.914-3.017c-0.955-0.456-1.787-1.196-2.355-2.183
			c-0.559-0.966-0.785-2.032-0.717-3.07c-1.057,0.082-2.146-0.141-3.131-0.712c-0.968-0.557-1.696-1.368-2.156-2.303
			c-0.874,0.602-1.93,0.952-3.067,0.952c-1.118,0-2.154-0.337-3.019-0.916c-0.458,0.954-1.195,1.786-2.181,2.356
			c-0.968,0.558-2.037,0.781-3.074,0.714c0.082,1.058-0.14,2.149-0.708,3.134c-0.559,0.969-1.371,1.694-2.304,2.154
			c0.6,0.873,0.953,1.93,0.953,3.067c-0.001,1.117-0.341,2.153-0.918,3.019c0.955,0.456,1.789,1.193,2.357,2.18
			c0.559,0.969,0.782,2.036,0.714,3.072c1.058-0.081,2.148,0.141,3.133,0.711c0.967,0.559,1.694,1.371,2.155,2.301
			c0.872-0.595,1.928-0.946,3.065-0.946c1.117,0,2.154,0.339,3.02,0.916c0.457-0.954,1.193-1.787,2.18-2.356
			c0.967-0.559,2.035-0.784,3.074-0.715c-0.08-1.059,0.141-2.147,0.711-3.134c0.559-0.967,1.369-1.694,2.303-2.154
			C40.953,129.817,40.602,128.762,40.604,127.622z M30.18,136.94c-5.098,0-9.23-4.134-9.23-9.229c0-5.098,4.133-9.23,9.23-9.23
			s9.23,4.133,9.23,9.23C39.41,132.807,35.277,136.94,30.18,136.94z"/>
	</g>
</g>
<g>
	<g>
		<g>
			<path fill-rule="evenodd" clip-rule="evenodd" fill="#669924" d="M94.92,155.956c0.089,2.726-1.246,5.455-2.47,7.434
				c4.447,0.771,6.877-1.982,7.245-5.172c0.729-6.319-4.41-10.286-8.068-12.441c0.433,2.015,1.236,3.769,0.989,5.816
				c-0.366,3.017-3.288,3.988-3.953,5.817c-0.824,2.268,0.463,4.278,2.141,5.334C93.128,161.414,94.069,158.73,94.92,155.956z"/>
			<path fill-rule="evenodd" clip-rule="evenodd" fill="#669924" d="M83.396,162.419c1.293,0.213,3.448,1.751,5.597,1.132
				c0.271-2.094-0.358-3.48-1.976-3.877c-0.921-0.227-2.022,0.194-3.128,0c-2.324-0.411-3.214-2.345-4.116-4.041
				c-3.271,6.183,4.599,15.288,8.727,8.889C86.298,164.31,84.915,163.296,83.396,162.419z"/>
			<path fill-rule="evenodd" clip-rule="evenodd" fill="#669924" d="M90.97,163.713c-0.191,3.274-0.964,6.356-2.8,8.564
				c-0.49,0.59-2.547,2.134-2.305,2.585c0.831,1.551,3.271-1.111,3.623-1.616C91.222,170.769,91.333,167.545,90.97,163.713z"/>
		</g>
		<rect x="72.229" y="172.405" fill="#669924" width="32.527" height="4.924"/>
	</g>
	<g>
		<path fill-rule="evenodd" clip-rule="evenodd" fill="#669924" d="M72.229,122.184c0.006-0.548,0.015-1.096,0.022-1.642
			c2.63-1.8,5.714-3.142,8.13-5.156c0.111,0.001,0.225,0.003,0.336,0.004c2.36,6.747,12.906,7.697,17.636,13.035
			c1.497,1.69,2.713,4.948,3.938,7.279c1.095,2.087,3.767,5.356,1.247,7.243c-5.965-1.444-5.021-11.5-11.934-12.307
			c-2.649-0.309-5.891,0.459-6.428,3.534c-0.8,4.56,6.133,8.386,0.853,11.838C81.699,137.812,73.966,132.855,72.229,122.184z"/>
		<path fill-rule="evenodd" clip-rule="evenodd" fill="#669924" d="M101.51,143.908c-0.348,0.76-1.17,1.044-2.363,0.955
			c-2.592-3.479-4.021-8.063-5.89-12.229C97.153,135.3,97.536,141.316,101.51,143.908z"/>
		<path fill-rule="evenodd" clip-rule="evenodd" fill="#669924" d="M95.816,142.521c-4.129-1.579-3.835-7.373-6.245-10.592
			c2.44-0.038,2.898,2.743,3.64,4.317c0.883,1.877,1.517,3.84,2.618,5.289C95.824,141.864,95.821,142.192,95.816,142.521z"/>
		<path fill-rule="evenodd" clip-rule="evenodd" fill="#669924" d="M91.815,140.171c-2.748,0.425-4.95-5.468-3.933-7.605
			C89.776,134.545,90.373,137.762,91.815,140.171z"/>
		<path fill-rule="evenodd" clip-rule="evenodd" fill="#669924" d="M80.381,115.386c-2.416,2.015-5.5,3.356-8.13,5.156
			c0.022-1.754,0.045-0.877,0.068-2.628C75.007,117.947,77.693,115.353,80.381,115.386z"/>
	</g>
</g>
</svg>
