<?xml version="1.0" encoding="utf-8"?>
<!-- Generator: Adobe Illustrator 15.0.0, SVG Export Plug-In . SVG Version: 6.00 Build 0)  -->
<!DOCTYPE svg PUBLIC "-//W3C//DTD SVG 1.1//EN" "http://www.w3.org/Graphics/SVG/1.1/DTD/svg11.dtd">
<svg version="1.1" id="Layer_1" xmlns="http://www.w3.org/2000/svg" xmlns:xlink="http://www.w3.org/1999/xlink" x="0px" y="0px"
	 width="1024px" height="119px" viewBox="0 0 1024 119" enable-background="new 0 0 1024 119" xml:space="preserve">
<rect y="-4" fill="#00001E" width="1024" height="123"/>
<line fill="none" stroke="#4252B8" stroke-miterlimit="10" x1="0" y1="76.5" x2="1024" y2="76.5"/>
<line fill="none" stroke="#4252B8" stroke-miterlimit="10" x1="0" y1="76.5" x2="1024" y2="76.5"/>
<g>
	<g>
		<path fill-rule="evenodd" clip-rule="evenodd" fill="#428FB8" d="M40.205,40.408c0-9.77,7.92-17.689,17.688-17.689
			c9.77,0,17.689,7.919,17.689,17.689c0,0.472-0.024,0.937-0.061,1.399c0.468-1.787,0.718-3.662,0.718-5.596
			c0-12.177-9.871-22.049-22.049-22.049s-22.049,9.872-22.049,22.049s9.871,22.049,22.049,22.049c0.959,0,1.901-0.068,2.827-0.187
			C47.656,57.617,40.205,49.883,40.205,40.408z"/>
		<path fill-rule="evenodd" clip-rule="evenodd" fill="#428FB8" d="M57.812,26.428c-0.641,0-1.27,0.045-1.888,0.125
			c6.251,0.305,11.224,5.468,11.224,11.794c0,6.522-5.286,11.809-11.809,11.809c-6.521,0-11.809-5.287-11.809-11.809
			c0-0.314,0.016-0.625,0.04-0.934c-0.312,1.194-0.479,2.445-0.479,3.735c0,8.13,6.591,14.72,14.721,14.72
			c8.129,0,14.72-6.59,14.72-14.72C72.532,33.018,65.941,26.428,57.812,26.428z"/>
		<circle fill-rule="evenodd" clip-rule="evenodd" fill="#428FB8" cx="58.634" cy="41.147" r="4.607"/>
	</g>
	<g>
		<path fill="#428FB8" d="M102.745,29.272L95.983,49.97h-3.902l9.213-26.858h5.312l-1.232,26.858h-3.914L102.745,29.272z"/>
		<path fill="#428FB8" d="M122.525,23.111l-0.737,3.82h-3.629l-4.477,23.039h-3.873l4.476-23.039h-3.627l0.738-3.82H122.525z"/>
		<path fill="#428FB8" d="M135.024,23.111l-0.739,3.82h-3.627l-4.477,23.039h-3.875l4.477-23.039h-3.628l0.74-3.82H135.024z"/>
		<path fill="#428FB8" d="M140.965,29.272l-6.762,20.698h-3.901l9.212-26.858h5.312l-1.232,26.858h-3.914L140.965,29.272z"/>
		<path fill="#428FB8" d="M151.206,23.111h3.874l-5.216,26.858h-3.874L151.206,23.111z"/>
		<path fill="#428FB8" d="M158.706,23.111h3.874l0.644,15.579l3.026-15.579h3.586L164.62,49.97h-3.874l-0.603-15.085l-2.929,15.085
			h-3.724L158.706,23.111z"/>
	</g>
</g>
<g>
	<g>
		<path fill="none" stroke="#4252B8" stroke-linecap="round" stroke-miterlimit="10" d="M979.51,26.413
			c-3.754,0.911-6.546,4.285-6.546,8.32c0,4.733,3.837,8.57,8.569,8.57c4.734,0,8.571-3.837,8.571-8.57
			c0-4.035-2.791-7.409-6.546-8.32"/>
		<line fill="none" stroke="#4252B8" stroke-linecap="round" stroke-miterlimit="10" x1="981.5" y1="23" x2="981.5" y2="30"/>
	</g>
</g>
<g>
	<path fill="#4252B8" d="M883.434,30.402l-0.41,0.337c-0.447-0.713-1.059-1.069-1.834-1.069c-0.316,0-0.604,0.078-0.866,0.233
		c-0.26,0.155-0.465,0.366-0.615,0.631c-0.148,0.266-0.224,0.554-0.224,0.864c0,0.416,0.141,0.74,0.422,0.971
		c0.281,0.231,0.685,0.471,1.21,0.719l1.729,0.902c0.688,0.434,1.031,1.033,1.031,1.799c0,0.486-0.133,0.931-0.398,1.333
		s-0.616,0.719-1.052,0.949s-0.896,0.346-1.383,0.346c-0.617,0-1.161-0.175-1.634-0.526c-0.471-0.35-0.814-0.823-1.029-1.419
		l0.504-0.226c0.205,0.508,0.49,0.906,0.855,1.197c0.365,0.289,0.809,0.435,1.33,0.435c0.393,0,0.76-0.095,1.102-0.284
		s0.615-0.447,0.82-0.775c0.205-0.326,0.308-0.686,0.308-1.076c0-0.311-0.089-0.578-0.267-0.803s-0.379-0.403-0.604-0.536
		s-0.542-0.299-0.952-0.498l-1.632-0.864c-0.625-0.387-0.938-0.927-0.938-1.62c0-0.441,0.099-0.837,0.296-1.187
		s0.472-0.621,0.825-0.814c0.352-0.193,0.751-0.29,1.196-0.29c0.457,0,0.885,0.114,1.284,0.343S883.217,30.012,883.434,30.402z"/>
	<path fill="#4252B8" d="M887.45,34.434l-3.012-5.183h0.636l2.666,4.582l2.663-4.582h0.636l-3.012,5.183v3.864h-0.577V34.434z"/>
	<path fill="#4252B8" d="M896.67,30.402l-0.41,0.337c-0.447-0.713-1.059-1.069-1.834-1.069c-0.316,0-0.604,0.078-0.866,0.233
		c-0.26,0.155-0.465,0.366-0.615,0.631c-0.148,0.266-0.224,0.554-0.224,0.864c0,0.416,0.141,0.74,0.422,0.971
		c0.281,0.231,0.685,0.471,1.21,0.719l1.729,0.902c0.688,0.434,1.031,1.033,1.031,1.799c0,0.486-0.133,0.931-0.398,1.333
		s-0.616,0.719-1.052,0.949s-0.896,0.346-1.383,0.346c-0.617,0-1.161-0.175-1.634-0.526c-0.471-0.35-0.814-0.823-1.029-1.419
		l0.504-0.226c0.205,0.508,0.49,0.906,0.855,1.197c0.365,0.289,0.809,0.435,1.33,0.435c0.393,0,0.76-0.095,1.102-0.284
		s0.615-0.447,0.82-0.775c0.205-0.326,0.308-0.686,0.308-1.076c0-0.311-0.089-0.578-0.267-0.803s-0.379-0.403-0.604-0.536
		s-0.542-0.299-0.952-0.498l-1.632-0.864c-0.625-0.387-0.938-0.927-0.938-1.62c0-0.441,0.099-0.837,0.296-1.187
		s0.472-0.621,0.825-0.814c0.352-0.193,0.751-0.29,1.196-0.29c0.457,0,0.885,0.114,1.284,0.343S896.453,30.012,896.67,30.402z"/>
	<path fill="#4252B8" d="M900.616,29.79v8.508h-0.577V29.79h-2.338v-0.539h5.256v0.539H900.616z"/>
	<path fill="#4252B8" d="M908.318,29.79h-3.744v3.287h3.65v0.542h-3.65v4.14h3.744v0.539H904v-9.047h4.318V29.79z"/>
	<path fill="#4252B8" d="M919.217,38.298l-1.55-7.488h-0.023l-3.155,7.787l-3.144-7.787h-0.023l-1.55,7.488h-0.551l1.942-9.349
		l3.325,8.232l3.337-8.232l1.942,9.349H919.217z"/>
</g>
<g>
	<path fill="#4252B8" d="M777.368,34.015l2.965,4.283h-0.662l-2.95-4.283h-0.29v4.283h-0.574v-9.047h1.128
		c0.475,0,0.87,0.027,1.187,0.081s0.608,0.178,0.876,0.374c0.609,0.43,0.914,1.078,0.914,1.945c0,0.51-0.11,0.942-0.329,1.298
		c-0.221,0.355-0.526,0.622-0.918,0.8S777.874,34.015,777.368,34.015z M776.431,33.473h0.732c0.357,0,0.659-0.025,0.905-0.076
		s0.473-0.165,0.68-0.343c0.424-0.344,0.636-0.819,0.636-1.427c0-0.227-0.036-0.448-0.107-0.664s-0.178-0.408-0.322-0.576
		c-0.143-0.168-0.32-0.299-0.531-0.393c-0.32-0.137-0.86-0.205-1.62-0.205h-0.372V33.473z"/>
	<path fill="#4252B8" d="M786.031,29.79h-3.744v3.287h3.65v0.542h-3.65v4.14h3.744v0.539h-4.318v-9.047h4.318V29.79z"/>
	<path fill="#4252B8" d="M792.395,30.402l-0.41,0.337c-0.447-0.713-1.059-1.069-1.834-1.069c-0.316,0-0.604,0.078-0.866,0.233
		c-0.26,0.155-0.465,0.366-0.615,0.631c-0.148,0.266-0.224,0.554-0.224,0.864c0,0.416,0.141,0.74,0.422,0.971
		c0.281,0.231,0.685,0.471,1.21,0.719l1.729,0.902c0.688,0.434,1.031,1.033,1.031,1.799c0,0.486-0.133,0.931-0.398,1.333
		s-0.616,0.719-1.052,0.949s-0.896,0.346-1.383,0.346c-0.617,0-1.161-0.175-1.634-0.526c-0.471-0.35-0.814-0.823-1.029-1.419
		l0.504-0.226c0.205,0.508,0.49,0.906,0.855,1.197c0.365,0.289,0.809,0.435,1.33,0.435c0.393,0,0.76-0.095,1.102-0.284
		s0.615-0.447,0.82-0.775c0.205-0.326,0.308-0.686,0.308-1.076c0-0.311-0.089-0.578-0.267-0.803s-0.379-0.403-0.604-0.536
		s-0.542-0.299-0.952-0.498l-1.632-0.864c-0.625-0.387-0.938-0.927-0.938-1.62c0-0.441,0.099-0.837,0.296-1.187
		s0.472-0.621,0.825-0.814c0.352-0.193,0.751-0.29,1.196-0.29c0.457,0,0.885,0.114,1.284,0.343S792.178,30.012,792.395,30.402z"/>
	<path fill="#4252B8" d="M798.477,29.131c0.832,0,1.608,0.209,2.331,0.627c0.721,0.418,1.295,0.984,1.723,1.699
		c0.426,0.715,0.64,1.487,0.64,2.317s-0.214,1.603-0.64,2.316c-0.428,0.714-1.002,1.279-1.723,1.699
		c-0.723,0.418-1.499,0.628-2.331,0.628s-1.609-0.21-2.331-0.628c-0.722-0.42-1.296-0.985-1.723-1.699s-0.64-1.486-0.64-2.316
		c0-0.623,0.122-1.217,0.366-1.781s0.585-1.062,1.022-1.494s0.94-0.768,1.511-1.008C797.251,29.251,797.85,29.131,798.477,29.131z
		 M798.477,29.67c-0.736,0-1.421,0.186-2.052,0.557c-0.633,0.371-1.135,0.873-1.506,1.506c-0.373,0.633-0.559,1.313-0.559,2.042
		s0.186,1.409,0.559,2.042c0.371,0.633,0.873,1.135,1.506,1.506c0.631,0.371,1.315,0.557,2.052,0.557
		c0.732,0,1.415-0.187,2.05-0.562c0.633-0.373,1.137-0.875,1.508-1.506c0.373-0.629,0.559-1.309,0.559-2.037
		c0-0.547-0.108-1.071-0.325-1.573s-0.515-0.941-0.892-1.318c-0.379-0.377-0.818-0.673-1.32-0.889S799.027,29.67,798.477,29.67z"/>
	<path fill="#4252B8" d="M810.058,34.721v-5.47h0.574v5.64c0,0.594-0.033,1.069-0.1,1.427s-0.237,0.706-0.513,1.046
		c-0.297,0.338-0.665,0.599-1.103,0.78c-0.439,0.183-0.891,0.274-1.355,0.274c-0.467,0-0.918-0.092-1.355-0.274
		c-0.436-0.182-0.805-0.442-1.105-0.78c-0.275-0.344-0.446-0.693-0.513-1.049s-0.1-0.83-0.1-1.424v-5.64h0.577v5.47
		c0,0.553,0.025,1.004,0.078,1.354c0.051,0.35,0.181,0.659,0.388,0.929c0.213,0.273,0.512,0.488,0.897,0.643
		c0.386,0.156,0.764,0.233,1.133,0.233c0.371,0,0.748-0.077,1.133-0.233c0.383-0.154,0.682-0.369,0.895-0.643
		c0.207-0.268,0.337-0.576,0.39-0.928C810.031,35.726,810.058,35.273,810.058,34.721z"/>
	<path fill="#4252B8" d="M814.004,34.015l2.965,4.283h-0.662l-2.95-4.283h-0.29v4.283h-0.574v-9.047h1.128
		c0.475,0,0.87,0.027,1.187,0.081s0.608,0.178,0.876,0.374c0.609,0.43,0.914,1.078,0.914,1.945c0,0.51-0.11,0.942-0.329,1.298
		c-0.221,0.355-0.526,0.622-0.918,0.8S814.51,34.015,814.004,34.015z M813.066,33.473h0.732c0.357,0,0.659-0.025,0.905-0.076
		s0.473-0.165,0.68-0.343c0.424-0.344,0.636-0.819,0.636-1.427c0-0.227-0.036-0.448-0.107-0.664s-0.178-0.408-0.322-0.576
		c-0.143-0.168-0.32-0.299-0.531-0.393c-0.32-0.137-0.86-0.205-1.62-0.205h-0.372V33.473z"/>
	<path fill="#4252B8" d="M825.535,30.306v0.791c-0.348-0.426-0.801-0.77-1.359-1.033s-1.117-0.394-1.676-0.394
		c-0.555,0-1.082,0.111-1.581,0.333s-0.939,0.527-1.32,0.917c-0.383,0.39-0.68,0.837-0.895,1.342
		c-0.213,0.505-0.32,1.029-0.32,1.572c0,0.521,0.107,1.025,0.322,1.51c0.215,0.486,0.512,0.915,0.891,1.288
		c0.395,0.373,0.848,0.675,1.359,0.903c0.512,0.23,1.026,0.345,1.544,0.345c0.35,0,0.718-0.059,1.104-0.177s0.751-0.283,1.093-0.494
		s0.621-0.447,0.838-0.709v0.791c-0.904,0.752-1.908,1.128-3.012,1.128c-0.824,0-1.6-0.21-2.326-0.628
		c-0.727-0.42-1.307-0.985-1.74-1.698s-0.65-1.481-0.65-2.306c0-0.838,0.214-1.614,0.644-2.329c0.428-0.715,1.006-1.281,1.732-1.699
		s1.511-0.627,2.353-0.627c0.363,0,0.723,0.045,1.079,0.136s0.698,0.224,1.025,0.4S825.266,30.056,825.535,30.306z"/>
	<path fill="#4252B8" d="M831.535,29.79h-3.744v3.287h3.65v0.542h-3.65v4.14h3.744v0.539h-4.318v-9.047h4.318V29.79z"/>
	<path fill="#4252B8" d="M837.898,30.402l-0.41,0.337c-0.447-0.713-1.059-1.069-1.834-1.069c-0.316,0-0.604,0.078-0.866,0.233
		c-0.26,0.155-0.465,0.366-0.615,0.631c-0.148,0.266-0.224,0.554-0.224,0.864c0,0.416,0.141,0.74,0.422,0.971
		c0.281,0.231,0.685,0.471,1.21,0.719l1.729,0.902c0.688,0.434,1.031,1.033,1.031,1.799c0,0.486-0.133,0.931-0.398,1.333
		s-0.616,0.719-1.052,0.949s-0.896,0.346-1.383,0.346c-0.617,0-1.161-0.175-1.634-0.526c-0.471-0.35-0.814-0.823-1.029-1.419
		l0.504-0.226c0.205,0.508,0.49,0.906,0.855,1.197c0.365,0.289,0.809,0.435,1.33,0.435c0.393,0,0.76-0.095,1.102-0.284
		s0.615-0.447,0.82-0.775c0.205-0.326,0.308-0.686,0.308-1.076c0-0.311-0.089-0.578-0.267-0.803s-0.379-0.403-0.604-0.536
		s-0.542-0.299-0.952-0.498l-1.632-0.864c-0.625-0.387-0.938-0.927-0.938-1.62c0-0.441,0.099-0.837,0.296-1.187
		s0.472-0.621,0.825-0.814c0.352-0.193,0.751-0.29,1.196-0.29c0.457,0,0.885,0.114,1.284,0.343S837.682,30.012,837.898,30.402z"/>
</g>
<g>
	<path fill="#4252B8" d="M699.089,29.251v8.508h2.306v0.539h-2.88v-9.047H699.089z"/>
	<path fill="#4252B8" d="M706.589,29.131c0.832,0,1.608,0.209,2.331,0.627c0.721,0.418,1.295,0.984,1.723,1.699
		c0.426,0.715,0.64,1.487,0.64,2.317s-0.214,1.603-0.64,2.316c-0.428,0.714-1.002,1.279-1.723,1.699
		c-0.723,0.418-1.499,0.628-2.331,0.628s-1.609-0.21-2.331-0.628c-0.722-0.42-1.296-0.985-1.723-1.699s-0.64-1.486-0.64-2.316
		c0-0.623,0.122-1.217,0.366-1.781s0.585-1.062,1.022-1.494s0.94-0.768,1.511-1.008C705.363,29.251,705.962,29.131,706.589,29.131z
		 M706.589,29.67c-0.736,0-1.421,0.186-2.052,0.557c-0.633,0.371-1.135,0.873-1.506,1.506c-0.373,0.633-0.559,1.313-0.559,2.042
		s0.186,1.409,0.559,2.042c0.371,0.633,0.873,1.135,1.506,1.506c0.631,0.371,1.315,0.557,2.052,0.557
		c0.732,0,1.415-0.187,2.05-0.562c0.633-0.373,1.137-0.875,1.508-1.506c0.373-0.629,0.559-1.309,0.559-2.037
		c0-0.547-0.108-1.071-0.325-1.573s-0.515-0.941-0.892-1.318c-0.379-0.377-0.818-0.673-1.32-0.889S707.14,29.67,706.589,29.67z"/>
	<path fill="#4252B8" d="M719.872,30.306v0.791c-0.348-0.426-0.801-0.77-1.359-1.033s-1.117-0.394-1.676-0.394
		c-0.555,0-1.082,0.111-1.581,0.333s-0.939,0.527-1.32,0.917c-0.383,0.39-0.68,0.837-0.895,1.342
		c-0.213,0.505-0.32,1.029-0.32,1.572c0,0.521,0.107,1.025,0.322,1.51c0.215,0.486,0.512,0.915,0.891,1.288
		c0.395,0.373,0.848,0.675,1.359,0.903c0.512,0.23,1.026,0.345,1.544,0.345c0.35,0,0.718-0.059,1.104-0.177s0.751-0.283,1.093-0.494
		s0.621-0.447,0.838-0.709v0.791c-0.904,0.752-1.908,1.128-3.012,1.128c-0.824,0-1.6-0.21-2.326-0.628
		c-0.727-0.42-1.307-0.985-1.74-1.698s-0.65-1.481-0.65-2.306c0-0.838,0.214-1.614,0.644-2.329c0.428-0.715,1.006-1.281,1.732-1.699
		s1.511-0.627,2.353-0.627c0.363,0,0.723,0.045,1.079,0.136s0.698,0.224,1.025,0.4S719.603,30.056,719.872,30.306z"/>
	<path fill="#4252B8" d="M726.414,35.321h-3.973l-1.213,2.977h-0.589l3.794-9.349l3.779,9.349h-0.589L726.414,35.321z
		 M726.197,34.782l-1.764-4.368l-1.775,4.368H726.197z"/>
	<path fill="#4252B8" d="M729.821,29.251v8.508h2.306v0.539h-2.88v-9.047H729.821z"/>
</g>
<g>
	<path fill="#428FB8" d="M85.473,98.582h3.817c0,0.412-0.025,0.791-0.074,1.135c-0.051,0.346-0.146,0.676-0.285,0.99
		c-0.14,0.316-0.336,0.611-0.59,0.887c-0.424,0.461-0.941,0.82-1.551,1.078c-0.611,0.258-1.237,0.387-1.88,0.387
		c-0.615,0-1.205-0.121-1.769-0.363s-1.062-0.578-1.494-1.008s-0.771-0.924-1.016-1.482c-0.246-0.559-0.368-1.145-0.368-1.756
		c0-0.846,0.212-1.627,0.636-2.346s0.998-1.287,1.721-1.705c0.725-0.418,1.511-0.627,2.36-0.627c0.533,0,1.04,0.084,1.521,0.253
		s0.921,0.411,1.321,0.728s0.762,0.693,1.084,1.131l-0.469,0.373c-0.193-0.295-0.419-0.565-0.677-0.811s-0.532-0.451-0.823-0.618
		s-0.605-0.295-0.943-0.384s-0.688-0.133-1.049-0.133c-0.717,0-1.393,0.189-2.027,0.57s-1.14,0.887-1.515,1.518
		s-0.562,1.303-0.562,2.016c0,0.727,0.185,1.406,0.554,2.039s0.869,1.135,1.5,1.508c0.631,0.371,1.314,0.559,2.051,0.559
		c0.949,0,1.837-0.332,2.663-0.996c0.252-0.215,0.458-0.445,0.618-0.691c0.16-0.244,0.278-0.508,0.354-0.789s0.12-0.588,0.132-0.922
		h-3.24V98.582z"/>
	<path fill="#428FB8" d="M95.012,94.43h-3.744v3.287h3.65v0.543h-3.65v4.139h3.744v0.539h-4.318v-9.047h4.318V94.43z"/>
	<path fill="#428FB8" d="M104.949,93.891v9.346l-7.597-8.074v7.775h-0.574v-9.166l7.597,8.016v-7.896H104.949z"/>
	<path fill="#428FB8" d="M106.895,102.938v-9.047h1.632c0.471,0,0.895,0.032,1.271,0.096s0.739,0.18,1.089,0.349
		c0.348,0.169,0.682,0.401,1,0.696c0.465,0.432,0.82,0.941,1.068,1.531c0.246,0.59,0.37,1.211,0.37,1.863
		c0,0.631-0.12,1.232-0.358,1.805c-0.24,0.572-0.584,1.074-1.033,1.506c-0.242,0.234-0.494,0.432-0.754,0.588
		c-0.262,0.158-0.531,0.281-0.811,0.369c-0.279,0.09-0.566,0.152-0.861,0.189s-0.622,0.055-0.981,0.055H106.895z M107.469,102.398
		h1.046c0.633,0,1.194-0.08,1.683-0.242c0.49-0.16,0.94-0.443,1.353-0.85c0.387-0.387,0.684-0.828,0.891-1.324
		s0.311-1.016,0.311-1.557c0-0.578-0.113-1.129-0.34-1.652s-0.55-0.977-0.97-1.359c-0.406-0.367-0.842-0.623-1.309-0.768
		c-0.465-0.145-1.005-0.217-1.618-0.217h-1.046V102.398z"/>
	<path fill="#428FB8" d="M119.038,94.43h-3.744v3.287h3.65v0.543h-3.65v4.139h3.744v0.539h-4.318v-9.047h4.318V94.43z"/>
	<path fill="#428FB8" d="M122.316,98.654l2.965,4.283h-0.662l-2.95-4.283h-0.29v4.283h-0.574v-9.047h1.128
		c0.475,0,0.87,0.027,1.187,0.081s0.608,0.179,0.876,0.374c0.609,0.43,0.914,1.078,0.914,1.945c0,0.51-0.11,0.941-0.329,1.297
		c-0.221,0.355-0.526,0.623-0.918,0.801S122.822,98.654,122.316,98.654z M121.379,98.113h0.732c0.357,0,0.659-0.025,0.905-0.076
		s0.473-0.166,0.68-0.344c0.424-0.344,0.636-0.818,0.636-1.426c0-0.227-0.036-0.448-0.107-0.664s-0.178-0.408-0.322-0.576
		c-0.143-0.168-0.32-0.299-0.531-0.393c-0.32-0.137-0.86-0.205-1.62-0.205h-0.372V98.113z"/>
</g>
<g>
	<path fill="#4252B8" d="M198.633,98.582h3.817c0,0.412-0.025,0.791-0.074,1.135c-0.051,0.346-0.146,0.676-0.285,0.99
		c-0.14,0.316-0.336,0.611-0.59,0.887c-0.424,0.461-0.941,0.82-1.551,1.078c-0.611,0.258-1.237,0.387-1.88,0.387
		c-0.615,0-1.205-0.121-1.769-0.363s-1.062-0.578-1.494-1.008s-0.771-0.924-1.016-1.482c-0.246-0.559-0.368-1.145-0.368-1.756
		c0-0.846,0.212-1.627,0.636-2.346s0.998-1.287,1.721-1.705c0.725-0.418,1.511-0.627,2.36-0.627c0.533,0,1.04,0.084,1.521,0.253
		s0.921,0.411,1.321,0.728s0.762,0.693,1.084,1.131l-0.469,0.373c-0.193-0.295-0.419-0.565-0.677-0.811s-0.532-0.451-0.823-0.618
		s-0.605-0.295-0.943-0.384s-0.688-0.133-1.049-0.133c-0.717,0-1.393,0.189-2.027,0.57s-1.14,0.887-1.515,1.518
		s-0.562,1.303-0.562,2.016c0,0.727,0.185,1.406,0.554,2.039s0.869,1.135,1.5,1.508c0.631,0.371,1.314,0.559,2.051,0.559
		c0.949,0,1.837-0.332,2.663-0.996c0.252-0.215,0.458-0.445,0.618-0.691c0.16-0.244,0.278-0.508,0.354-0.789s0.12-0.588,0.132-0.922
		h-3.24V98.582z"/>
	<path fill="#4252B8" d="M205.365,98.654l2.965,4.283h-0.662l-2.95-4.283h-0.29v4.283h-0.574v-9.047h1.128
		c0.475,0,0.87,0.027,1.187,0.081s0.608,0.179,0.876,0.374c0.609,0.43,0.914,1.078,0.914,1.945c0,0.51-0.11,0.941-0.329,1.297
		c-0.221,0.355-0.526,0.623-0.918,0.801S205.871,98.654,205.365,98.654z M204.428,98.113h0.732c0.357,0,0.659-0.025,0.905-0.076
		s0.473-0.166,0.68-0.344c0.424-0.344,0.636-0.818,0.636-1.426c0-0.227-0.036-0.448-0.107-0.664s-0.178-0.408-0.322-0.576
		c-0.143-0.168-0.32-0.299-0.531-0.393c-0.32-0.137-0.86-0.205-1.62-0.205h-0.372V98.113z"/>
	<path fill="#4252B8" d="M214.57,99.961h-3.973l-1.213,2.977h-0.589l3.794-9.348l3.779,9.348h-0.589L214.57,99.961z M214.354,99.422
		l-1.764-4.367l-1.775,4.367H214.354z"/>
	<path fill="#4252B8" d="M217.403,102.938v-9.047h1.632c0.471,0,0.895,0.032,1.271,0.096s0.739,0.18,1.089,0.349
		c0.348,0.169,0.682,0.401,1,0.696c0.465,0.432,0.82,0.941,1.068,1.531c0.246,0.59,0.37,1.211,0.37,1.863
		c0,0.631-0.12,1.232-0.358,1.805c-0.24,0.572-0.584,1.074-1.033,1.506c-0.242,0.234-0.494,0.432-0.754,0.588
		c-0.262,0.158-0.531,0.281-0.811,0.369c-0.279,0.09-0.566,0.152-0.861,0.189s-0.622,0.055-0.981,0.055H217.403z M217.978,102.398
		h1.046c0.633,0,1.194-0.08,1.683-0.242c0.49-0.16,0.94-0.443,1.353-0.85c0.387-0.387,0.684-0.828,0.891-1.324
		s0.311-1.016,0.311-1.557c0-0.578-0.113-1.129-0.34-1.652s-0.55-0.977-0.97-1.359c-0.406-0.367-0.842-0.623-1.309-0.768
		c-0.465-0.145-1.005-0.217-1.618-0.217h-1.046V102.398z"/>
	<path fill="#4252B8" d="M229.547,94.43h-3.744v3.287h3.65v0.543h-3.65v4.139h3.744v0.539h-4.318v-9.047h4.318V94.43z"/>
</g>
<g>
	<path fill="#428FB8" d="M341.601,99.361v-5.471h0.574v5.641c0,0.594-0.033,1.068-0.1,1.426s-0.237,0.707-0.513,1.047
		c-0.297,0.338-0.665,0.598-1.103,0.779c-0.439,0.184-0.891,0.275-1.355,0.275c-0.467,0-0.918-0.092-1.355-0.275
		c-0.436-0.182-0.805-0.441-1.105-0.779c-0.275-0.344-0.446-0.693-0.513-1.049s-0.1-0.83-0.1-1.424v-5.641h0.577v5.471
		c0,0.553,0.025,1.004,0.078,1.354c0.051,0.35,0.181,0.658,0.388,0.928c0.213,0.273,0.512,0.488,0.897,0.643
		c0.386,0.156,0.764,0.234,1.133,0.234c0.371,0,0.748-0.078,1.133-0.234c0.383-0.154,0.682-0.369,0.895-0.643
		c0.207-0.268,0.337-0.576,0.39-0.928C341.574,100.365,341.601,99.914,341.601,99.361z"/>
	<path fill="#428FB8" d="M348.632,95.043l-0.41,0.336c-0.447-0.713-1.059-1.068-1.834-1.068c-0.316,0-0.604,0.077-0.866,0.232
		c-0.26,0.155-0.465,0.365-0.615,0.631c-0.148,0.266-0.224,0.555-0.224,0.865c0,0.416,0.141,0.739,0.422,0.971
		c0.281,0.23,0.685,0.471,1.21,0.719l1.729,0.902c0.688,0.434,1.031,1.033,1.031,1.799c0,0.486-0.133,0.932-0.398,1.334
		s-0.616,0.719-1.052,0.949s-0.896,0.346-1.383,0.346c-0.617,0-1.161-0.176-1.634-0.527c-0.471-0.35-0.814-0.822-1.029-1.418
		l0.504-0.227c0.205,0.508,0.49,0.906,0.855,1.197c0.365,0.289,0.809,0.436,1.33,0.436c0.393,0,0.76-0.096,1.102-0.285
		s0.615-0.447,0.82-0.775c0.205-0.326,0.308-0.686,0.308-1.076c0-0.311-0.089-0.578-0.267-0.803s-0.379-0.402-0.604-0.535
		s-0.542-0.299-0.952-0.498l-1.632-0.865c-0.625-0.387-0.938-0.926-0.938-1.619c0-0.441,0.099-0.838,0.296-1.188
		s0.472-0.621,0.825-0.814c0.352-0.193,0.751-0.289,1.196-0.289c0.457,0,0.885,0.113,1.284,0.342S348.415,94.652,348.632,95.043z"/>
	<path fill="#428FB8" d="M354.881,94.43h-3.744v3.287h3.65v0.543h-3.65v4.139h3.744v0.539h-4.318v-9.047h4.318V94.43z"/>
	<path fill="#428FB8" d="M358.159,98.654l2.965,4.283h-0.662l-2.95-4.283h-0.29v4.283h-0.574v-9.047h1.128
		c0.475,0,0.87,0.027,1.187,0.081s0.608,0.179,0.876,0.374c0.609,0.43,0.914,1.078,0.914,1.945c0,0.51-0.11,0.941-0.329,1.297
		c-0.221,0.355-0.526,0.623-0.918,0.801S358.665,98.654,358.159,98.654z M357.222,98.113h0.732c0.357,0,0.659-0.025,0.905-0.076
		s0.473-0.166,0.68-0.344c0.424-0.344,0.636-0.818,0.636-1.426c0-0.227-0.036-0.448-0.107-0.664s-0.178-0.408-0.322-0.576
		c-0.143-0.168-0.32-0.299-0.531-0.393c-0.32-0.137-0.86-0.205-1.62-0.205h-0.372V98.113z"/>
	<path fill="#428FB8" d="M370.675,93.891v9.346l-7.597-8.074v7.775h-0.574v-9.166l7.597,8.016v-7.896H370.675z"/>
	<path fill="#428FB8" d="M377.48,99.961h-3.973l-1.213,2.977h-0.589l3.794-9.348l3.779,9.348h-0.589L377.48,99.961z M377.264,99.422
		l-1.764-4.367l-1.775,4.367H377.264z"/>
	<path fill="#428FB8" d="M389.445,102.938l-1.55-7.488h-0.023l-3.155,7.787l-3.144-7.787h-0.023l-1.55,7.488h-0.551l1.942-9.348
		l3.325,8.232l3.337-8.232l1.942,9.348H389.445z"/>
	<path fill="#428FB8" d="M395.396,94.43h-3.744v3.287h3.65v0.543h-3.65v4.139h3.744v0.539h-4.318v-9.047h4.318V94.43z"/>
</g>
<g>
	<path fill="#428FB8" d="M520.039,93.891v8.508h2.306v0.539h-2.88v-9.047H520.039z"/>
	<path fill="#428FB8" d="M527.539,93.771c0.832,0,1.608,0.209,2.331,0.627c0.721,0.418,1.295,0.984,1.723,1.699
		c0.426,0.715,0.64,1.486,0.64,2.316s-0.214,1.604-0.64,2.316c-0.428,0.715-1.002,1.279-1.723,1.699
		c-0.723,0.418-1.499,0.629-2.331,0.629s-1.609-0.211-2.331-0.629c-0.722-0.42-1.296-0.984-1.723-1.699
		c-0.427-0.713-0.64-1.486-0.64-2.316c0-0.623,0.122-1.217,0.366-1.781s0.585-1.062,1.022-1.494s0.94-0.768,1.511-1.008
		C526.313,93.891,526.912,93.771,527.539,93.771z M527.539,94.311c-0.736,0-1.421,0.186-2.052,0.557
		c-0.633,0.371-1.135,0.873-1.506,1.506c-0.373,0.633-0.559,1.312-0.559,2.041s0.186,1.41,0.559,2.043
		c0.371,0.633,0.873,1.135,1.506,1.506c0.631,0.371,1.315,0.557,2.052,0.557c0.732,0,1.415-0.188,2.05-0.562
		c0.633-0.373,1.137-0.875,1.508-1.506c0.373-0.629,0.559-1.309,0.559-2.037c0-0.547-0.108-1.07-0.325-1.572
		s-0.515-0.941-0.892-1.318c-0.379-0.377-0.818-0.674-1.32-0.89S528.09,94.311,527.539,94.311z"/>
	<path fill="#428FB8" d="M540.822,94.945v0.791c-0.348-0.426-0.801-0.77-1.359-1.032s-1.117-0.394-1.676-0.394
		c-0.555,0-1.082,0.11-1.581,0.332s-0.939,0.527-1.32,0.917c-0.383,0.39-0.68,0.837-0.895,1.342c-0.213,0.505-0.32,1.028-0.32,1.571
		c0,0.521,0.107,1.025,0.322,1.51c0.215,0.486,0.512,0.916,0.891,1.289c0.395,0.373,0.848,0.674,1.359,0.902
		c0.512,0.23,1.026,0.346,1.544,0.346c0.35,0,0.718-0.059,1.104-0.178c0.387-0.117,0.751-0.283,1.093-0.494s0.621-0.447,0.838-0.709
		v0.791c-0.904,0.752-1.908,1.129-3.012,1.129c-0.824,0-1.6-0.211-2.326-0.629c-0.727-0.42-1.307-0.984-1.74-1.697
		s-0.65-1.482-0.65-2.307c0-0.838,0.214-1.613,0.644-2.328c0.428-0.715,1.006-1.281,1.732-1.699s1.511-0.627,2.353-0.627
		c0.363,0,0.723,0.045,1.079,0.136s0.698,0.224,1.025,0.399S540.553,94.695,540.822,94.945z"/>
	<path fill="#428FB8" d="M547.364,99.961h-3.973l-1.213,2.977h-0.589l3.794-9.348l3.779,9.348h-0.589L547.364,99.961z
		 M547.147,99.422l-1.764-4.367l-1.775,4.367H547.147z"/>
	<path fill="#428FB8" d="M552.213,94.43v8.508h-0.577V94.43h-2.338v-0.539h5.256v0.539H552.213z"/>
	<path fill="#428FB8" d="M556.171,93.891v9.047h-0.574v-9.047H556.171z"/>
	<path fill="#428FB8" d="M562.268,93.771c0.832,0,1.608,0.209,2.331,0.627c0.721,0.418,1.295,0.984,1.723,1.699
		c0.426,0.715,0.64,1.486,0.64,2.316s-0.214,1.604-0.64,2.316c-0.428,0.715-1.002,1.279-1.723,1.699
		c-0.723,0.418-1.499,0.629-2.331,0.629s-1.609-0.211-2.331-0.629c-0.722-0.42-1.296-0.984-1.723-1.699
		c-0.427-0.713-0.64-1.486-0.64-2.316c0-0.623,0.122-1.217,0.366-1.781s0.585-1.062,1.022-1.494s0.94-0.768,1.511-1.008
		C561.042,93.891,561.641,93.771,562.268,93.771z M562.268,94.311c-0.736,0-1.421,0.186-2.052,0.557
		c-0.633,0.371-1.135,0.873-1.506,1.506c-0.373,0.633-0.559,1.312-0.559,2.041s0.186,1.41,0.559,2.043
		c0.371,0.633,0.873,1.135,1.506,1.506c0.631,0.371,1.315,0.557,2.052,0.557c0.732,0,1.415-0.188,2.05-0.562
		c0.633-0.373,1.137-0.875,1.508-1.506c0.373-0.629,0.559-1.309,0.559-2.037c0-0.547-0.108-1.07-0.325-1.572
		s-0.515-0.941-0.892-1.318c-0.379-0.377-0.818-0.674-1.32-0.89S562.818,94.311,562.268,94.311z"/>
	<path fill="#428FB8" d="M576.535,93.891v9.346l-7.597-8.074v7.775h-0.574v-9.166l7.597,8.016v-7.896H576.535z"/>
</g>
<g>
	<path fill="#428FB8" d="M766.732,94.945v0.791c-0.348-0.426-0.801-0.77-1.359-1.032s-1.117-0.394-1.676-0.394
		c-0.555,0-1.082,0.11-1.581,0.332s-0.939,0.527-1.32,0.917c-0.383,0.39-0.68,0.837-0.895,1.342c-0.213,0.505-0.32,1.028-0.32,1.571
		c0,0.521,0.107,1.025,0.322,1.51c0.215,0.486,0.512,0.916,0.891,1.289c0.395,0.373,0.848,0.674,1.359,0.902
		c0.512,0.23,1.026,0.346,1.544,0.346c0.35,0,0.718-0.059,1.104-0.178c0.387-0.117,0.751-0.283,1.093-0.494s0.621-0.447,0.838-0.709
		v0.791c-0.904,0.752-1.908,1.129-3.012,1.129c-0.824,0-1.6-0.211-2.326-0.629c-0.727-0.42-1.307-0.984-1.74-1.697
		s-0.65-1.482-0.65-2.307c0-0.838,0.214-1.613,0.644-2.328c0.428-0.715,1.006-1.281,1.732-1.699s1.511-0.627,2.353-0.627
		c0.363,0,0.723,0.045,1.079,0.136s0.698,0.224,1.025,0.399S766.463,94.695,766.732,94.945z"/>
	<path fill="#428FB8" d="M772.565,93.771c0.832,0,1.608,0.209,2.331,0.627c0.721,0.418,1.295,0.984,1.723,1.699
		c0.426,0.715,0.64,1.486,0.64,2.316s-0.214,1.604-0.64,2.316c-0.428,0.715-1.002,1.279-1.723,1.699
		c-0.723,0.418-1.499,0.629-2.331,0.629s-1.609-0.211-2.331-0.629c-0.722-0.42-1.296-0.984-1.723-1.699
		c-0.427-0.713-0.64-1.486-0.64-2.316c0-0.623,0.122-1.217,0.366-1.781s0.585-1.062,1.022-1.494s0.94-0.768,1.511-1.008
		C771.34,93.891,771.938,93.771,772.565,93.771z M772.565,94.311c-0.736,0-1.421,0.186-2.052,0.557
		c-0.633,0.371-1.135,0.873-1.506,1.506c-0.373,0.633-0.559,1.312-0.559,2.041s0.186,1.41,0.559,2.043
		c0.371,0.633,0.873,1.135,1.506,1.506c0.631,0.371,1.315,0.557,2.052,0.557c0.732,0,1.415-0.188,2.05-0.562
		c0.633-0.373,1.137-0.875,1.508-1.506c0.373-0.629,0.559-1.309,0.559-2.037c0-0.547-0.108-1.07-0.325-1.572
		s-0.515-0.941-0.892-1.318c-0.379-0.377-0.818-0.674-1.32-0.89S773.116,94.311,772.565,94.311z"/>
	<path fill="#428FB8" d="M786.833,93.891v9.346l-7.597-8.074v7.775h-0.574v-9.166l7.597,8.016v-7.896H786.833z"/>
	<path fill="#428FB8" d="M790.794,94.43v8.508h-0.577V94.43h-2.338v-0.539h5.256v0.539H790.794z"/>
	<path fill="#428FB8" d="M799.038,99.961h-3.973l-1.213,2.977h-0.589l3.794-9.348l3.779,9.348h-0.589L799.038,99.961z
		 M798.821,99.422l-1.764-4.367l-1.775,4.367H798.821z"/>
	<path fill="#428FB8" d="M809.058,94.945v0.791c-0.348-0.426-0.801-0.77-1.359-1.032s-1.117-0.394-1.676-0.394
		c-0.555,0-1.082,0.11-1.581,0.332s-0.939,0.527-1.32,0.917c-0.383,0.39-0.68,0.837-0.895,1.342c-0.213,0.505-0.32,1.028-0.32,1.571
		c0,0.521,0.107,1.025,0.322,1.51c0.215,0.486,0.512,0.916,0.891,1.289c0.395,0.373,0.848,0.674,1.359,0.902
		c0.512,0.23,1.026,0.346,1.544,0.346c0.35,0,0.718-0.059,1.104-0.178c0.387-0.117,0.751-0.283,1.093-0.494s0.621-0.447,0.838-0.709
		v0.791c-0.904,0.752-1.908,1.129-3.012,1.129c-0.824,0-1.6-0.211-2.326-0.629c-0.727-0.42-1.307-0.984-1.74-1.697
		s-0.65-1.482-0.65-2.307c0-0.838,0.214-1.613,0.644-2.328c0.428-0.715,1.006-1.281,1.732-1.699s1.511-0.627,2.353-0.627
		c0.363,0,0.723,0.045,1.079,0.136s0.698,0.224,1.025,0.399S808.788,94.695,809.058,94.945z"/>
	<path fill="#428FB8" d="M812.755,94.43v8.508h-0.577V94.43h-2.338v-0.539h5.256v0.539H812.755z"/>
</g>
</svg>
