<?xml version="1.0" encoding="utf-8"?>
<!-- Generator: Adobe Illustrator 15.0.0, SVG Export Plug-In . SVG Version: 6.00 Build 0)  -->
<!DOCTYPE svg PUBLIC "-//W3C//DTD SVG 1.1//EN" "http://www.w3.org/Graphics/SVG/1.1/DTD/svg11.dtd">
<svg version="1.1" id="Layer_1" xmlns="http://www.w3.org/2000/svg" xmlns:xlink="http://www.w3.org/1999/xlink" x="0px" y="0px"
	 width="25px" height="25px" viewBox="0 0 25 25" enable-background="new 0 0 25 25" xml:space="preserve">
<g>
	<path fill-rule="evenodd" clip-rule="evenodd" fill="#4252B8" d="M19.377,16.578c-0.105,0.248-0.844,1.816-1.242,2.482
		c-0.904,1.512-2.108,3.068-3.292,4.156c-0.602,0.553-1.575,1.384-2.429,1.403c-0.66,0.015-1.271-0.437-1.727-0.756
		c-1.297-0.909-2.444-2.317-3.347-3.67c-1.448-2.172-2.644-4.233-2.969-6.908c-0.105-0.868-0.027-2.068,0.378-2.645
		c0.016-0.021,0.162-0.054,0.162-0.054c0.099-0.165,0.041-0.291,0.107-0.378c1.311-1.704,4.242-1.781,7.557-1.781
		c2.977,0,5.695,0.127,7.016,1.619C21.108,11.76,20.222,14.566,19.377,16.578z"/>
	<path fill-rule="evenodd" clip-rule="evenodd" fill="#4252B8" d="M14.087,0.873c0.8,0.377,1.648,1.53,1.673,2.699
		c0.047,2.219-2.439,4.111-4.803,3.022C10.041,6.171,8.953,5.101,8.96,3.625C8.971,1.227,11.869-0.514,14.087,0.873z"/>
</g>
</svg>
