<?xml version="1.0" encoding="utf-8"?>
<!-- Generator: Adobe Illustrator 18.1.1, SVG Export Plug-In . SVG Version: 6.00 Build 0)  -->
<svg version="1.1" id="Layer_1" xmlns="http://www.w3.org/2000/svg" xmlns:xlink="http://www.w3.org/1999/xlink" x="0px" y="0px"
	 viewBox="0 0 150 150" enable-background="new 0 0 150 150" xml:space="preserve">
<g>
	<g>
		<path fill="none" stroke="#221000" stroke-width="8.3531" stroke-miterlimit="10" d="M59.5,131.5c9.6,2.7,20.1,2.9,30.4,0.2
			c0.1,0,0.2,0,0.3-0.1c10.3-2.8,19.2-8.1,26.2-15.1c7.3-7.3,12.6-16.5,15.3-26.5c2.5-9.5,2.7-19.9-0.1-30.1v-0.1
			c-2.8-10.4-8.2-19.4-15.4-26.4c-7.3-7.2-16.5-12.4-26.4-15"/>
		<path fill="none" stroke="#669924" stroke-width="10.0743" stroke-miterlimit="10" d="M89.8,18.3c-9.5-2.5-19.8-2.6-30,0.1
			c-0.1,0-0.2,0.1-0.3,0.1"/>
		<path fill="none" stroke="#221000" stroke-width="8.3531" stroke-miterlimit="10" d="M59.5,18.5c-10.2,2.8-19,8.1-26,15.1
			c-7.2,7.2-12.4,16.2-15.1,26c-2.6,9.7-2.8,20.1-0.1,30.5v0.1c2.7,10.2,8,19,14.9,26c7.2,7.3,16.2,12.6,26.1,15.3"/>
	</g>
</g>
</svg>
