<?xml version="1.0" encoding="utf-8"?>
<!-- Generator: Adobe Illustrator 15.0.0, SVG Export Plug-In . SVG Version: 6.00 Build 0)  -->
<!DOCTYPE svg PUBLIC "-//W3C//DTD SVG 1.1//EN" "http://www.w3.org/Graphics/SVG/1.1/DTD/svg11.dtd">
<svg version="1.1" id="Layer_1" xmlns="http://www.w3.org/2000/svg" xmlns:xlink="http://www.w3.org/1999/xlink" x="0px" y="0px"
	 width="80px" height="80px" viewBox="0 0 80 80" enable-background="new 0 0 80 80" xml:space="preserve">
<g>
	<path fill="#215161" d="M40,11.705l18.809,18.811v41.264H21.189V30.516L40,11.705 M40,2.906L14.969,27.938V78h50.062V27.938
		L40,2.906L40,2.906z"/>
	<g>
		<path fill="#215161" d="M31.985,46.324c-0.119,3.75,1.682,7.502,3.333,10.223c-6,1.061-9.281-2.725-9.776-7.112
			c-0.984-8.688,5.952-14.144,10.888-17.107c-0.583,2.771-1.668,5.181-1.333,8c0.494,4.147,4.436,5.483,5.332,7.996
			c1.113,3.12-0.624,5.883-2.889,7.334C34.405,53.831,33.132,50.141,31.985,46.324z"/>
		<path fill="#215161" d="M47.538,55.214c-1.746,0.292-4.653,2.407-7.555,1.557c-0.364-2.878,0.486-4.786,2.668-5.335
			c1.242-0.309,2.73,0.271,4.223,0c3.135-0.564,4.335-3.223,5.554-5.555c4.416,8.504-6.207,21.023-11.776,12.223
			C43.621,57.813,45.486,56.421,47.538,55.214z"/>
		<path fill="#215161" d="M37.316,56.993c0.258,4.502,1.301,8.737,3.777,11.774c0.663,0.812,3.438,2.934,3.112,3.556
			c-1.122,2.13-4.414-1.528-4.889-2.223C36.977,66.693,36.826,62.262,37.316,56.993z"/>
	</g>
</g>
</svg>
