<?xml version="1.0" encoding="utf-8"?>
<!-- Generator: Adobe Illustrator 15.0.0, SVG Export Plug-In . SVG Version: 6.00 Build 0)  -->
<!DOCTYPE svg PUBLIC "-//W3C//DTD SVG 1.1//EN" "http://www.w3.org/Graphics/SVG/1.1/DTD/svg11.dtd">
<svg version="1.1" id="Layer_1" xmlns="http://www.w3.org/2000/svg" xmlns:xlink="http://www.w3.org/1999/xlink" x="0px" y="0px"
	 width="80px" height="80px" viewBox="0 0 80 80" enable-background="new 0 0 80 80" xml:space="preserve">
<g>
	<g>
		<path fill="#208783" d="M31.533,46.062c-0.128,4.076,1.828,8.151,3.623,11.109c-6.52,1.15-10.085-2.963-10.625-7.728
			C23.461,40.001,31,34.072,36.363,30.853c-0.633,3.011-1.812,5.631-1.449,8.693c0.535,4.507,4.821,5.959,5.794,8.691
			c1.209,3.387-0.677,6.392-3.138,7.969C34.163,54.219,32.781,50.209,31.533,46.062z"/>
		<path fill="#208783" d="M48.435,55.721c-1.897,0.319-5.059,2.616-8.209,1.69c-0.396-3.127,0.525-5.2,2.897-5.794
			c1.35-0.338,2.967,0.292,4.589,0c3.407-0.614,4.711-3.503,6.034-6.035c4.797,9.236-6.744,22.842-12.797,13.279
			C44.179,58.545,46.207,57.031,48.435,55.721z"/>
		<path fill="#208783" d="M37.327,57.653c0.281,4.894,1.415,9.498,4.106,12.797c0.72,0.883,3.736,3.188,3.38,3.864
			c-1.219,2.317-4.795-1.661-5.313-2.416C36.959,68.197,36.793,63.381,37.327,57.653z"/>
	</g>
	<rect x="17.751" y="71.886" fill="#208783" width="45.179" height="6.114"/>
	<g>
		<circle fill="#208783" cx="52.505" cy="18.458" r="10.207"/>
		<path fill="#208783" d="M65.016,18.351c-0.002-1.338,0.403-2.582,1.097-3.62c-1.146-0.549-2.145-1.436-2.826-2.621
			c-0.671-1.159-0.942-2.438-0.86-3.684c-1.268,0.098-2.576-0.169-3.757-0.854c-1.163-0.669-2.036-1.643-2.588-2.764
			c-1.049,0.723-2.315,1.143-3.681,1.143c-1.342,0-2.584-0.404-3.622-1.099c-0.55,1.145-1.435,2.143-2.618,2.826
			c-1.161,0.67-2.444,0.938-3.689,0.858c0.099,1.269-0.166,2.578-0.848,3.761c-0.672,1.163-1.646,2.033-2.766,2.584
			c0.72,1.047,1.144,2.317,1.144,3.681c-0.001,1.341-0.409,2.584-1.102,3.623c1.146,0.548,2.146,1.432,2.829,2.617
			c0.67,1.163,0.938,2.443,0.856,3.686c1.269-0.096,2.577,0.17,3.759,0.853c1.162,0.671,2.033,1.646,2.587,2.762
			c1.045-0.714,2.313-1.136,3.677-1.136c1.341,0,2.586,0.408,3.625,1.099c0.549-1.144,1.431-2.145,2.615-2.826
			c1.162-0.67,2.442-0.941,3.689-0.858c-0.096-1.271,0.17-2.577,0.854-3.762c0.671-1.16,1.643-2.032,2.764-2.585
			C65.434,20.984,65.014,19.719,65.016,18.351z M52.507,29.532c-6.118,0-11.076-4.959-11.076-11.074
			c0-6.117,4.959-11.077,11.076-11.077c6.115,0,11.075,4.959,11.075,11.077C63.582,24.573,58.622,29.532,52.507,29.532z"/>
	</g>
</g>
</svg>
