<?xml version="1.0" encoding="utf-8"?>
<!-- Generator: Adobe Illustrator 15.0.0, SVG Export Plug-In . SVG Version: 6.00 Build 0)  -->
<!DOCTYPE svg PUBLIC "-//W3C//DTD SVG 1.1//EN" "http://www.w3.org/Graphics/SVG/1.1/DTD/svg11.dtd">
<svg version="1.1" id="Layer_1" xmlns="http://www.w3.org/2000/svg" xmlns:xlink="http://www.w3.org/1999/xlink" x="0px" y="0px"
	 width="103.54px" height="150px" viewBox="0 0 103.54 150" enable-background="new 0 0 103.54 150" xml:space="preserve">
<g>
	<g>
		<path fill="#428FB8" d="M26.418,59.096c0-17.69,14.341-32.031,32.031-32.031s32.03,14.341,32.03,32.031
			c0,0.854-0.045,1.698-0.108,2.535c0.848-3.237,1.301-6.632,1.301-10.133c0-22.051-17.875-39.927-39.927-39.927
			c-22.051,0-39.927,17.876-39.927,39.927c0,22.051,17.876,39.926,39.927,39.926c1.736,0,3.441-0.122,5.119-0.338
			C39.911,90.26,26.418,76.254,26.418,59.096z"/>
		<path fill="#428FB8" d="M58.3,33.781c-1.158,0-2.299,0.082-3.416,0.226c11.317,0.552,20.324,9.901,20.324,21.357
			c0,11.81-9.572,21.384-21.384,21.384c-11.81,0-21.384-9.575-21.384-21.384c0-0.57,0.029-1.133,0.073-1.692
			c-0.565,2.161-0.868,4.427-0.868,6.764c0,14.722,11.934,26.655,26.656,26.655s26.655-11.933,26.655-26.655
			C84.955,45.715,73.021,33.781,58.3,33.781z"/>
		<circle fill="#428FB8" cx="59.79" cy="60.436" r="8.343"/>
	</g>
	<g>
		<path fill="#428FB8" d="M15.03,114.354l-8.196,25.088H2.105l11.167-32.555h6.439l-1.495,32.555h-4.745L15.03,114.354z"/>
		<path fill="#428FB8" d="M39.007,106.887l-0.896,4.629h-4.397l-5.426,27.926h-4.695l5.426-27.926h-4.396l0.894-4.629H39.007z"/>
		<path fill="#428FB8" d="M54.156,106.887l-0.896,4.629h-4.397l-5.426,27.926h-4.695l5.426-27.926H39.77l0.896-4.629H54.156z"/>
		<path fill="#428FB8" d="M61.356,114.354l-8.195,25.088h-4.729l11.167-32.555h6.438l-1.492,32.555h-4.746L61.356,114.354z"/>
		<path fill="#428FB8" d="M73.771,106.887h4.694l-6.321,32.555h-4.697L73.771,106.887z"/>
		<path fill="#428FB8" d="M82.86,106.887h4.695l0.779,18.883l3.668-18.883h4.348l-6.322,32.555h-4.694l-0.729-18.283l-3.549,18.283
			h-4.517L82.86,106.887z"/>
	</g>
</g>
</svg>
