<?xml version="1.0" encoding="utf-8"?>
<!-- Generator: Adobe Illustrator 15.0.0, SVG Export Plug-In . SVG Version: 6.00 Build 0)  -->
<!DOCTYPE svg PUBLIC "-//W3C//DTD SVG 1.1//EN" "http://www.w3.org/Graphics/SVG/1.1/DTD/svg11.dtd">
<svg version="1.1" id="Layer_1" xmlns="http://www.w3.org/2000/svg" xmlns:xlink="http://www.w3.org/1999/xlink" x="0px" y="0px"
	 width="25px" height="25px" viewBox="0 0 25 25" enable-background="new 0 0 25 25" xml:space="preserve">
<g>
	<path fill-rule="evenodd" clip-rule="evenodd" fill="#428FB8" d="M11.886,0.425c2.098-0.266,3.872,1.143,3.887,3.185
		c0.031,4.326-6.793,4.381-6.801,0.054C8.971,3.257,9.205,2.368,9.35,2.098C9.692,1.46,10.589,0.589,11.886,0.425z"/>
	<path fill-rule="evenodd" clip-rule="evenodd" fill="#428FB8" d="M12.156,8.467c1.518-0.191,2.771,1.311,3.616,2.267
		c1.402,1.584,2.85,3.865,3.724,6.045c0.79,1.972,1.537,5.144-0.378,6.638c-1.686,1.317-4.814,1.188-7.664,1.188
		c-3.426,0-7.041-0.412-7.178-3.885c-0.057-1.451,0.444-2.705,0.863-3.779c0.433-1.107,1.005-2.156,1.565-3.076
		C7.96,11.805,9.188,10,10.969,8.898C11.267,8.714,11.704,8.523,12.156,8.467z"/>
</g>
</svg>
